<?xml version="1.0" encoding="utf-8"?>
<!-- Generator: Adobe Illustrator 15.1.0, SVG Export Plug-In . SVG Version: 6.00 Build 0)  -->
<!DOCTYPE svg PUBLIC "-//W3C//DTD SVG 1.1//EN" "http://www.w3.org/Graphics/SVG/1.1/DTD/svg11.dtd">
<svg version="1.1" id="Layer_1" xmlns="http://www.w3.org/2000/svg" xmlns:xlink="http://www.w3.org/1999/xlink" x="0px" y="0px"
	 width="868px" height="448px" viewBox="0 0 868 448" enable-background="new 0 0 868 448" xml:space="preserve">
<g>
	<g enable-background="new    ">
		<path d="M121.691,297.541c-0.749,0.732-1.666,1.098-2.753,1.098c-1.244,0-2.264-0.49-3.061-1.469v1.345h-0.743v-13.096h0.743
			v7.149c0.785-0.979,1.805-1.469,3.061-1.469c1.087,0,1.999,0.359,2.735,1.08c0.749,0.73,1.123,1.627,1.123,2.689
			C122.796,295.931,122.427,296.822,121.691,297.541z M121.147,292.71c-0.616-0.602-1.352-0.902-2.209-0.902
			c-0.869,0-1.606,0.295-2.209,0.885c-0.616,0.602-0.924,1.327-0.924,2.177c0,0.838,0.308,1.557,0.924,2.159
			c0.616,0.602,1.352,0.902,2.209,0.902c0.87,0,1.606-0.295,2.209-0.885c0.616-0.602,0.924-1.327,0.924-2.177
			C122.071,294.031,121.763,293.312,121.147,292.71z"/>
		<path d="M128.229,292.285c-0.193-0.142-0.398-0.254-0.616-0.336s-0.447-0.124-0.688-0.124c-0.205,0-0.398,0.062-0.58,0.187
			c-0.181,0.123-0.338,0.277-0.471,0.459c-0.133,0.184-0.239,0.387-0.317,0.611c-0.079,0.225-0.118,0.431-0.118,0.619v4.813h-0.743
			v-7.31h0.743v0.992c0.157-0.271,0.362-0.52,0.616-0.744c0.253-0.224,0.531-0.336,0.833-0.336c0.374,0,0.682,0.041,0.924,0.124
			c0.241,0.083,0.513,0.229,0.815,0.442L128.229,292.285z"/>
		<path d="M130.819,289.896c-0.133,0-0.272-0.053-0.417-0.16c-0.109-0.105-0.169-0.247-0.181-0.424c0-0.318,0.199-0.514,0.598-0.584
			c0.301,0,0.5,0.194,0.598,0.584C131.417,289.701,131.218,289.896,130.819,289.896z M130.439,298.515v-7.31h0.742v7.31H130.439z"/>
		<path d="M133.789,294.71c0,0.991,0.271,1.775,0.815,2.354c0.567,0.591,1.346,0.885,2.336,0.885c0.507,0,0.966-0.083,1.376-0.247
			c0.519-0.213,0.984-0.644,1.395-1.293l0.67,0.301c-0.471,0.874-1.195,1.463-2.173,1.771c-0.375,0.118-0.797,0.177-1.268,0.177
			c-1.123,0-2.047-0.359-2.771-1.08c-0.737-0.719-1.105-1.621-1.105-2.707c0-1.098,0.362-2,1.087-2.707
			c0.736-0.721,1.666-1.08,2.789-1.08c1.11,0,2.028,0.336,2.753,1.009c0.736,0.673,1.104,1.546,1.104,2.619H133.789z
			 M138.896,292.392c-0.568-0.401-1.22-0.603-1.956-0.603c-1.546,0-2.56,0.744-3.043,2.23h6.067
			C139.844,293.348,139.488,292.805,138.896,292.392z"/>
		<path d="M144.293,286.145l-0.489-0.053c-0.676,0-1.014,0.389-1.014,1.168v3.945h1.775v0.727h-1.775v6.583h-0.743v-6.583h-1.014
			v-0.727h1.014v-4.158c0-1.121,0.58-1.682,1.739-1.682c0.265,0,0.435,0.012,0.507,0.036c0.145,0,0.308,0.042,0.489,0.124v0.725
			L144.293,286.145z"/>
		<path d="M157.26,298.515v-1.257c-0.785,0.92-1.781,1.381-2.988,1.381c-1.087,0-1.999-0.359-2.735-1.08
			c-0.749-0.73-1.123-1.628-1.123-2.689c0-1.063,0.368-1.953,1.105-2.672c0.749-0.732,1.666-1.098,2.753-1.098
			c1.195,0,2.191,0.46,2.988,1.381v-1.275h0.743v7.31H157.26z M156.482,292.71c-0.616-0.602-1.353-0.902-2.209-0.902
			c-0.87,0-1.606,0.295-2.209,0.885c-0.616,0.602-0.924,1.327-0.924,2.177c0,0.838,0.308,1.557,0.924,2.159
			c0.616,0.602,1.352,0.902,2.209,0.902c0.869,0,1.605-0.295,2.209-0.885c0.616-0.602,0.924-1.327,0.924-2.177
			C157.406,294.031,157.097,293.312,156.482,292.71z"/>
		<path d="M165.247,298.515v-4.371c0-1.546-0.712-2.318-2.137-2.318c-0.701,0-1.232,0.2-1.594,0.602
			c-0.375,0.401-0.562,0.95-0.562,1.646v4.442h-0.743v-7.31h0.743v0.886c0.338-0.649,1.056-0.974,2.155-0.974
			c0.93,0,1.642,0.26,2.137,0.779c0.495,0.519,0.743,1.244,0.743,2.176v4.442H165.247z"/>
		<path d="M174.665,298.515v-1.257c-0.785,0.92-1.781,1.381-2.988,1.381c-1.087,0-1.999-0.359-2.735-1.08
			c-0.749-0.73-1.123-1.628-1.123-2.689c0-1.063,0.368-1.953,1.105-2.672c0.749-0.732,1.666-1.098,2.753-1.098
			c1.195,0,2.191,0.46,2.988,1.381v-1.275h0.743v7.31H174.665z M173.886,292.71c-0.616-0.602-1.353-0.902-2.209-0.902
			c-0.87,0-1.606,0.295-2.209,0.885c-0.616,0.602-0.924,1.327-0.924,2.177c0,0.838,0.308,1.557,0.924,2.159
			c0.616,0.602,1.352,0.902,2.209,0.902c0.869,0,1.605-0.295,2.209-0.885c0.616-0.602,0.924-1.327,0.924-2.177
			C174.81,294.031,174.502,293.312,173.886,292.71z"/>
		<path d="M177.816,298.515v-13.096h0.725v13.096H177.816z"/>
		<path d="M182.452,301.947h-0.833l1.938-4.105l-3.151-6.637h0.797l2.789,5.77l2.753-5.77h0.815L182.452,301.947z"/>
		<path d="M192.83,298.055c-0.483,0.4-1.063,0.602-1.739,0.602c-1.159,0-2.028-0.514-2.608-1.539l0.634-0.372
			c0.205,0.366,0.453,0.649,0.743,0.849c0.301,0.225,0.712,0.337,1.231,0.337c1.135,0,1.702-0.472,1.702-1.416
			c0-0.413-0.199-0.772-0.598-1.079c-0.121-0.07-0.292-0.15-0.516-0.239s-0.498-0.191-0.824-0.31
			c-0.604-0.213-1.039-0.425-1.304-0.637c-0.387-0.307-0.58-0.75-0.58-1.328c0-0.495,0.193-0.92,0.58-1.273
			c0.374-0.365,0.863-0.549,1.467-0.549c0.833,0,1.54,0.283,2.119,0.85l-0.543,0.46c-0.41-0.401-0.936-0.602-1.576-0.602
			c-0.869,0-1.304,0.372-1.304,1.114c0,0.331,0.133,0.602,0.398,0.814c0.217,0.166,0.562,0.324,1.032,0.479
			c0.41,0.141,0.749,0.273,1.014,0.397s0.465,0.233,0.598,0.327c0.519,0.39,0.779,0.915,0.779,1.575
			C193.536,297.152,193.301,297.665,192.83,298.055z"/>
		<path d="M195.655,289.896c-0.133,0-0.272-0.053-0.417-0.16c-0.109-0.105-0.169-0.247-0.181-0.424c0-0.318,0.199-0.514,0.598-0.584
			c0.301,0,0.5,0.194,0.598,0.584C196.253,289.701,196.053,289.896,195.655,289.896z M195.275,298.515v-7.31h0.742v7.31H195.275z"/>
		<path d="M202.157,298.055c-0.483,0.4-1.063,0.602-1.739,0.602c-1.159,0-2.028-0.514-2.608-1.539l0.634-0.372
			c0.205,0.366,0.453,0.649,0.743,0.849c0.301,0.225,0.712,0.337,1.231,0.337c1.135,0,1.702-0.472,1.702-1.416
			c0-0.413-0.199-0.772-0.598-1.079c-0.121-0.07-0.292-0.15-0.516-0.239s-0.498-0.191-0.824-0.31
			c-0.604-0.213-1.039-0.425-1.304-0.637c-0.387-0.307-0.58-0.75-0.58-1.328c0-0.495,0.193-0.92,0.58-1.273
			c0.374-0.365,0.863-0.549,1.467-0.549c0.833,0,1.54,0.283,2.119,0.85l-0.543,0.46c-0.41-0.401-0.936-0.602-1.576-0.602
			c-0.869,0-1.304,0.372-1.304,1.114c0,0.331,0.133,0.602,0.398,0.814c0.217,0.166,0.562,0.324,1.032,0.479
			c0.41,0.141,0.749,0.273,1.014,0.397s0.465,0.233,0.598,0.327c0.519,0.39,0.779,0.915,0.779,1.575
			C202.863,297.152,202.628,297.665,202.157,298.055z"/>
	</g>
</g>
</svg>
