<?xml version="1.0" encoding="utf-8"?>
<!-- Generator: Adobe Illustrator 15.1.0, SVG Export Plug-In . SVG Version: 6.00 Build 0)  -->
<!DOCTYPE svg PUBLIC "-//W3C//DTD SVG 1.1//EN" "http://www.w3.org/Graphics/SVG/1.1/DTD/svg11.dtd">
<svg version="1.1" id="Layer_1" xmlns="http://www.w3.org/2000/svg" xmlns:xlink="http://www.w3.org/1999/xlink" x="0px" y="0px"
	 width="868px" height="448px" viewBox="0 0 868 448" enable-background="new 0 0 868 448" xml:space="preserve">
<g>
	<g enable-background="new    ">
		<path d="M335.066,305.404c-0.934,0-1.71-0.303-2.329-0.908c-0.619-0.604-0.929-1.363-0.929-2.275s0.31-1.672,0.929-2.276
			s1.396-0.907,2.329-0.907c0.802,0,1.441,0.178,1.919,0.535v0.729l-0.396-0.252l-0.426-0.224c-0.386-0.129-0.752-0.193-1.097-0.193
			c-0.781,0-1.416,0.238-1.903,0.714c-0.497,0.486-0.746,1.111-0.746,1.875c0,0.754,0.249,1.373,0.746,1.859
			s1.132,0.729,1.903,0.729c0.73,0,1.37-0.237,1.919-0.713v0.758C336.415,305.221,335.777,305.404,335.066,305.404z"/>
		<path d="M342.906,304.467c-0.629,0.615-1.4,0.922-2.314,0.922c-0.913,0-1.68-0.302-2.299-0.906
			c-0.629-0.615-0.943-1.369-0.943-2.262c0-0.883,0.314-1.631,0.943-2.246c0.619-0.625,1.386-0.938,2.299-0.938
			c0.903,0,1.67,0.307,2.3,0.922c0.629,0.615,0.943,1.369,0.943,2.262S343.526,303.862,342.906,304.467z M342.465,300.391
			c-0.508-0.506-1.132-0.759-1.873-0.759c-0.71,0-1.324,0.259-1.842,0.773c-0.528,0.517-0.792,1.121-0.792,1.815
			c0,0.704,0.259,1.309,0.776,1.814s1.137,0.76,1.857,0.76c0.731,0,1.351-0.248,1.857-0.744c0.519-0.506,0.777-1.116,0.777-1.83
			C343.227,301.496,342.973,300.887,342.465,300.391z"/>
		<path d="M346.988,294.887l-0.411-0.045c-0.568,0-0.853,0.327-0.853,0.981v3.317h1.492v0.61h-1.492v5.534h-0.625v-5.534h-0.853
			v-0.61h0.853v-3.496c0-0.941,0.487-1.413,1.462-1.413c0.224,0,0.365,0.011,0.427,0.03c0.121,0,0.259,0.035,0.411,0.104v0.61
			L346.988,294.887z"/>
		<path d="M350.611,294.887l-0.411-0.045c-0.568,0-0.853,0.327-0.853,0.981v3.317h1.492v0.61h-1.492v5.534h-0.625v-5.534h-0.853
			v-0.61h0.853v-3.496c0-0.941,0.487-1.413,1.462-1.413c0.224,0,0.365,0.011,0.427,0.03c0.121,0,0.259,0.035,0.411,0.104v0.61
			L350.611,294.887z"/>
		<path d="M351.692,302.086c0,0.834,0.229,1.494,0.685,1.979c0.478,0.496,1.132,0.743,1.964,0.743c0.427,0,0.813-0.068,1.157-0.208
			c0.437-0.179,0.827-0.54,1.173-1.086l0.563,0.253c-0.396,0.734-1.005,1.23-1.827,1.488c-0.314,0.099-0.67,0.148-1.066,0.148
			c-0.943,0-1.72-0.303-2.329-0.908c-0.619-0.604-0.929-1.363-0.929-2.275c0-0.922,0.305-1.682,0.914-2.276
			c0.618-0.604,1.4-0.907,2.344-0.907c0.935,0,1.706,0.282,2.314,0.848c0.619,0.565,0.929,1.299,0.929,2.201H351.692z
			 M355.985,300.138c-0.477-0.337-1.025-0.506-1.645-0.506c-1.299,0-2.151,0.625-2.558,1.874h5.101
			C356.781,300.941,356.482,300.484,355.985,300.138z"/>
		<path d="M359.745,302.086c0,0.834,0.229,1.494,0.685,1.979c0.478,0.496,1.132,0.743,1.964,0.743c0.427,0,0.813-0.068,1.157-0.208
			c0.437-0.179,0.827-0.54,1.173-1.086l0.563,0.253c-0.396,0.734-1.005,1.23-1.827,1.488c-0.314,0.099-0.67,0.148-1.066,0.148
			c-0.943,0-1.72-0.303-2.329-0.908c-0.619-0.604-0.929-1.363-0.929-2.275c0-0.922,0.305-1.682,0.914-2.276
			c0.618-0.604,1.4-0.907,2.344-0.907c0.935,0,1.706,0.282,2.314,0.848c0.619,0.565,0.929,1.299,0.929,2.201H359.745z
			 M364.038,300.138c-0.477-0.337-1.025-0.506-1.645-0.506c-1.299,0-2.151,0.625-2.558,1.874h5.101
			C364.835,300.941,364.535,300.484,364.038,300.138z"/>
	</g>
</g>
</svg>
