<?xml version="1.0" encoding="utf-8"?>
<!-- Generator: Adobe Illustrator 15.1.0, SVG Export Plug-In . SVG Version: 6.00 Build 0)  -->
<!DOCTYPE svg PUBLIC "-//W3C//DTD SVG 1.1//EN" "http://www.w3.org/Graphics/SVG/1.1/DTD/svg11.dtd">
<svg version="1.1" id="Layer_1" xmlns="http://www.w3.org/2000/svg" xmlns:xlink="http://www.w3.org/1999/xlink" x="0px" y="0px"
	 width="868px" height="448px" viewBox="0 0 868 448" enable-background="new 0 0 868 448" xml:space="preserve">
<g>
	<g enable-background="new    ">
		<path d="M86.057,204.126l-3.532-7.627h0.797l2.717,5.823l2.735-5.823h0.833L86.057,204.126z"/>
		<path d="M91.618,195.189c-0.133,0-0.272-0.053-0.417-0.159c-0.109-0.106-0.169-0.248-0.181-0.425c0-0.318,0.199-0.513,0.598-0.584
			c0.301,0,0.5,0.195,0.598,0.584C92.216,194.995,92.016,195.189,91.618,195.189z M91.238,203.808v-7.309h0.742v7.309H91.238z"/>
		<path d="M98.119,203.348c-0.483,0.401-1.063,0.602-1.739,0.602c-1.159,0-2.028-0.513-2.608-1.54l0.634-0.372
			c0.205,0.366,0.453,0.649,0.743,0.849c0.301,0.225,0.712,0.336,1.231,0.336c1.135,0,1.702-0.472,1.702-1.416
			c0-0.413-0.199-0.772-0.598-1.079c-0.121-0.071-0.292-0.15-0.516-0.239c-0.224-0.088-0.498-0.191-0.824-0.31
			c-0.604-0.212-1.039-0.425-1.304-0.637c-0.387-0.307-0.58-0.749-0.58-1.327c0-0.496,0.193-0.92,0.58-1.274
			c0.374-0.366,0.863-0.549,1.467-0.549c0.833,0,1.54,0.283,2.119,0.85l-0.543,0.46c-0.41-0.401-0.936-0.602-1.576-0.602
			c-0.869,0-1.304,0.372-1.304,1.115c0,0.331,0.133,0.602,0.398,0.814c0.217,0.166,0.562,0.325,1.032,0.478
			c0.41,0.142,0.749,0.274,1.014,0.398c0.266,0.124,0.465,0.233,0.598,0.328c0.519,0.389,0.779,0.915,0.779,1.575
			C98.825,202.445,98.59,202.958,98.119,203.348z"/>
		<path d="M105.2,203.17c-0.495,0.52-1.189,0.779-2.083,0.779c-0.882,0-1.564-0.253-2.047-0.761
			c-0.483-0.507-0.724-1.215-0.724-2.124v-4.566h0.742v4.566c0,0.696,0.157,1.233,0.471,1.61c0.326,0.378,0.845,0.566,1.558,0.566
			c1.388,0,2.083-0.726,2.083-2.177v-4.566h0.725v4.566C105.925,201.961,105.683,202.664,105.2,203.17z"/>
		<path d="M114.491,203.808v-1.256c-0.785,0.92-1.781,1.38-2.988,1.38c-1.087,0-1.999-0.36-2.735-1.08
			c-0.749-0.731-1.123-1.628-1.123-2.69c0-1.062,0.368-1.953,1.105-2.672c0.749-0.731,1.666-1.097,2.753-1.097
			c1.195,0,2.191,0.46,2.988,1.38v-1.274h0.743v7.309H114.491z M113.713,198.003c-0.616-0.602-1.353-0.902-2.209-0.902
			c-0.87,0-1.606,0.295-2.209,0.885c-0.616,0.602-0.924,1.327-0.924,2.177c0,0.838,0.308,1.557,0.924,2.159
			c0.616,0.602,1.352,0.902,2.209,0.902c0.869,0,1.605-0.295,2.209-0.885c0.616-0.602,0.924-1.327,0.924-2.177
			C114.636,199.325,114.328,198.604,113.713,198.003z"/>
		<path d="M117.642,203.808v-13.096h0.725v13.096H117.642z"/>
		<path d="M132.022,203.808v-1.31c-0.797,0.956-1.811,1.434-3.043,1.434c-1.086,0-1.998-0.36-2.734-1.08
			c-0.749-0.731-1.123-1.628-1.123-2.69c0-1.062,0.368-1.953,1.105-2.672c0.748-0.731,1.666-1.097,2.752-1.097
			c1.195,0,2.21,0.478,3.043,1.434v-7.114h0.743v13.096H132.022z M131.189,198.003c-0.616-0.602-1.353-0.902-2.21-0.902
			c-0.869,0-1.606,0.295-2.209,0.885c-0.616,0.602-0.923,1.327-0.923,2.177c0,0.838,0.308,1.557,0.923,2.159
			c0.616,0.602,1.352,0.902,2.209,0.902c0.87,0,1.606-0.295,2.21-0.885c0.616-0.602,0.923-1.327,0.923-2.177
			C132.113,199.325,131.805,198.604,131.189,198.003z"/>
		<path d="M135.119,200.003c0,0.991,0.271,1.775,0.815,2.354c0.567,0.59,1.346,0.885,2.336,0.885c0.507,0,0.966-0.083,1.376-0.248
			c0.519-0.212,0.984-0.643,1.395-1.292l0.67,0.301c-0.471,0.874-1.195,1.463-2.173,1.77c-0.375,0.118-0.797,0.177-1.268,0.177
			c-1.123,0-2.047-0.36-2.771-1.08c-0.737-0.719-1.105-1.622-1.105-2.708c0-1.097,0.362-2,1.087-2.708
			c0.736-0.72,1.666-1.08,2.789-1.08c1.11,0,2.028,0.336,2.753,1.009c0.736,0.672,1.104,1.545,1.104,2.619H135.119z
			 M140.227,197.685c-0.568-0.401-1.22-0.602-1.956-0.602c-1.546,0-2.56,0.744-3.043,2.23h6.067
			C141.175,198.64,140.818,198.098,140.227,197.685z"/>
		<path d="M145.678,204.126l-3.532-7.627h0.797l2.716,5.823l2.735-5.823h0.833L145.678,204.126z"/>
		<path d="M150.876,200.003c0,0.991,0.271,1.775,0.815,2.354c0.567,0.59,1.346,0.885,2.336,0.885c0.507,0,0.966-0.083,1.376-0.248
			c0.519-0.212,0.984-0.643,1.395-1.292l0.67,0.301c-0.471,0.874-1.195,1.463-2.173,1.77c-0.375,0.118-0.797,0.177-1.268,0.177
			c-1.123,0-2.047-0.36-2.771-1.08c-0.737-0.719-1.105-1.622-1.105-2.708c0-1.097,0.362-2,1.087-2.708
			c0.736-0.72,1.666-1.08,2.789-1.08c1.11,0,2.028,0.336,2.753,1.009c0.736,0.672,1.104,1.545,1.104,2.619H150.876z
			 M155.983,197.685c-0.568-0.401-1.22-0.602-1.956-0.602c-1.546,0-2.56,0.744-3.043,2.23h6.067
			C156.931,198.64,156.574,198.098,155.983,197.685z"/>
		<path d="M159.804,203.808v-13.096h0.725v13.096H159.804z"/>
		<path d="M169.132,202.834c-0.749,0.731-1.667,1.097-2.753,1.097c-1.087,0-1.999-0.36-2.735-1.08
			c-0.749-0.731-1.123-1.628-1.123-2.69c0-1.05,0.374-1.94,1.123-2.672c0.736-0.743,1.648-1.115,2.735-1.115
			c1.074,0,1.986,0.366,2.735,1.097c0.748,0.731,1.123,1.628,1.123,2.69C170.236,201.224,169.868,202.115,169.132,202.834z
			 M168.606,197.985c-0.604-0.602-1.347-0.903-2.228-0.903c-0.845,0-1.576,0.307-2.191,0.92c-0.628,0.614-0.942,1.333-0.942,2.159
			c0,0.838,0.308,1.557,0.924,2.159c0.616,0.602,1.352,0.902,2.209,0.902c0.869,0,1.605-0.295,2.209-0.885
			c0.616-0.602,0.924-1.327,0.924-2.177C169.512,199.301,169.21,198.575,168.606,197.985z"/>
		<path d="M178.639,202.834c-0.749,0.731-1.666,1.097-2.753,1.097c-1.244,0-2.27-0.496-3.079-1.487v4.796h-0.743v-10.742h0.743v1.38
			c0.772-0.991,1.799-1.486,3.079-1.486c1.087,0,1.998,0.36,2.735,1.08c0.749,0.731,1.123,1.628,1.123,2.69
			C179.744,201.224,179.376,202.115,178.639,202.834z M178.096,198.003c-0.616-0.602-1.352-0.902-2.209-0.902
			c-0.869,0-1.606,0.295-2.209,0.885c-0.616,0.602-0.924,1.327-0.924,2.177c0,0.838,0.308,1.557,0.924,2.159
			c0.616,0.602,1.352,0.902,2.209,0.902c0.87,0,1.606-0.295,2.209-0.885c0.616-0.602,0.924-1.327,0.924-2.177
			C179.02,199.325,178.712,198.604,178.096,198.003z"/>
		<path d="M189.904,203.808v-5.043c0-0.448-0.151-0.838-0.453-1.168c-0.302-0.331-0.737-0.496-1.304-0.496
			c-1.171,0-1.757,0.555-1.757,1.664v5.043h-0.742v-5.043c0-0.496-0.169-0.891-0.507-1.186c-0.35-0.318-0.767-0.478-1.25-0.478
			c-0.496,0-0.912,0.153-1.25,0.46c-0.338,0.295-0.507,0.696-0.507,1.204v5.043h-0.743v-7.309h0.743v0.726
			c0.362-0.554,0.948-0.832,1.757-0.832c0.966,0,1.678,0.383,2.137,1.15c0.435-0.767,1.141-1.15,2.119-1.15
			c0.749,0,1.352,0.207,1.811,0.62c0.459,0.424,0.688,1.008,0.688,1.752v5.043H189.904z"/>
		<path d="M193.182,200.003c0,0.991,0.271,1.775,0.815,2.354c0.567,0.59,1.346,0.885,2.336,0.885c0.507,0,0.966-0.083,1.376-0.248
			c0.519-0.212,0.984-0.643,1.395-1.292l0.67,0.301c-0.471,0.874-1.195,1.463-2.173,1.77c-0.375,0.118-0.797,0.177-1.268,0.177
			c-1.123,0-2.047-0.36-2.771-1.08c-0.737-0.719-1.105-1.622-1.105-2.708c0-1.097,0.362-2,1.087-2.708
			c0.736-0.72,1.666-1.08,2.789-1.08c1.11,0,2.028,0.336,2.753,1.009c0.736,0.672,1.104,1.545,1.104,2.619H193.182z M198.29,197.685
			c-0.568-0.401-1.22-0.602-1.956-0.602c-1.546,0-2.56,0.744-3.043,2.23h6.067C199.238,198.64,198.881,198.098,198.29,197.685z"/>
		<path d="M206.946,203.808v-4.371c0-1.545-0.712-2.318-2.137-2.318c-0.701,0-1.232,0.201-1.594,0.602
			c-0.375,0.401-0.562,0.95-0.562,1.646v4.442h-0.743v-7.309h0.743v0.885c0.338-0.649,1.056-0.974,2.155-0.974
			c0.93,0,1.642,0.26,2.137,0.779s0.743,1.245,0.743,2.177v4.442H206.946z"/>
		<path d="M211.202,197.224v6.583h-0.743v-6.583h-1.014v-0.726h1.014v-3.203h0.743v3.203h1.739v0.726H211.202z"/>
	</g>
</g>
</svg>
