<?xml version="1.0" encoding="utf-8"?>
<!-- Generator: Adobe Illustrator 15.1.0, SVG Export Plug-In . SVG Version: 6.00 Build 0)  -->
<!DOCTYPE svg PUBLIC "-//W3C//DTD SVG 1.1//EN" "http://www.w3.org/Graphics/SVG/1.1/DTD/svg11.dtd">
<svg version="1.1" id="Layer_1" xmlns="http://www.w3.org/2000/svg" xmlns:xlink="http://www.w3.org/1999/xlink" x="0px" y="0px"
	 width="868px" height="448px" viewBox="0 0 868 448" enable-background="new 0 0 868 448" xml:space="preserve">
<g>
	<g enable-background="new    ">
		<path d="M627.527,175.716c-0.749,0.731-1.666,1.097-2.753,1.097c-1.243,0-2.271-0.496-3.079-1.487v4.796h-0.742V169.38h0.742v1.38
			c0.772-0.991,1.799-1.486,3.079-1.486c1.087,0,1.998,0.36,2.734,1.08c0.749,0.731,1.123,1.628,1.123,2.69
			C628.631,174.105,628.263,174.997,627.527,175.716z M626.984,170.885c-0.616-0.602-1.353-0.902-2.21-0.902
			c-0.869,0-1.605,0.295-2.209,0.885c-0.616,0.602-0.924,1.327-0.924,2.177c0,0.838,0.308,1.557,0.924,2.159
			c0.615,0.602,1.352,0.902,2.209,0.902c0.869,0,1.605-0.295,2.21-0.885c0.615-0.602,0.924-1.327,0.924-2.177
			C627.907,172.207,627.599,171.486,626.984,170.885z"/>
		<path d="M633.811,170.46c-0.192-0.142-0.398-0.253-0.615-0.336c-0.218-0.083-0.447-0.124-0.688-0.124
			c-0.205,0-0.398,0.062-0.579,0.186c-0.182,0.124-0.339,0.277-0.472,0.46c-0.133,0.183-0.238,0.387-0.316,0.61
			c-0.079,0.225-0.118,0.431-0.118,0.62v4.813h-0.742v-7.309h0.742v0.991c0.157-0.271,0.362-0.519,0.616-0.743
			s0.531-0.336,0.833-0.336c0.374,0,0.682,0.042,0.924,0.124c0.241,0.083,0.513,0.23,0.814,0.442L633.811,170.46z"/>
		<path d="M640.802,175.716c-0.748,0.731-1.666,1.097-2.753,1.097c-1.086,0-1.998-0.36-2.734-1.08
			c-0.749-0.731-1.123-1.628-1.123-2.69c0-1.05,0.374-1.94,1.123-2.672c0.736-0.743,1.648-1.115,2.734-1.115
			c1.075,0,1.986,0.366,2.735,1.097c0.748,0.731,1.123,1.628,1.123,2.69C641.907,174.105,641.538,174.997,640.802,175.716z
			 M640.277,170.867c-0.604-0.602-1.346-0.903-2.228-0.903c-0.845,0-1.575,0.307-2.191,0.92c-0.628,0.614-0.941,1.333-0.941,2.159
			c0,0.838,0.308,1.557,0.924,2.159c0.615,0.602,1.352,0.902,2.209,0.902c0.87,0,1.606-0.295,2.21-0.885
			c0.615-0.602,0.924-1.327,0.924-2.177C641.183,172.183,640.881,171.457,640.277,170.867z"/>
		<path d="M650.255,176.689v-1.31c-0.797,0.956-1.811,1.434-3.042,1.434c-1.087,0-1.999-0.36-2.735-1.08
			c-0.748-0.731-1.123-1.628-1.123-2.69c0-1.062,0.368-1.953,1.105-2.672c0.748-0.731,1.666-1.097,2.753-1.097
			c1.195,0,2.209,0.478,3.042,1.434v-7.114h0.743v13.096H650.255z M649.422,170.885c-0.615-0.602-1.353-0.902-2.209-0.902
			c-0.869,0-1.606,0.295-2.21,0.885c-0.615,0.602-0.924,1.327-0.924,2.177c0,0.838,0.309,1.557,0.924,2.159
			c0.616,0.602,1.353,0.902,2.21,0.902c0.869,0,1.605-0.295,2.209-0.885c0.616-0.602,0.924-1.327,0.924-2.177
			C650.346,172.207,650.038,171.486,649.422,170.885z"/>
		<path d="M657.971,176.052c-0.496,0.52-1.189,0.779-2.083,0.779c-0.882,0-1.564-0.253-2.047-0.761
			c-0.483-0.507-0.725-1.215-0.725-2.124v-4.566h0.743v4.566c0,0.696,0.156,1.233,0.471,1.61c0.326,0.378,0.845,0.566,1.558,0.566
			c1.388,0,2.083-0.726,2.083-2.177v-4.566h0.724v4.566C658.695,174.843,658.453,175.545,657.971,176.052z"/>
		<path d="M664.508,176.831c-1.11,0-2.034-0.36-2.771-1.08c-0.736-0.719-1.104-1.622-1.104-2.708s0.368-1.988,1.104-2.708
			s1.66-1.08,2.771-1.08c0.954,0,1.715,0.212,2.282,0.637v0.867l-0.471-0.301l-0.507-0.265c-0.459-0.153-0.894-0.23-1.305-0.23
			c-0.93,0-1.684,0.283-2.264,0.85c-0.592,0.578-0.888,1.322-0.888,2.23c0,0.896,0.296,1.634,0.888,2.212
			c0.592,0.578,1.347,0.867,2.264,0.867c0.87,0,1.631-0.283,2.282-0.849v0.902C666.115,176.613,665.354,176.831,664.508,176.831z"/>
		<path d="M670.032,170.106v6.583h-0.743v-6.583h-1.014v-0.726h1.014v-3.203h0.743v3.203h1.738v0.726H670.032z"/>
		<path d="M673.945,168.071c-0.133,0-0.271-0.053-0.416-0.159c-0.109-0.106-0.17-0.248-0.182-0.425c0-0.318,0.199-0.513,0.598-0.584
			c0.302,0,0.501,0.195,0.598,0.584C674.542,167.876,674.343,168.071,673.945,168.071z M673.565,176.689v-7.309h0.742v7.309H673.565
			z"/>
		<path d="M682.819,175.716c-0.748,0.731-1.666,1.097-2.753,1.097c-1.086,0-1.998-0.36-2.734-1.08
			c-0.749-0.731-1.123-1.628-1.123-2.69c0-1.05,0.374-1.94,1.123-2.672c0.736-0.743,1.648-1.115,2.734-1.115
			c1.075,0,1.986,0.366,2.735,1.097c0.748,0.731,1.123,1.628,1.123,2.69C683.924,174.105,683.555,174.997,682.819,175.716z
			 M682.293,170.867c-0.604-0.602-1.346-0.903-2.228-0.903c-0.845,0-1.575,0.307-2.191,0.92c-0.628,0.614-0.941,1.333-0.941,2.159
			c0,0.838,0.308,1.557,0.924,2.159c0.615,0.602,1.352,0.902,2.209,0.902c0.87,0,1.606-0.295,2.21-0.885
			c0.615-0.602,0.924-1.327,0.924-2.177C683.199,172.183,682.898,171.457,682.293,170.867z"/>
		<path d="M690.823,176.689v-4.371c0-1.545-0.713-2.318-2.138-2.318c-0.7,0-1.231,0.201-1.594,0.602
			c-0.374,0.401-0.562,0.95-0.562,1.646v4.442h-0.742v-7.309h0.742v0.885c0.338-0.649,1.057-0.974,2.155-0.974
			c0.93,0,1.643,0.26,2.138,0.779s0.742,1.245,0.742,2.177v4.442H690.823z"/>
	</g>
</g>
</svg>
