<?xml version="1.0" encoding="utf-8"?>
<!-- Generator: Adobe Illustrator 15.1.0, SVG Export Plug-In . SVG Version: 6.00 Build 0)  -->
<!DOCTYPE svg PUBLIC "-//W3C//DTD SVG 1.1//EN" "http://www.w3.org/Graphics/SVG/1.1/DTD/svg11.dtd">
<svg version="1.1" id="Layer_1" xmlns="http://www.w3.org/2000/svg" xmlns:xlink="http://www.w3.org/1999/xlink" x="0px" y="0px"
	 width="868px" height="448px" viewBox="0 0 868 448" enable-background="new 0 0 868 448" xml:space="preserve">
<g>
	<g enable-background="new    ">
		<path d="M247.517,189.984c-0.112,0-0.229-0.044-0.35-0.134c-0.091-0.089-0.142-0.208-0.152-0.357c0-0.268,0.167-0.432,0.502-0.491
			c0.253,0,0.421,0.164,0.502,0.491C248.019,189.821,247.852,189.984,247.517,189.984z M247.197,197.229v-6.144h0.625v6.144H247.197
			z"/>
		<path d="M253.394,197.229v-3.675c0-1.299-0.599-1.949-1.796-1.949c-0.589,0-1.035,0.169-1.34,0.506
			c-0.315,0.337-0.472,0.798-0.472,1.384v3.734h-0.624v-6.144h0.624v0.744c0.284-0.545,0.888-0.818,1.812-0.818
			c0.781,0,1.38,0.218,1.796,0.655s0.625,1.046,0.625,1.83v3.734H253.394z"/>
		<path d="M255.662,189.984c-0.112,0-0.229-0.044-0.35-0.134c-0.091-0.089-0.142-0.208-0.152-0.357c0-0.268,0.167-0.432,0.502-0.491
			c0.253,0,0.421,0.164,0.502,0.491C256.165,189.821,255.997,189.984,255.662,189.984z M255.343,197.229v-6.144h0.625v6.144H255.343
			z"/>
		<path d="M258.981,191.695v5.534h-0.624v-5.534h-0.853v-0.61h0.853v-2.693h0.624v2.693h1.462v0.61H258.981z"/>
		<path d="M262.27,189.984c-0.112,0-0.229-0.044-0.35-0.134c-0.091-0.089-0.142-0.208-0.152-0.357c0-0.268,0.167-0.432,0.502-0.491
			c0.253,0,0.421,0.164,0.502,0.491C262.772,189.821,262.605,189.984,262.27,189.984z M261.95,197.229v-6.144h0.625v6.144H261.95z"
			/>
		<path d="M269.928,197.229v-1.056c-0.66,0.773-1.498,1.16-2.512,1.16c-0.914,0-1.68-0.302-2.299-0.907
			c-0.63-0.615-0.944-1.369-0.944-2.261c0-0.893,0.31-1.642,0.929-2.247c0.629-0.615,1.401-0.922,2.314-0.922
			c1.005,0,1.842,0.387,2.512,1.16v-1.071h0.624v6.144H269.928z M269.273,192.35c-0.518-0.505-1.137-0.758-1.857-0.758
			c-0.731,0-1.35,0.248-1.857,0.744c-0.518,0.506-0.776,1.116-0.776,1.83c0,0.704,0.259,1.309,0.776,1.815s1.137,0.759,1.857,0.759
			c0.731,0,1.35-0.248,1.857-0.744c0.518-0.506,0.776-1.116,0.776-1.83C270.05,193.461,269.791,192.855,269.273,192.35z"/>
		<path d="M272.577,197.229v-11.009h0.609v11.009H272.577z"/>
		<path d="M284.558,196.411c-0.629,0.615-1.4,0.922-2.314,0.922c-1.045,0-1.903-0.411-2.573-1.235v1.131h-0.624v-11.009h0.624v6.01
			c0.66-0.823,1.518-1.235,2.573-1.235c0.914,0,1.68,0.303,2.299,0.907c0.629,0.615,0.944,1.369,0.944,2.262
			C285.488,195.058,285.177,195.807,284.558,196.411z M284.102,192.35c-0.518-0.505-1.137-0.758-1.857-0.758
			c-0.731,0-1.35,0.248-1.857,0.744c-0.518,0.506-0.776,1.116-0.776,1.83c0,0.704,0.259,1.309,0.776,1.815s1.137,0.759,1.857,0.759
			c0.731,0,1.35-0.248,1.857-0.744c0.518-0.506,0.776-1.116,0.776-1.83C284.878,193.461,284.619,192.855,284.102,192.35z"/>
		<path d="M290.055,191.993c-0.163-0.119-0.335-0.213-0.518-0.283c-0.183-0.069-0.375-0.104-0.579-0.104
			c-0.172,0-0.335,0.052-0.487,0.156c-0.152,0.104-0.284,0.233-0.396,0.387c-0.112,0.154-0.201,0.325-0.267,0.513
			c-0.066,0.188-0.099,0.362-0.099,0.521v4.046h-0.624v-6.144h0.624v0.833c0.132-0.228,0.305-0.437,0.518-0.625
			c0.213-0.188,0.446-0.283,0.7-0.283c0.314,0,0.573,0.035,0.776,0.104s0.431,0.193,0.685,0.372L290.055,191.993z"/>
		<path d="M296.785,197.229v-1.056c-0.66,0.773-1.498,1.16-2.512,1.16c-0.914,0-1.68-0.302-2.299-0.907
			c-0.63-0.615-0.944-1.369-0.944-2.261c0-0.893,0.31-1.642,0.929-2.247c0.629-0.615,1.401-0.922,2.314-0.922
			c1.005,0,1.842,0.387,2.512,1.16v-1.071h0.624v6.144H296.785z M296.13,192.35c-0.518-0.505-1.137-0.758-1.857-0.758
			c-0.731,0-1.35,0.248-1.857,0.744c-0.518,0.506-0.776,1.116-0.776,1.83c0,0.704,0.259,1.309,0.776,1.815s1.137,0.759,1.857,0.759
			c0.731,0,1.35-0.248,1.857-0.744c0.518-0.506,0.776-1.116,0.776-1.83C296.906,193.461,296.648,192.855,296.13,192.35z"/>
		<path d="M299.693,189.984c-0.112,0-0.229-0.044-0.351-0.134c-0.092-0.089-0.143-0.208-0.152-0.357
			c0-0.268,0.168-0.432,0.503-0.491c0.253,0,0.421,0.164,0.502,0.491C300.195,189.821,300.028,189.984,299.693,189.984z
			 M299.372,197.229v-6.144h0.624v6.144H299.372z"/>
		<path d="M305.57,197.229v-3.675c0-1.299-0.599-1.949-1.797-1.949c-0.588,0-1.035,0.169-1.34,0.506
			c-0.314,0.337-0.472,0.798-0.472,1.384v3.734h-0.624v-6.144h0.624v0.744c0.284-0.545,0.889-0.818,1.812-0.818
			c0.782,0,1.381,0.218,1.797,0.655s0.624,1.046,0.624,1.83v3.734H305.57z"/>
		<path d="M311.294,196.843c-0.406,0.337-0.894,0.506-1.462,0.506c-0.975,0-1.705-0.432-2.192-1.294l0.533-0.313
			c0.172,0.308,0.381,0.546,0.624,0.714c0.254,0.188,0.599,0.283,1.035,0.283c0.954,0,1.432-0.397,1.432-1.19
			c0-0.347-0.168-0.649-0.503-0.907c-0.102-0.06-0.246-0.126-0.434-0.201c-0.188-0.074-0.419-0.161-0.693-0.26
			c-0.507-0.179-0.873-0.357-1.096-0.536c-0.325-0.258-0.487-0.629-0.487-1.116c0-0.417,0.162-0.773,0.487-1.071
			c0.314-0.307,0.726-0.461,1.233-0.461c0.7,0,1.294,0.238,1.781,0.714l-0.457,0.387c-0.345-0.337-0.786-0.506-1.324-0.506
			c-0.731,0-1.097,0.312-1.097,0.937c0,0.278,0.112,0.506,0.335,0.685c0.183,0.139,0.473,0.273,0.868,0.401
			c0.345,0.119,0.629,0.231,0.853,0.335c0.223,0.104,0.391,0.196,0.502,0.275c0.437,0.328,0.655,0.769,0.655,1.324
			C311.888,196.084,311.69,196.516,311.294,196.843z"/>
		<path d="M314.187,191.695v5.534h-0.625v-5.534h-0.853v-0.61h0.853v-2.693h0.625v2.693h1.461v0.61H314.187z"/>
		<path d="M321.404,196.411c-0.629,0.615-1.4,0.922-2.314,0.922c-0.913,0-1.68-0.302-2.299-0.907
			c-0.629-0.615-0.943-1.369-0.943-2.261c0-0.883,0.314-1.631,0.943-2.247c0.619-0.625,1.386-0.938,2.299-0.938
			c0.903,0,1.67,0.308,2.3,0.922c0.629,0.615,0.943,1.369,0.943,2.262C322.332,195.058,322.023,195.807,321.404,196.411z
			 M320.962,192.335c-0.508-0.506-1.132-0.759-1.873-0.759c-0.71,0-1.324,0.258-1.842,0.773c-0.528,0.516-0.792,1.121-0.792,1.815
			c0,0.704,0.259,1.309,0.776,1.815s1.137,0.759,1.857,0.759c0.731,0,1.351-0.248,1.857-0.744c0.519-0.506,0.777-1.116,0.777-1.83
			C321.724,193.441,321.47,192.831,320.962,192.335z"/>
		<path d="M326.869,191.993c-0.162-0.119-0.335-0.213-0.518-0.283c-0.183-0.069-0.376-0.104-0.578-0.104
			c-0.173,0-0.335,0.052-0.487,0.156s-0.284,0.233-0.396,0.387c-0.111,0.154-0.2,0.325-0.266,0.513
			c-0.066,0.188-0.1,0.362-0.1,0.521v4.046h-0.624v-6.144h0.624v0.833c0.132-0.228,0.305-0.437,0.518-0.625
			c0.214-0.188,0.447-0.283,0.7-0.283c0.314,0,0.574,0.035,0.777,0.104c0.202,0.069,0.431,0.193,0.685,0.372L326.869,191.993z"/>
		<path d="M335.777,197.229v-4.24c0-0.377-0.128-0.704-0.381-0.982c-0.254-0.278-0.619-0.417-1.097-0.417
			c-0.984,0-1.477,0.466-1.477,1.398v4.24h-0.624v-4.24c0-0.417-0.143-0.749-0.427-0.997c-0.294-0.268-0.645-0.401-1.051-0.401
			c-0.416,0-0.766,0.129-1.05,0.387c-0.284,0.248-0.427,0.585-0.427,1.012v4.24h-0.624v-6.144h0.624v0.61
			c0.305-0.466,0.797-0.699,1.477-0.699c0.813,0,1.411,0.322,1.797,0.967c0.365-0.645,0.959-0.967,1.781-0.967
			c0.63,0,1.137,0.173,1.522,0.521c0.386,0.357,0.579,0.848,0.579,1.473v4.24H335.777z"/>
	</g>
</g>
</svg>
