<?xml version="1.0" encoding="utf-8"?>
<!-- Generator: Adobe Illustrator 15.1.0, SVG Export Plug-In . SVG Version: 6.00 Build 0)  -->
<!DOCTYPE svg PUBLIC "-//W3C//DTD SVG 1.1//EN" "http://www.w3.org/Graphics/SVG/1.1/DTD/svg11.dtd">
<svg version="1.1" id="Layer_1" xmlns="http://www.w3.org/2000/svg" xmlns:xlink="http://www.w3.org/1999/xlink" x="0px" y="0px"
	 width="868px" height="448px" viewBox="0 0 868 448" enable-background="new 0 0 868 448" xml:space="preserve">
<g>
	<g enable-background="new    ">
		<path d="M306.486,52.729c-0.192-0.142-0.398-0.253-0.615-0.336c-0.218-0.083-0.447-0.124-0.688-0.124
			c-0.205,0-0.398,0.062-0.579,0.186c-0.182,0.124-0.339,0.277-0.472,0.46c-0.133,0.183-0.238,0.387-0.316,0.61
			c-0.079,0.225-0.118,0.431-0.118,0.62v4.813h-0.742V51.65h0.742v0.991c0.157-0.271,0.362-0.519,0.616-0.743
			s0.531-0.336,0.833-0.336c0.374,0,0.682,0.042,0.924,0.124c0.241,0.083,0.513,0.23,0.814,0.442L306.486,52.729z"/>
		<path d="M307.645,55.154c0,0.991,0.272,1.775,0.815,2.354c0.567,0.59,1.346,0.885,2.336,0.885c0.508,0,0.966-0.083,1.377-0.248
			c0.519-0.212,0.983-0.643,1.395-1.292l0.67,0.301c-0.471,0.874-1.195,1.463-2.173,1.77c-0.375,0.118-0.797,0.177-1.269,0.177
			c-1.122,0-2.046-0.36-2.771-1.08c-0.736-0.719-1.104-1.622-1.104-2.708c0-1.097,0.361-2,1.086-2.708
			c0.736-0.72,1.667-1.08,2.789-1.08c1.111,0,2.028,0.336,2.753,1.009c0.736,0.672,1.105,1.545,1.105,2.619H307.645z
			 M312.752,52.836c-0.567-0.401-1.22-0.602-1.956-0.602c-1.545,0-2.56,0.744-3.042,2.23h6.066
			C313.7,53.792,313.344,53.249,312.752,52.836z"/>
		<path d="M320.051,58.499c-0.483,0.401-1.063,0.602-1.739,0.602c-1.159,0-2.028-0.513-2.607-1.54l0.634-0.372
			c0.205,0.366,0.453,0.649,0.742,0.849c0.302,0.225,0.713,0.336,1.231,0.336c1.135,0,1.703-0.472,1.703-1.416
			c0-0.413-0.199-0.772-0.598-1.079c-0.121-0.071-0.293-0.15-0.517-0.239c-0.224-0.088-0.498-0.191-0.824-0.31
			c-0.604-0.212-1.038-0.425-1.304-0.637c-0.387-0.307-0.579-0.749-0.579-1.327c0-0.496,0.192-0.92,0.579-1.274
			c0.374-0.366,0.863-0.549,1.467-0.549c0.833,0,1.54,0.283,2.119,0.85l-0.543,0.46c-0.411-0.401-0.937-0.602-1.576-0.602
			c-0.869,0-1.304,0.372-1.304,1.115c0,0.331,0.133,0.602,0.398,0.814c0.217,0.166,0.562,0.325,1.032,0.478
			c0.41,0.142,0.749,0.274,1.015,0.398c0.265,0.124,0.464,0.233,0.598,0.328c0.519,0.389,0.778,0.915,0.778,1.575
			C320.757,57.596,320.522,58.109,320.051,58.499z"/>
		<path d="M322.514,55.154c0,0.991,0.272,1.775,0.815,2.354c0.567,0.59,1.346,0.885,2.336,0.885c0.508,0,0.966-0.083,1.377-0.248
			c0.519-0.212,0.983-0.643,1.395-1.292l0.67,0.301c-0.471,0.874-1.195,1.463-2.173,1.77c-0.375,0.118-0.797,0.177-1.269,0.177
			c-1.122,0-2.046-0.36-2.771-1.08c-0.736-0.719-1.104-1.622-1.104-2.708c0-1.097,0.361-2,1.086-2.708
			c0.736-0.72,1.667-1.08,2.789-1.08c1.111,0,2.028,0.336,2.753,1.009c0.736,0.672,1.105,1.545,1.105,2.619H322.514z
			 M327.621,52.836c-0.567-0.401-1.22-0.602-1.956-0.602c-1.545,0-2.56,0.744-3.042,2.23h6.066
			C328.57,53.792,328.213,53.249,327.621,52.836z"/>
		<path d="M337.528,58.959v-1.256c-0.784,0.92-1.78,1.38-2.988,1.38c-1.086,0-1.998-0.36-2.734-1.08
			c-0.749-0.731-1.123-1.628-1.123-2.69c0-1.062,0.368-1.953,1.104-2.672c0.749-0.731,1.667-1.097,2.753-1.097
			c1.195,0,2.191,0.46,2.988,1.38V51.65h0.743v7.309H337.528z M336.749,53.154c-0.616-0.602-1.353-0.902-2.21-0.902
			c-0.869,0-1.605,0.295-2.209,0.885c-0.616,0.602-0.924,1.327-0.924,2.177c0,0.838,0.308,1.557,0.924,2.159
			c0.615,0.602,1.352,0.902,2.209,0.902c0.87,0,1.606-0.295,2.21-0.885c0.615-0.602,0.924-1.327,0.924-2.177
			C337.673,54.476,337.365,53.756,336.749,53.154z"/>
		<path d="M344.011,52.729c-0.192-0.142-0.398-0.253-0.615-0.336c-0.218-0.083-0.447-0.124-0.688-0.124
			c-0.205,0-0.398,0.062-0.579,0.186c-0.182,0.124-0.339,0.277-0.472,0.46c-0.133,0.183-0.238,0.387-0.316,0.61
			c-0.079,0.225-0.118,0.431-0.118,0.62v4.813h-0.742V51.65h0.742v0.991c0.157-0.271,0.362-0.519,0.616-0.743
			s0.531-0.336,0.833-0.336c0.374,0,0.682,0.042,0.924,0.124c0.241,0.083,0.513,0.23,0.814,0.442L344.011,52.729z"/>
		<path d="M349.101,59.101c-1.11,0-2.034-0.36-2.771-1.08c-0.736-0.719-1.104-1.622-1.104-2.708s0.368-1.988,1.104-2.708
			s1.66-1.08,2.771-1.08c0.954,0,1.715,0.212,2.282,0.637v0.867l-0.471-0.301l-0.507-0.265c-0.459-0.153-0.894-0.23-1.305-0.23
			c-0.93,0-1.684,0.283-2.264,0.85c-0.592,0.578-0.888,1.322-0.888,2.23c0,0.896,0.296,1.634,0.888,2.212
			c0.592,0.578,1.347,0.867,2.264,0.867c0.87,0,1.631-0.283,2.282-0.849v0.902C350.707,58.882,349.947,59.101,349.101,59.101z"/>
		<path d="M358.356,58.977V54.57c0-1.545-0.736-2.318-2.209-2.318c-0.604,0-1.123,0.177-1.558,0.531
			c-0.447,0.354-0.67,0.826-0.67,1.416v4.76h-0.743V45.863h0.743v6.76c0.446-0.72,1.188-1.08,2.228-1.08
			c1.968,0,2.952,0.985,2.952,2.956v4.477H358.356z"/>
	</g>
</g>
</svg>
