<?xml version="1.0" encoding="utf-8"?>
<!-- Generator: Adobe Illustrator 15.1.0, SVG Export Plug-In . SVG Version: 6.00 Build 0)  -->
<!DOCTYPE svg PUBLIC "-//W3C//DTD SVG 1.1//EN" "http://www.w3.org/Graphics/SVG/1.1/DTD/svg11.dtd">
<svg version="1.1" id="Layer_1" xmlns="http://www.w3.org/2000/svg" xmlns:xlink="http://www.w3.org/1999/xlink" x="0px" y="0px"
	 width="868px" height="448px" viewBox="0 0 868 448" enable-background="new 0 0 868 448" xml:space="preserve">
<g>
	<g enable-background="new    ">
		<path d="M427.523,136.789c-0.934,0-1.71-0.303-2.329-0.908s-0.929-1.363-0.929-2.276s0.31-1.671,0.929-2.276
			s1.396-0.908,2.329-0.908c0.802,0,1.441,0.179,1.919,0.536v0.729l-0.396-0.253l-0.426-0.223c-0.386-0.129-0.752-0.193-1.097-0.193
			c-0.781,0-1.416,0.238-1.903,0.714c-0.497,0.486-0.746,1.111-0.746,1.875c0,0.753,0.249,1.374,0.746,1.859
			c0.497,0.486,1.132,0.729,1.903,0.729c0.73,0,1.37-0.238,1.919-0.714v0.758C428.872,136.605,428.234,136.789,427.523,136.789z"/>
		<path d="M435.364,135.852c-0.629,0.615-1.4,0.922-2.314,0.922c-0.913,0-1.68-0.302-2.299-0.907
			c-0.629-0.615-0.943-1.369-0.943-2.261c0-0.883,0.314-1.631,0.943-2.247c0.619-0.625,1.386-0.938,2.299-0.938
			c0.903,0,1.67,0.308,2.3,0.922c0.629,0.615,0.943,1.369,0.943,2.262C436.292,134.498,435.983,135.247,435.364,135.852z
			 M434.922,131.775c-0.508-0.506-1.132-0.759-1.873-0.759c-0.71,0-1.324,0.258-1.842,0.773c-0.528,0.516-0.792,1.121-0.792,1.815
			c0,0.704,0.259,1.309,0.776,1.815s1.137,0.759,1.857,0.759c0.731,0,1.351-0.248,1.857-0.744c0.519-0.506,0.777-1.116,0.777-1.83
			C435.684,132.881,435.43,132.271,434.922,131.775z"/>
		<path d="M439.445,126.271l-0.411-0.045c-0.568,0-0.853,0.328-0.853,0.982v3.318h1.492v0.61h-1.492v5.534h-0.625v-5.534h-0.853
			v-0.61h0.853v-3.496c0-0.942,0.487-1.414,1.462-1.414c0.224,0,0.365,0.01,0.427,0.03c0.121,0,0.259,0.035,0.411,0.104v0.61
			L439.445,126.271z"/>
		<path d="M443.068,126.271l-0.411-0.045c-0.568,0-0.853,0.328-0.853,0.982v3.318h1.492v0.61h-1.492v5.534h-0.625v-5.534h-0.853
			v-0.61h0.853v-3.496c0-0.942,0.487-1.414,1.462-1.414c0.224,0,0.365,0.01,0.427,0.03c0.121,0,0.259,0.035,0.411,0.104v0.61
			L443.068,126.271z"/>
		<path d="M444.149,133.471c0,0.833,0.229,1.493,0.685,1.979c0.478,0.496,1.132,0.744,1.964,0.744c0.427,0,0.813-0.069,1.157-0.208
			c0.437-0.178,0.827-0.54,1.173-1.086l0.563,0.253c-0.396,0.734-1.005,1.23-1.827,1.488c-0.314,0.099-0.67,0.149-1.066,0.149
			c-0.943,0-1.72-0.303-2.329-0.908c-0.619-0.605-0.929-1.363-0.929-2.276c0-0.922,0.305-1.681,0.914-2.276
			c0.618-0.605,1.4-0.908,2.344-0.908c0.935,0,1.706,0.283,2.314,0.848c0.619,0.565,0.929,1.299,0.929,2.202H444.149z
			 M448.442,131.522c-0.477-0.337-1.025-0.506-1.645-0.506c-1.299,0-2.151,0.625-2.558,1.875h5.101
			C449.239,132.326,448.939,131.87,448.442,131.522z"/>
		<path d="M452.202,133.471c0,0.833,0.229,1.493,0.685,1.979c0.478,0.496,1.132,0.744,1.964,0.744c0.427,0,0.813-0.069,1.157-0.208
			c0.437-0.178,0.827-0.54,1.173-1.086l0.563,0.253c-0.396,0.734-1.005,1.23-1.827,1.488c-0.314,0.099-0.67,0.149-1.066,0.149
			c-0.943,0-1.72-0.303-2.329-0.908c-0.619-0.605-0.929-1.363-0.929-2.276c0-0.922,0.305-1.681,0.914-2.276
			c0.618-0.605,1.4-0.908,2.344-0.908c0.935,0,1.706,0.283,2.314,0.848c0.619,0.565,0.929,1.299,0.929,2.202H452.202z
			 M456.495,131.522c-0.477-0.337-1.025-0.506-1.645-0.506c-1.299,0-2.151,0.625-2.558,1.875h5.101
			C457.292,132.326,456.992,131.87,456.495,131.522z"/>
	</g>
</g>
</svg>
