<?xml version="1.0" encoding="utf-8"?>
<!-- Generator: Adobe Illustrator 15.1.0, SVG Export Plug-In . SVG Version: 6.00 Build 0)  -->
<!DOCTYPE svg PUBLIC "-//W3C//DTD SVG 1.1//EN" "http://www.w3.org/Graphics/SVG/1.1/DTD/svg11.dtd">
<svg version="1.1" id="Layer_1" xmlns="http://www.w3.org/2000/svg" xmlns:xlink="http://www.w3.org/1999/xlink" x="0px" y="0px"
	 width="868px" height="448px" viewBox="0 0 868 448" enable-background="new 0 0 868 448" xml:space="preserve">
<g>
	<g enable-background="new    ">
		<path d="M524.853,208.175c-0.133,0-0.271-0.053-0.416-0.159c-0.109-0.106-0.17-0.248-0.182-0.425c0-0.318,0.199-0.513,0.598-0.584
			c0.302,0,0.501,0.195,0.598,0.584C525.45,207.981,525.251,208.175,524.853,208.175z M524.473,216.794v-7.309h0.742v7.309H524.473z
			"/>
		<path d="M531.844,216.794v-4.371c0-1.545-0.713-2.318-2.138-2.318c-0.7,0-1.231,0.201-1.594,0.602
			c-0.374,0.401-0.562,0.95-0.562,1.646v4.442h-0.742v-7.309h0.742v0.885c0.338-0.649,1.057-0.974,2.155-0.974
			c0.93,0,1.643,0.26,2.138,0.779s0.742,1.245,0.742,2.177v4.442H531.844z"/>
		<path d="M534.542,208.175c-0.133,0-0.271-0.053-0.416-0.159c-0.109-0.106-0.17-0.248-0.182-0.425c0-0.318,0.199-0.513,0.598-0.584
			c0.302,0,0.501,0.195,0.598,0.584C535.14,207.981,534.941,208.175,534.542,208.175z M534.162,216.794v-7.309h0.742v7.309H534.162z
			"/>
		<path d="M538.49,210.21v6.583h-0.743v-6.583h-1.014v-0.726h1.014v-3.203h0.743v3.203h1.738v0.726H538.49z"/>
		<path d="M542.403,208.175c-0.133,0-0.271-0.053-0.416-0.159c-0.109-0.106-0.17-0.248-0.182-0.425c0-0.318,0.199-0.513,0.598-0.584
			c0.302,0,0.501,0.195,0.598,0.584C543,207.981,542.801,208.175,542.403,208.175z M542.023,216.794v-7.309h0.742v7.309H542.023z"/>
		<path d="M551.512,216.794v-1.256c-0.784,0.92-1.78,1.38-2.988,1.38c-1.086,0-1.998-0.36-2.734-1.08
			c-0.749-0.731-1.123-1.628-1.123-2.69c0-1.062,0.368-1.953,1.104-2.672c0.749-0.731,1.667-1.097,2.753-1.097
			c1.195,0,2.191,0.46,2.988,1.38v-1.274h0.743v7.309H551.512z M550.734,210.989c-0.616-0.602-1.353-0.902-2.21-0.902
			c-0.869,0-1.605,0.295-2.209,0.885c-0.616,0.602-0.924,1.327-0.924,2.177c0,0.838,0.308,1.557,0.924,2.159
			c0.615,0.602,1.352,0.902,2.209,0.902c0.87,0,1.606-0.295,2.21-0.885c0.615-0.602,0.924-1.327,0.924-2.177
			C551.657,212.311,551.349,211.591,550.734,210.989z"/>
		<path d="M554.663,216.794v-13.096h0.725v13.096H554.663z"/>
		<path d="M566.091,216.936c-1.11,0-2.034-0.36-2.771-1.08c-0.736-0.719-1.104-1.622-1.104-2.708s0.368-1.988,1.104-2.708
			s1.66-1.08,2.771-1.08c0.954,0,1.715,0.212,2.282,0.637v0.867l-0.471-0.301l-0.507-0.265c-0.459-0.153-0.894-0.23-1.305-0.23
			c-0.93,0-1.684,0.283-2.264,0.85c-0.592,0.578-0.888,1.322-0.888,2.23c0,0.896,0.296,1.634,0.888,2.212
			c0.592,0.578,1.347,0.867,2.264,0.867c0.87,0,1.631-0.283,2.282-0.849v0.902C567.698,216.717,566.937,216.936,566.091,216.936z"/>
		<path d="M575.418,215.821c-0.748,0.731-1.666,1.097-2.753,1.097c-1.086,0-1.998-0.36-2.734-1.08
			c-0.749-0.731-1.123-1.628-1.123-2.69c0-1.05,0.374-1.94,1.123-2.672c0.736-0.743,1.648-1.115,2.734-1.115
			c1.075,0,1.986,0.366,2.735,1.097c0.748,0.731,1.123,1.628,1.123,2.69C576.524,214.21,576.155,215.101,575.418,215.821z
			 M574.893,210.972c-0.604-0.602-1.346-0.903-2.228-0.903c-0.845,0-1.575,0.307-2.191,0.92c-0.628,0.614-0.941,1.333-0.941,2.159
			c0,0.838,0.308,1.557,0.924,2.159c0.615,0.602,1.352,0.902,2.209,0.902c0.87,0,1.606-0.295,2.21-0.885
			c0.615-0.602,0.924-1.327,0.924-2.177C575.799,212.287,575.497,211.562,574.893,210.972z"/>
		<path d="M583.423,216.794v-4.371c0-1.545-0.713-2.318-2.138-2.318c-0.7,0-1.231,0.201-1.594,0.602
			c-0.374,0.401-0.562,0.95-0.562,1.646v4.442h-0.742v-7.309h0.742v0.885c0.338-0.649,1.057-0.974,2.155-0.974
			c0.93,0,1.643,0.26,2.138,0.779s0.742,1.245,0.742,2.177v4.442H583.423z"/>
		<path d="M590.087,216.936c-1.11,0-2.034-0.36-2.771-1.08c-0.736-0.719-1.104-1.622-1.104-2.708s0.368-1.988,1.104-2.708
			s1.66-1.08,2.771-1.08c0.954,0,1.715,0.212,2.282,0.637v0.867l-0.471-0.301l-0.507-0.265c-0.459-0.153-0.894-0.23-1.305-0.23
			c-0.93,0-1.684,0.283-2.264,0.85c-0.592,0.578-0.888,1.322-0.888,2.23c0,0.896,0.296,1.634,0.888,2.212
			c0.592,0.578,1.347,0.867,2.264,0.867c0.87,0,1.631-0.283,2.282-0.849v0.902C591.694,216.717,590.933,216.936,590.087,216.936z"/>
		<path d="M593.565,212.989c0,0.991,0.272,1.775,0.815,2.354c0.567,0.59,1.346,0.885,2.336,0.885c0.508,0,0.966-0.083,1.377-0.248
			c0.519-0.212,0.983-0.643,1.395-1.292l0.67,0.301c-0.471,0.874-1.195,1.463-2.173,1.77c-0.375,0.118-0.797,0.177-1.269,0.177
			c-1.122,0-2.046-0.36-2.771-1.08c-0.736-0.719-1.104-1.622-1.104-2.708c0-1.097,0.361-2,1.086-2.708
			c0.736-0.72,1.667-1.08,2.789-1.08c1.111,0,2.028,0.336,2.753,1.009c0.736,0.672,1.105,1.545,1.105,2.619H593.565z
			 M598.672,210.671c-0.567-0.401-1.22-0.602-1.956-0.602c-1.545,0-2.56,0.744-3.042,2.23h6.066
			C599.62,211.626,599.264,211.084,598.672,210.671z"/>
		<path d="M608.832,215.821c-0.749,0.731-1.666,1.097-2.753,1.097c-1.243,0-2.271-0.496-3.079-1.487v4.796h-0.742v-10.742H603v1.38
			c0.772-0.991,1.799-1.486,3.079-1.486c1.087,0,1.998,0.36,2.735,1.08c0.748,0.731,1.122,1.628,1.122,2.69
			C609.937,214.21,609.569,215.101,608.832,215.821z M608.289,210.989c-0.616-0.602-1.353-0.902-2.21-0.902
			c-0.869,0-1.605,0.295-2.209,0.885c-0.616,0.602-0.924,1.327-0.924,2.177c0,0.838,0.308,1.557,0.924,2.159
			c0.615,0.602,1.352,0.902,2.209,0.902c0.869,0,1.605-0.295,2.21-0.885c0.615-0.602,0.924-1.327,0.924-2.177
			C609.213,212.311,608.905,211.591,608.289,210.989z"/>
		<path d="M612.708,210.21v6.583h-0.743v-6.583h-1.014v-0.726h1.014v-3.203h0.743v3.203h1.738v0.726H612.708z"/>
		<path d="M619.789,216.334c-0.483,0.401-1.063,0.602-1.739,0.602c-1.159,0-2.028-0.513-2.607-1.54l0.634-0.372
			c0.205,0.366,0.453,0.649,0.742,0.849c0.302,0.225,0.713,0.336,1.231,0.336c1.135,0,1.703-0.472,1.703-1.416
			c0-0.413-0.199-0.772-0.598-1.079c-0.121-0.071-0.293-0.15-0.517-0.239c-0.224-0.088-0.498-0.191-0.824-0.31
			c-0.604-0.212-1.038-0.425-1.304-0.637c-0.387-0.307-0.579-0.749-0.579-1.327c0-0.496,0.192-0.92,0.579-1.274
			c0.374-0.366,0.863-0.549,1.467-0.549c0.833,0,1.54,0.283,2.119,0.85l-0.543,0.46c-0.411-0.401-0.937-0.602-1.576-0.602
			c-0.869,0-1.304,0.372-1.304,1.115c0,0.331,0.133,0.602,0.398,0.814c0.217,0.166,0.562,0.325,1.032,0.478
			c0.41,0.142,0.749,0.274,1.015,0.398c0.265,0.124,0.464,0.233,0.598,0.328c0.519,0.389,0.778,0.915,0.778,1.575
			C620.495,215.431,620.26,215.944,619.789,216.334z"/>
	</g>
	<g enable-background="new    ">
		<path d="M530.63,232.178v-1.256c-0.784,0.92-1.78,1.38-2.988,1.38c-1.086,0-1.998-0.36-2.734-1.079
			c-0.749-0.732-1.123-1.629-1.123-2.69s0.368-1.952,1.104-2.673c0.749-0.73,1.667-1.097,2.753-1.097c1.195,0,2.191,0.46,2.988,1.38
			v-1.273h0.743v7.309H530.63z M529.852,226.373c-0.616-0.602-1.353-0.902-2.21-0.902c-0.869,0-1.605,0.295-2.209,0.885
			c-0.616,0.602-0.924,1.327-0.924,2.177c0,0.838,0.308,1.558,0.924,2.159c0.615,0.602,1.352,0.902,2.209,0.902
			c0.87,0,1.606-0.295,2.21-0.885c0.615-0.602,0.924-1.327,0.924-2.177C530.776,227.695,530.467,226.975,529.852,226.373z"/>
		<path d="M538.617,232.178v-4.371c0-1.545-0.713-2.318-2.138-2.318c-0.7,0-1.231,0.201-1.594,0.602
			c-0.374,0.401-0.562,0.95-0.562,1.646v4.441h-0.742v-7.309h0.742v0.885c0.338-0.648,1.057-0.974,2.155-0.974
			c0.93,0,1.643,0.26,2.138,0.778c0.495,0.52,0.742,1.245,0.742,2.178v4.441H538.617z"/>
		<path d="M548.234,232.178v-1.31c-0.797,0.956-1.811,1.434-3.042,1.434c-1.087,0-1.999-0.36-2.735-1.079
			c-0.748-0.732-1.123-1.629-1.123-2.69s0.368-1.952,1.105-2.673c0.748-0.73,1.666-1.097,2.753-1.097
			c1.195,0,2.209,0.478,3.042,1.434v-7.114h0.743v13.096H548.234z M547.401,226.373c-0.615-0.602-1.353-0.902-2.209-0.902
			c-0.869,0-1.606,0.295-2.21,0.885c-0.615,0.602-0.924,1.327-0.924,2.177c0,0.838,0.309,1.558,0.924,2.159
			c0.616,0.602,1.353,0.902,2.21,0.902c0.869,0,1.605-0.295,2.209-0.885c0.616-0.602,0.924-1.327,0.924-2.177
			C548.324,227.695,548.017,226.975,547.401,226.373z"/>
		<path d="M556.311,223.559c-0.133,0-0.271-0.053-0.416-0.159c-0.109-0.106-0.17-0.248-0.182-0.425c0-0.318,0.199-0.513,0.598-0.584
			c0.302,0,0.501,0.195,0.598,0.584C556.908,223.365,556.709,223.559,556.311,223.559z M555.931,232.178v-7.309h0.742v7.309H555.931
			z"/>
		<path d="M564.715,232.178v-1.31c-0.797,0.956-1.811,1.434-3.042,1.434c-1.087,0-1.999-0.36-2.735-1.079
			c-0.748-0.732-1.123-1.629-1.123-2.69s0.368-1.952,1.105-2.673c0.748-0.73,1.666-1.097,2.753-1.097
			c1.195,0,2.209,0.478,3.042,1.434v-7.114h0.743v13.096H564.715z M563.882,226.373c-0.615-0.602-1.353-0.902-2.209-0.902
			c-0.869,0-1.606,0.295-2.21,0.885c-0.615,0.602-0.924,1.327-0.924,2.177c0,0.838,0.309,1.558,0.924,2.159
			c0.616,0.602,1.353,0.902,2.21,0.902c0.869,0,1.605-0.295,2.209-0.885c0.616-0.602,0.924-1.327,0.924-2.177
			C564.806,227.695,564.498,226.975,563.882,226.373z"/>
		<path d="M567.812,228.373c0,0.99,0.272,1.775,0.815,2.354c0.567,0.59,1.346,0.885,2.336,0.885c0.508,0,0.966-0.082,1.377-0.248
			c0.519-0.212,0.983-0.643,1.395-1.291l0.67,0.301c-0.471,0.873-1.195,1.463-2.173,1.77c-0.375,0.117-0.797,0.177-1.269,0.177
			c-1.122,0-2.046-0.36-2.771-1.079c-0.736-0.72-1.104-1.623-1.104-2.708c0-1.097,0.361-2,1.086-2.708
			c0.736-0.719,1.667-1.079,2.789-1.079c1.111,0,2.028,0.336,2.753,1.009c0.736,0.672,1.105,1.545,1.105,2.619H567.812z
			 M572.919,226.055c-0.567-0.4-1.22-0.602-1.956-0.602c-1.545,0-2.56,0.743-3.042,2.229h6.066
			C573.867,227.01,573.511,226.468,572.919,226.055z"/>
		<path d="M582.825,232.178v-1.256c-0.784,0.92-1.78,1.38-2.988,1.38c-1.086,0-1.998-0.36-2.734-1.079
			c-0.749-0.732-1.123-1.629-1.123-2.69s0.368-1.952,1.104-2.673c0.749-0.73,1.667-1.097,2.753-1.097c1.195,0,2.191,0.46,2.988,1.38
			v-1.273h0.743v7.309H582.825z M582.047,226.373c-0.616-0.602-1.353-0.902-2.21-0.902c-0.869,0-1.605,0.295-2.209,0.885
			c-0.616,0.602-0.924,1.327-0.924,2.177c0,0.838,0.308,1.558,0.924,2.159c0.615,0.602,1.352,0.902,2.209,0.902
			c0.87,0,1.606-0.295,2.21-0.885c0.615-0.602,0.924-1.327,0.924-2.177C582.971,227.695,582.662,226.975,582.047,226.373z"/>
		<path d="M589.454,231.718c-0.483,0.401-1.063,0.602-1.739,0.602c-1.159,0-2.028-0.513-2.607-1.54l0.634-0.371
			c0.205,0.365,0.453,0.648,0.742,0.85c0.302,0.225,0.713,0.336,1.231,0.336c1.135,0,1.703-0.472,1.703-1.416
			c0-0.412-0.199-0.772-0.598-1.079c-0.121-0.071-0.293-0.15-0.517-0.239c-0.224-0.088-0.498-0.191-0.824-0.31
			c-0.604-0.212-1.038-0.425-1.304-0.638c-0.387-0.307-0.579-0.748-0.579-1.326c0-0.496,0.192-0.921,0.579-1.274
			c0.374-0.366,0.863-0.549,1.467-0.549c0.833,0,1.54,0.283,2.119,0.85l-0.543,0.46c-0.411-0.4-0.937-0.602-1.576-0.602
			c-0.869,0-1.304,0.371-1.304,1.115c0,0.33,0.133,0.602,0.398,0.813c0.217,0.165,0.562,0.325,1.032,0.478
			c0.41,0.143,0.749,0.275,1.015,0.398c0.265,0.124,0.464,0.233,0.598,0.328c0.519,0.389,0.778,0.914,0.778,1.574
			C590.16,230.814,589.925,231.328,589.454,231.718z"/>
	</g>
</g>
</svg>
