<?xml version="1.0" encoding="utf-8"?>
<!-- Generator: Adobe Illustrator 15.1.0, SVG Export Plug-In . SVG Version: 6.00 Build 0)  -->
<!DOCTYPE svg PUBLIC "-//W3C//DTD SVG 1.1//EN" "http://www.w3.org/Graphics/SVG/1.1/DTD/svg11.dtd">
<svg version="1.1" id="Layer_1" xmlns="http://www.w3.org/2000/svg" xmlns:xlink="http://www.w3.org/1999/xlink" x="0px" y="0px"
	 width="868px" height="448px" viewBox="0 0 868 448" enable-background="new 0 0 868 448" xml:space="preserve">
<g>
	<g enable-background="new    ">
		<path d="M458.769,294.203v-4.24c0-0.377-0.128-0.703-0.381-0.981c-0.254-0.278-0.619-0.417-1.097-0.417
			c-0.984,0-1.477,0.467-1.477,1.398v4.24h-0.624v-4.24c0-0.416-0.143-0.748-0.427-0.996c-0.294-0.268-0.645-0.402-1.051-0.402
			c-0.416,0-0.766,0.129-1.05,0.387c-0.284,0.248-0.427,0.586-0.427,1.012v4.24h-0.624v-6.145h0.624v0.61
			c0.305-0.466,0.797-0.699,1.477-0.699c0.813,0,1.411,0.322,1.797,0.967c0.365-0.645,0.959-0.967,1.781-0.967
			c0.63,0,1.137,0.173,1.522,0.521c0.386,0.357,0.579,0.848,0.579,1.473v4.24H458.769z"/>
		<path d="M466.488,293.385c-0.629,0.615-1.4,0.922-2.314,0.922c-0.913,0-1.68-0.302-2.299-0.906
			c-0.629-0.615-0.943-1.369-0.943-2.262c0-0.883,0.314-1.631,0.943-2.246c0.619-0.625,1.386-0.938,2.299-0.938
			c0.903,0,1.67,0.307,2.3,0.922c0.629,0.615,0.943,1.369,0.943,2.262S467.107,292.78,466.488,293.385z M466.046,289.309
			c-0.508-0.506-1.132-0.759-1.873-0.759c-0.71,0-1.324,0.259-1.842,0.773c-0.528,0.517-0.792,1.121-0.792,1.815
			c0,0.704,0.259,1.309,0.776,1.814s1.137,0.76,1.857,0.76c0.731,0,1.351-0.248,1.857-0.744c0.519-0.506,0.777-1.116,0.777-1.83
			C466.808,290.414,466.554,289.805,466.046,289.309z"/>
		<path d="M471.952,288.967c-0.162-0.119-0.335-0.213-0.518-0.283c-0.183-0.069-0.376-0.104-0.578-0.104
			c-0.173,0-0.335,0.052-0.487,0.156c-0.152,0.104-0.284,0.232-0.396,0.387c-0.111,0.153-0.2,0.324-0.266,0.513
			c-0.066,0.188-0.1,0.362-0.1,0.521v4.047h-0.624v-6.145h0.624v0.834c0.132-0.229,0.305-0.438,0.518-0.625
			c0.214-0.188,0.447-0.283,0.7-0.283c0.314,0,0.574,0.035,0.777,0.104c0.202,0.069,0.431,0.193,0.685,0.372L471.952,288.967z"/>
		<path d="M472.928,291.004c0,0.834,0.229,1.494,0.685,1.979c0.478,0.496,1.132,0.743,1.964,0.743c0.427,0,0.813-0.068,1.157-0.208
			c0.437-0.179,0.827-0.54,1.173-1.086l0.563,0.253c-0.396,0.734-1.005,1.23-1.827,1.488c-0.314,0.099-0.67,0.148-1.066,0.148
			c-0.943,0-1.72-0.303-2.329-0.908c-0.619-0.604-0.929-1.363-0.929-2.275c0-0.922,0.305-1.682,0.914-2.276
			c0.618-0.604,1.4-0.907,2.344-0.907c0.935,0,1.706,0.282,2.314,0.848c0.619,0.565,0.929,1.299,0.929,2.201H472.928z
			 M477.221,289.056c-0.477-0.337-1.025-0.506-1.645-0.506c-1.299,0-2.151,0.625-2.558,1.874h5.101
			C478.018,289.859,477.718,289.402,477.221,289.056z"/>
		<path d="M487.116,294.322c-0.934,0-1.71-0.303-2.329-0.908c-0.619-0.604-0.929-1.363-0.929-2.275s0.31-1.672,0.929-2.276
			s1.396-0.907,2.329-0.907c0.802,0,1.441,0.178,1.919,0.535v0.729l-0.396-0.252l-0.426-0.224c-0.386-0.129-0.752-0.193-1.097-0.193
			c-0.781,0-1.416,0.238-1.903,0.714c-0.497,0.486-0.746,1.111-0.746,1.875c0,0.754,0.249,1.373,0.746,1.859
			s1.132,0.729,1.903,0.729c0.73,0,1.37-0.237,1.919-0.713v0.758C488.466,294.139,487.827,294.322,487.116,294.322z"/>
		<path d="M494.957,293.385c-0.629,0.615-1.4,0.922-2.314,0.922c-0.913,0-1.68-0.302-2.299-0.906
			c-0.629-0.615-0.943-1.369-0.943-2.262c0-0.883,0.314-1.631,0.943-2.246c0.619-0.625,1.386-0.938,2.299-0.938
			c0.903,0,1.67,0.307,2.3,0.922c0.629,0.615,0.943,1.369,0.943,2.262S495.576,292.78,494.957,293.385z M494.516,289.309
			c-0.508-0.506-1.132-0.759-1.873-0.759c-0.71,0-1.324,0.259-1.842,0.773c-0.528,0.517-0.792,1.121-0.792,1.815
			c0,0.704,0.259,1.309,0.776,1.814s1.137,0.76,1.857,0.76c0.731,0,1.351-0.248,1.857-0.744c0.519-0.506,0.777-1.116,0.777-1.83
			C495.278,290.414,495.024,289.805,494.516,289.309z"/>
		<path d="M499.038,283.805l-0.411-0.045c-0.568,0-0.853,0.327-0.853,0.981v3.317h1.492v0.61h-1.492v5.534h-0.625v-5.534h-0.853
			v-0.61h0.853v-3.496c0-0.941,0.487-1.413,1.462-1.413c0.224,0,0.365,0.011,0.427,0.03c0.121,0,0.259,0.035,0.411,0.104v0.61
			L499.038,283.805z"/>
		<path d="M502.662,283.805l-0.411-0.045c-0.568,0-0.853,0.327-0.853,0.981v3.317h1.492v0.61h-1.492v5.534h-0.625v-5.534h-0.853
			v-0.61h0.853v-3.496c0-0.941,0.487-1.413,1.462-1.413c0.224,0,0.365,0.011,0.427,0.03c0.121,0,0.259,0.035,0.411,0.104v0.61
			L502.662,283.805z"/>
		<path d="M503.742,291.004c0,0.834,0.229,1.494,0.685,1.979c0.478,0.496,1.132,0.743,1.964,0.743c0.427,0,0.813-0.068,1.157-0.208
			c0.437-0.179,0.827-0.54,1.173-1.086l0.563,0.253c-0.396,0.734-1.005,1.23-1.827,1.488c-0.314,0.099-0.67,0.148-1.066,0.148
			c-0.943,0-1.72-0.303-2.329-0.908c-0.619-0.604-0.929-1.363-0.929-2.275c0-0.922,0.305-1.682,0.914-2.276
			c0.618-0.604,1.4-0.907,2.344-0.907c0.935,0,1.706,0.282,2.314,0.848c0.619,0.565,0.929,1.299,0.929,2.201H503.742z
			 M508.035,289.056c-0.477-0.337-1.025-0.506-1.645-0.506c-1.299,0-2.151,0.625-2.558,1.874h5.101
			C508.832,289.859,508.532,289.402,508.035,289.056z"/>
		<path d="M511.796,291.004c0,0.834,0.229,1.494,0.685,1.979c0.478,0.496,1.132,0.743,1.964,0.743c0.427,0,0.813-0.068,1.157-0.208
			c0.437-0.179,0.827-0.54,1.173-1.086l0.563,0.253c-0.396,0.734-1.005,1.23-1.827,1.488c-0.314,0.099-0.67,0.148-1.066,0.148
			c-0.943,0-1.72-0.303-2.329-0.908c-0.619-0.604-0.929-1.363-0.929-2.275c0-0.922,0.305-1.682,0.914-2.276
			c0.618-0.604,1.4-0.907,2.344-0.907c0.935,0,1.706,0.282,2.314,0.848c0.619,0.565,0.929,1.299,0.929,2.201H511.796z
			 M516.089,289.056c-0.477-0.337-1.025-0.506-1.645-0.506c-1.299,0-2.151,0.625-2.558,1.874h5.101
			C516.886,289.859,516.586,289.402,516.089,289.056z"/>
	</g>
</g>
</svg>
