<?xml version="1.0" encoding="utf-8"?>
<!-- Generator: Adobe Illustrator 15.1.0, SVG Export Plug-In . SVG Version: 6.00 Build 0)  -->
<!DOCTYPE svg PUBLIC "-//W3C//DTD SVG 1.1//EN" "http://www.w3.org/Graphics/SVG/1.1/DTD/svg11.dtd">
<svg version="1.1" id="Layer_1" xmlns="http://www.w3.org/2000/svg" xmlns:xlink="http://www.w3.org/1999/xlink" x="0px" y="0px"
	 width="868px" height="448px" viewBox="0 0 868 448" enable-background="new 0 0 868 448" xml:space="preserve">
<g>
	<g enable-background="new    ">
		<path d="M274.043,366.426c-0.133,0-0.272-0.053-0.417-0.16c-0.108-0.105-0.169-0.247-0.181-0.424c0-0.318,0.199-0.514,0.598-0.584
			c0.301,0,0.5,0.194,0.598,0.584C274.641,366.23,274.442,366.426,274.043,366.426z M273.663,375.044v-7.31h0.742v7.31H273.663z"/>
		<path d="M282.447,375.044v-1.31c-0.797,0.955-1.811,1.434-3.043,1.434c-1.086,0-1.998-0.359-2.734-1.08
			c-0.749-0.73-1.123-1.628-1.123-2.689c0-1.063,0.368-1.953,1.105-2.672c0.748-0.732,1.666-1.098,2.752-1.098
			c1.195,0,2.21,0.479,3.043,1.434v-7.114h0.743v13.096H282.447z M281.614,369.239c-0.616-0.602-1.353-0.902-2.21-0.902
			c-0.869,0-1.606,0.295-2.209,0.885c-0.616,0.602-0.923,1.327-0.923,2.177c0,0.838,0.308,1.557,0.923,2.159
			c0.616,0.602,1.352,0.902,2.209,0.902c0.87,0,1.606-0.295,2.21-0.885c0.616-0.602,0.923-1.327,0.923-2.177
			C282.537,370.561,282.229,369.841,281.614,369.239z"/>
		<path d="M285.544,371.239c0,0.991,0.271,1.775,0.815,2.354c0.567,0.591,1.346,0.885,2.336,0.885c0.507,0,0.966-0.083,1.376-0.247
			c0.519-0.213,0.984-0.644,1.395-1.293l0.67,0.301c-0.471,0.874-1.195,1.463-2.173,1.771c-0.375,0.118-0.797,0.177-1.268,0.177
			c-1.123,0-2.047-0.359-2.771-1.08c-0.737-0.719-1.105-1.621-1.105-2.707c0-1.098,0.362-2,1.087-2.707
			c0.736-0.721,1.666-1.08,2.789-1.08c1.11,0,2.028,0.336,2.753,1.009c0.736,0.673,1.104,1.546,1.104,2.619H285.544z
			 M290.651,368.921c-0.568-0.401-1.22-0.603-1.956-0.603c-1.546,0-2.56,0.744-3.043,2.23h6.067
			C291.599,369.877,291.242,369.334,290.651,368.921z"/>
		<path d="M300.557,375.044v-1.257c-0.784,0.92-1.78,1.381-2.988,1.381c-1.087,0-1.999-0.359-2.735-1.08
			c-0.749-0.73-1.123-1.628-1.123-2.689c0-1.063,0.368-1.953,1.105-2.672c0.749-0.732,1.666-1.098,2.753-1.098
			c1.195,0,2.191,0.46,2.988,1.381v-1.275h0.743v7.31H300.557z M299.779,369.239c-0.616-0.602-1.353-0.902-2.209-0.902
			c-0.87,0-1.606,0.295-2.209,0.885c-0.616,0.602-0.924,1.327-0.924,2.177c0,0.838,0.308,1.557,0.924,2.159
			c0.616,0.602,1.352,0.902,2.209,0.902c0.87,0,1.606-0.295,2.209-0.885c0.615-0.602,0.924-1.327,0.924-2.177
			C300.702,370.561,300.394,369.841,299.779,369.239z"/>
		<path d="M314.611,375.044v-1.31c-0.797,0.955-1.811,1.434-3.042,1.434c-1.087,0-1.999-0.359-2.735-1.08
			c-0.748-0.73-1.123-1.628-1.123-2.689c0-1.063,0.368-1.953,1.105-2.672c0.748-0.732,1.666-1.098,2.753-1.098
			c1.195,0,2.209,0.479,3.042,1.434v-7.114h0.743v13.096H314.611z M313.778,369.239c-0.615-0.602-1.353-0.902-2.209-0.902
			c-0.869,0-1.606,0.295-2.21,0.885c-0.615,0.602-0.924,1.327-0.924,2.177c0,0.838,0.309,1.557,0.924,2.159
			c0.616,0.602,1.353,0.902,2.21,0.902c0.869,0,1.605-0.295,2.209-0.885c0.616-0.602,0.924-1.327,0.924-2.177
			C314.701,370.561,314.394,369.841,313.778,369.239z"/>
		<path d="M317.708,371.239c0,0.991,0.272,1.775,0.815,2.354c0.567,0.591,1.346,0.885,2.336,0.885c0.508,0,0.966-0.083,1.377-0.247
			c0.519-0.213,0.983-0.644,1.395-1.293l0.67,0.301c-0.471,0.874-1.195,1.463-2.173,1.771c-0.375,0.118-0.797,0.177-1.269,0.177
			c-1.122,0-2.046-0.359-2.771-1.08c-0.736-0.719-1.104-1.621-1.104-2.707c0-1.098,0.361-2,1.086-2.707
			c0.736-0.721,1.667-1.08,2.789-1.08c1.111,0,2.028,0.336,2.753,1.009c0.736,0.673,1.105,1.546,1.105,2.619H317.708z
			 M322.816,368.921c-0.567-0.401-1.22-0.603-1.956-0.603c-1.545,0-2.56,0.744-3.042,2.23h6.066
			C323.764,369.877,323.407,369.334,322.816,368.921z"/>
		<path d="M328.267,375.362l-3.531-7.628h0.797l2.717,5.823l2.734-5.823h0.833L328.267,375.362z"/>
		<path d="M333.464,371.239c0,0.991,0.272,1.775,0.815,2.354c0.567,0.591,1.346,0.885,2.336,0.885c0.508,0,0.966-0.083,1.377-0.247
			c0.519-0.213,0.983-0.644,1.395-1.293l0.67,0.301c-0.471,0.874-1.195,1.463-2.173,1.771c-0.375,0.118-0.797,0.177-1.269,0.177
			c-1.122,0-2.046-0.359-2.771-1.08c-0.736-0.719-1.104-1.621-1.104-2.707c0-1.098,0.361-2,1.086-2.707
			c0.736-0.721,1.667-1.08,2.789-1.08c1.111,0,2.028,0.336,2.753,1.009c0.736,0.673,1.105,1.546,1.105,2.619H333.464z
			 M338.572,368.921c-0.567-0.401-1.22-0.603-1.956-0.603c-1.545,0-2.56,0.744-3.042,2.23h6.066
			C339.52,369.877,339.163,369.334,338.572,368.921z"/>
		<path d="M342.394,375.044v-13.096h0.725v13.096H342.394z"/>
		<path d="M351.72,374.07c-0.748,0.732-1.666,1.098-2.753,1.098c-1.086,0-1.998-0.359-2.734-1.08
			c-0.749-0.73-1.123-1.628-1.123-2.689c0-1.05,0.374-1.94,1.123-2.672c0.736-0.744,1.648-1.115,2.734-1.115
			c1.075,0,1.986,0.365,2.735,1.098c0.748,0.73,1.123,1.627,1.123,2.689C352.825,372.46,352.456,373.352,351.72,374.07z
			 M351.195,369.222c-0.604-0.602-1.346-0.903-2.228-0.903c-0.845,0-1.575,0.308-2.191,0.921c-0.628,0.614-0.941,1.333-0.941,2.159
			c0,0.838,0.308,1.557,0.924,2.159c0.615,0.602,1.352,0.902,2.209,0.902c0.87,0,1.606-0.295,2.21-0.885
			c0.615-0.602,0.924-1.327,0.924-2.177C352.101,370.537,351.799,369.812,351.195,369.222z"/>
		<path d="M361.229,374.07c-0.749,0.732-1.666,1.098-2.753,1.098c-1.243,0-2.271-0.496-3.079-1.486v4.795h-0.742v-10.742h0.742
			v1.381c0.772-0.99,1.799-1.486,3.079-1.486c1.087,0,1.998,0.359,2.735,1.08c0.748,0.73,1.122,1.627,1.122,2.689
			C362.333,372.46,361.965,373.352,361.229,374.07z M360.686,369.239c-0.616-0.602-1.353-0.902-2.21-0.902
			c-0.869,0-1.605,0.295-2.209,0.885c-0.616,0.602-0.924,1.327-0.924,2.177c0,0.838,0.308,1.557,0.924,2.159
			c0.615,0.602,1.352,0.902,2.209,0.902c0.869,0,1.605-0.295,2.21-0.885c0.615-0.602,0.924-1.327,0.924-2.177
			C361.61,370.561,361.301,369.841,360.686,369.239z"/>
		<path d="M372.493,375.044V370c0-0.447-0.151-0.838-0.453-1.168s-0.736-0.495-1.304-0.495c-1.172,0-1.757,0.555-1.757,1.663v5.044
			h-0.743V370c0-0.495-0.169-0.891-0.507-1.186c-0.351-0.318-0.767-0.478-1.25-0.478c-0.495,0-0.911,0.153-1.249,0.46
			c-0.339,0.295-0.508,0.696-0.508,1.203v5.044h-0.742v-7.31h0.742v0.727c0.362-0.555,0.948-0.832,1.757-0.832
			c0.966,0,1.679,0.383,2.138,1.15c0.435-0.768,1.141-1.15,2.119-1.15c0.748,0,1.352,0.207,1.811,0.619
			c0.459,0.425,0.688,1.009,0.688,1.752v5.044H372.493z"/>
		<path d="M375.771,371.239c0,0.991,0.272,1.775,0.815,2.354c0.567,0.591,1.346,0.885,2.336,0.885c0.508,0,0.966-0.083,1.377-0.247
			c0.519-0.213,0.983-0.644,1.395-1.293l0.67,0.301c-0.471,0.874-1.195,1.463-2.173,1.771c-0.375,0.118-0.797,0.177-1.269,0.177
			c-1.122,0-2.046-0.359-2.771-1.08c-0.736-0.719-1.104-1.621-1.104-2.707c0-1.098,0.361-2,1.086-2.707
			c0.736-0.721,1.667-1.08,2.789-1.08c1.111,0,2.028,0.336,2.753,1.009c0.736,0.673,1.105,1.546,1.105,2.619H375.771z
			 M380.878,368.921c-0.567-0.401-1.22-0.603-1.956-0.603c-1.545,0-2.56,0.744-3.042,2.23h6.066
			C381.826,369.877,381.47,369.334,380.878,368.921z"/>
		<path d="M389.535,375.044v-4.371c0-1.546-0.713-2.318-2.138-2.318c-0.7,0-1.231,0.2-1.594,0.602
			c-0.374,0.401-0.562,0.95-0.562,1.646v4.442H384.5v-7.31h0.742v0.886c0.338-0.649,1.057-0.974,2.155-0.974
			c0.93,0,1.643,0.26,2.138,0.779c0.495,0.519,0.742,1.244,0.742,2.176v4.442H389.535z"/>
		<path d="M393.791,368.461v6.583h-0.743v-6.583h-1.014v-0.727h1.014v-3.203h0.743v3.203h1.738v0.727H393.791z"/>
	</g>
</g>
</svg>
