<?xml version="1.0" encoding="utf-8"?>
<!-- Generator: Adobe Illustrator 15.1.0, SVG Export Plug-In . SVG Version: 6.00 Build 0)  -->
<!DOCTYPE svg PUBLIC "-//W3C//DTD SVG 1.1//EN" "http://www.w3.org/Graphics/SVG/1.1/DTD/svg11.dtd">
<svg version="1.1" id="Layer_1" xmlns="http://www.w3.org/2000/svg" xmlns:xlink="http://www.w3.org/1999/xlink" x="0px" y="0px"
	 width="868px" height="448px" viewBox="0 0 868 448" enable-background="new 0 0 868 448" xml:space="preserve">
<g>
	<path d="M109.421,298.658v-1.21c-0.738,0.886-1.676,1.329-2.812,1.329c-1.022,0-1.88-0.347-2.573-1.039
		c-0.705-0.704-1.057-1.567-1.057-2.59s0.347-1.88,1.04-2.573c0.704-0.704,1.568-1.057,2.59-1.057c1.125,0,2.062,0.443,2.812,1.329
		v-1.227h0.699v7.037H109.421z M108.689,293.069c-0.58-0.579-1.272-0.869-2.079-0.869c-0.818,0-1.511,0.284-2.079,0.853
		c-0.58,0.579-0.869,1.277-0.869,2.096c0,0.807,0.29,1.499,0.869,2.078c0.579,0.58,1.272,0.869,2.079,0.869
		c0.818,0,1.511-0.283,2.079-0.852c0.579-0.579,0.869-1.278,0.869-2.096C109.557,294.342,109.268,293.648,108.689,293.069z"/>
	<path d="M116.935,298.658v-4.209c0-1.487-0.67-2.231-2.01-2.231c-0.659,0-1.159,0.193-1.5,0.579
		c-0.353,0.386-0.528,0.914-0.528,1.585v4.276h-0.699v-7.037h0.699v0.852c0.318-0.624,0.994-0.937,2.028-0.937
		c0.875,0,1.544,0.25,2.01,0.749c0.466,0.5,0.699,1.199,0.699,2.097v4.276H116.935z"/>
	<path d="M125.796,298.658v-1.21c-0.738,0.886-1.676,1.329-2.812,1.329c-1.022,0-1.88-0.347-2.573-1.039
		c-0.705-0.704-1.057-1.567-1.057-2.59s0.347-1.88,1.04-2.573c0.704-0.704,1.568-1.057,2.59-1.057c1.125,0,2.062,0.443,2.812,1.329
		v-1.227h0.699v7.037H125.796z M125.063,293.069c-0.58-0.579-1.272-0.869-2.079-0.869c-0.818,0-1.511,0.284-2.079,0.853
		c-0.58,0.579-0.869,1.277-0.869,2.096c0,0.807,0.29,1.499,0.869,2.078c0.579,0.58,1.272,0.869,2.079,0.869
		c0.818,0,1.511-0.283,2.079-0.852c0.579-0.579,0.869-1.278,0.869-2.096C125.932,294.342,125.642,293.648,125.063,293.069z"/>
	<path d="M128.76,298.658v-12.609h0.682v12.609H128.76z"/>
	<path d="M131.452,290.36c-0.125,0-0.255-0.052-0.392-0.153c-0.103-0.103-0.159-0.239-0.17-0.409c0-0.307,0.188-0.494,0.562-0.563
		c0.284,0,0.471,0.188,0.563,0.563C132.015,290.173,131.827,290.36,131.452,290.36z M131.094,298.658v-7.037h0.699v7.037H131.094z"
		/>
	<path d="M134.349,297.96h4.908v0.698h-6.356l5.027-6.373h-4.737v-0.664h6.151L134.349,297.96z"/>
	<path d="M146.464,298.658v-1.21c-0.738,0.886-1.676,1.329-2.812,1.329c-1.022,0-1.88-0.347-2.573-1.039
		c-0.705-0.704-1.057-1.567-1.057-2.59s0.347-1.88,1.04-2.573c0.704-0.704,1.568-1.057,2.59-1.057c1.125,0,2.062,0.443,2.812,1.329
		v-1.227h0.699v7.037H146.464z M145.731,293.069c-0.58-0.579-1.272-0.869-2.079-0.869c-0.818,0-1.511,0.284-2.079,0.853
		c-0.58,0.579-0.869,1.277-0.869,2.096c0,0.807,0.29,1.499,0.869,2.078c0.579,0.58,1.272,0.869,2.079,0.869
		c0.818,0,1.511-0.283,2.079-0.852c0.579-0.579,0.869-1.278,0.869-2.096C146.6,294.342,146.31,293.648,145.731,293.069z"/>
	<path d="M159.737,297.721c-0.705,0.705-1.568,1.057-2.59,1.057c-1.17,0-2.136-0.477-2.896-1.432v4.618h-0.699v-10.343h0.699v1.329
		c0.727-0.954,1.692-1.432,2.896-1.432c1.022,0,1.88,0.347,2.573,1.04c0.704,0.704,1.056,1.567,1.056,2.59
		S160.429,297.028,159.737,297.721z M159.226,293.069c-0.58-0.579-1.272-0.869-2.079-0.869c-0.818,0-1.511,0.284-2.079,0.853
		c-0.579,0.579-0.869,1.277-0.869,2.096c0,0.807,0.29,1.499,0.869,2.078c0.58,0.58,1.272,0.869,2.079,0.869
		c0.818,0,1.511-0.283,2.079-0.852c0.579-0.579,0.869-1.278,0.869-2.096C160.095,294.342,159.805,293.648,159.226,293.069z"/>
	<path d="M165.649,292.66c-0.182-0.136-0.375-0.244-0.58-0.323c-0.204-0.08-0.42-0.119-0.647-0.119c-0.193,0-0.375,0.06-0.545,0.179
		s-0.318,0.267-0.443,0.442c-0.125,0.177-0.224,0.373-0.298,0.588c-0.074,0.217-0.111,0.415-0.111,0.597v4.635h-0.699v-7.037h0.699
		v0.954c0.147-0.261,0.341-0.5,0.579-0.716c0.239-0.216,0.5-0.323,0.784-0.323c0.352,0,0.642,0.04,0.869,0.119
		s0.483,0.222,0.767,0.426L165.649,292.66z"/>
	<path d="M172.227,297.721c-0.705,0.705-1.568,1.057-2.59,1.057c-1.022,0-1.88-0.347-2.573-1.039
		c-0.705-0.704-1.057-1.567-1.057-2.59c0-1.011,0.352-1.869,1.057-2.573c0.693-0.716,1.551-1.073,2.573-1.073
		c1.011,0,1.869,0.352,2.573,1.057c0.704,0.704,1.056,1.567,1.056,2.59S172.919,297.028,172.227,297.721z M171.733,293.053
		c-0.568-0.58-1.267-0.869-2.096-0.869c-0.795,0-1.482,0.295-2.062,0.886c-0.591,0.591-0.886,1.284-0.886,2.079
		c0,0.807,0.29,1.499,0.869,2.078c0.579,0.58,1.272,0.869,2.079,0.869c0.818,0,1.511-0.283,2.079-0.852
		c0.579-0.579,0.869-1.278,0.869-2.096C172.584,294.319,172.301,293.62,171.733,293.053z"/>
	<path d="M175.498,290.36c-0.125,0-0.255-0.052-0.392-0.153c-0.103-0.103-0.159-0.239-0.17-0.409c0-0.307,0.188-0.494,0.562-0.563
		c0.284,0,0.471,0.188,0.563,0.563C176.06,290.173,175.873,290.36,175.498,290.36z M175.14,298.658v-7.037h0.699v7.037H175.14z"/>
	<path d="M178.292,294.995c0,0.954,0.256,1.709,0.767,2.266c0.534,0.568,1.266,0.853,2.198,0.853c0.477,0,0.909-0.08,1.295-0.239
		c0.488-0.204,0.926-0.618,1.312-1.243l0.631,0.289c-0.443,0.841-1.125,1.409-2.045,1.704c-0.352,0.113-0.75,0.171-1.193,0.171
		c-1.056,0-1.925-0.347-2.607-1.04c-0.693-0.692-1.04-1.562-1.04-2.606c0-1.057,0.341-1.926,1.022-2.607
		c0.693-0.692,1.568-1.039,2.624-1.039c1.045,0,1.909,0.323,2.59,0.971c0.692,0.647,1.039,1.488,1.039,2.522H178.292z
		 M183.097,292.763c-0.534-0.386-1.147-0.579-1.84-0.579c-1.454,0-2.408,0.716-2.862,2.146h5.708
		C183.989,293.683,183.654,293.16,183.097,292.763z"/>
	<path d="M189.827,298.795c-1.045,0-1.914-0.347-2.607-1.04c-0.693-0.692-1.04-1.562-1.04-2.606s0.347-1.914,1.04-2.607
		c0.693-0.692,1.562-1.039,2.607-1.039c0.897,0,1.613,0.204,2.147,0.613v0.835l-0.443-0.29l-0.478-0.255
		c-0.432-0.148-0.84-0.222-1.227-0.222c-0.875,0-1.584,0.272-2.13,0.817c-0.557,0.557-0.835,1.272-0.835,2.147
		c0,0.863,0.278,1.573,0.835,2.13c0.556,0.557,1.267,0.835,2.13,0.835c0.818,0,1.534-0.273,2.147-0.818v0.869
		C191.338,298.584,190.622,298.795,189.827,298.795z"/>
	<path d="M195.024,292.319v6.339h-0.699v-6.339h-0.954v-0.698h0.954v-3.084h0.699v3.084h1.636v0.698H195.024z"/>
	<path d="M202.709,298.045c-0.466,0.5-1.119,0.75-1.959,0.75c-0.83,0-1.471-0.244-1.925-0.733c-0.455-0.488-0.682-1.17-0.682-2.044
		v-4.396h0.698v4.396c0,0.67,0.147,1.187,0.443,1.55c0.307,0.364,0.795,0.546,1.465,0.546c1.306,0,1.959-0.699,1.959-2.096v-4.396
		h0.682v4.396C203.39,296.881,203.163,297.557,202.709,298.045z"/>
	<path d="M204.873,298.658v-12.609h0.682v12.609H204.873z"/>
	<path d="M211.603,298.045c-0.466,0.5-1.119,0.75-1.959,0.75c-0.83,0-1.471-0.244-1.925-0.733c-0.455-0.488-0.682-1.17-0.682-2.044
		v-4.396h0.698v4.396c0,0.67,0.147,1.187,0.443,1.55c0.307,0.364,0.795,0.546,1.465,0.546c1.306,0,1.959-0.699,1.959-2.096v-4.396
		h0.682v4.396C212.285,296.881,212.057,297.557,211.603,298.045z"/>
	<path d="M214.125,290.36c-0.125,0-0.255-0.052-0.392-0.153c-0.103-0.103-0.159-0.239-0.17-0.409c0-0.307,0.188-0.494,0.562-0.563
		c0.284,0,0.471,0.188,0.563,0.563C214.687,290.173,214.5,290.36,214.125,290.36z M213.767,298.658v-7.037h0.699v7.037H213.767z"/>
</g>
</svg>
