<?xml version="1.0" encoding="utf-8"?>
<!-- Generator: Adobe Illustrator 15.1.0, SVG Export Plug-In . SVG Version: 6.00 Build 0)  -->
<!DOCTYPE svg PUBLIC "-//W3C//DTD SVG 1.1//EN" "http://www.w3.org/Graphics/SVG/1.1/DTD/svg11.dtd">
<svg version="1.1" id="Layer_1" xmlns="http://www.w3.org/2000/svg" xmlns:xlink="http://www.w3.org/1999/xlink" x="0px" y="0px"
	 width="868px" height="448px" viewBox="0 0 868 448" enable-background="new 0 0 868 448" xml:space="preserve">
<g>
	<path d="M421.055,357.291c-0.92,0-1.685-0.305-2.295-0.915c-0.609-0.61-0.915-1.375-0.915-2.295s0.306-1.685,0.915-2.295
		c0.61-0.61,1.375-0.915,2.295-0.915c0.79,0,1.42,0.18,1.891,0.54v0.735l-0.391-0.256l-0.42-0.225c-0.38-0.13-0.74-0.195-1.08-0.195
		c-0.77,0-1.395,0.24-1.875,0.721c-0.489,0.49-0.734,1.119-0.734,1.89c0,0.76,0.245,1.385,0.734,1.875
		c0.49,0.489,1.115,0.735,1.875,0.735c0.721,0,1.351-0.24,1.891-0.721v0.766C422.385,357.105,421.756,357.291,421.055,357.291z"/>
	<path d="M428.976,357.171v-1.065c-0.65,0.78-1.476,1.17-2.476,1.17c-0.899,0-1.655-0.305-2.265-0.914
		c-0.62-0.62-0.93-1.381-0.93-2.28c0-0.9,0.305-1.655,0.915-2.265c0.619-0.621,1.38-0.931,2.279-0.931c0.99,0,1.815,0.39,2.476,1.17
		v-1.079h0.614v6.194H428.976z M428.331,352.251c-0.51-0.511-1.12-0.765-1.83-0.765c-0.72,0-1.33,0.25-1.83,0.75
		c-0.51,0.51-0.765,1.125-0.765,1.845c0,0.71,0.255,1.319,0.765,1.83c0.511,0.51,1.12,0.765,1.83,0.765c0.721,0,1.33-0.25,1.83-0.75
		c0.51-0.51,0.766-1.125,0.766-1.845C429.096,353.371,428.841,352.761,428.331,352.251z"/>
	<path d="M433.775,346.686l-0.404-0.045c-0.561,0-0.841,0.33-0.841,0.99v3.346h1.471v0.614h-1.471v5.58h-0.614v-5.58h-0.841v-0.614
		h0.841v-3.525c0-0.95,0.479-1.426,1.439-1.426c0.22,0,0.36,0.011,0.42,0.03c0.12,0,0.255,0.035,0.405,0.105v0.614L433.775,346.686z
		"/>
	<path d="M434.84,353.945c0,0.841,0.225,1.506,0.676,1.996c0.469,0.5,1.115,0.75,1.934,0.75c0.42,0,0.801-0.07,1.141-0.211
		c0.43-0.18,0.814-0.545,1.154-1.095l0.557,0.255c-0.391,0.74-0.99,1.24-1.801,1.5c-0.311,0.1-0.66,0.15-1.051,0.15
		c-0.93,0-1.693-0.305-2.295-0.915c-0.609-0.61-0.915-1.375-0.915-2.295c0-0.931,0.299-1.695,0.901-2.295
		c0.609-0.61,1.379-0.915,2.309-0.915c0.92,0,1.682,0.285,2.281,0.855c0.609,0.569,0.914,1.31,0.914,2.219H434.84z M439.071,351.98
		c-0.471-0.34-1.01-0.51-1.621-0.51c-1.279,0-2.119,0.631-2.52,1.891h5.025C439.856,352.791,439.561,352.331,439.071,351.98z"/>
	<path d="M447.276,357.171v-1.065c-0.65,0.78-1.475,1.17-2.475,1.17c-0.9,0-1.656-0.305-2.266-0.914
		c-0.619-0.62-0.93-1.381-0.93-2.28c0-0.9,0.305-1.655,0.916-2.265c0.619-0.621,1.379-0.931,2.279-0.931
		c0.99,0,1.814,0.39,2.475,1.17v-1.079h0.615v6.194H447.276z M446.631,352.251c-0.51-0.511-1.121-0.765-1.83-0.765
		c-0.721,0-1.33,0.25-1.83,0.75c-0.51,0.51-0.766,1.125-0.766,1.845c0,0.71,0.256,1.319,0.766,1.83
		c0.51,0.51,1.119,0.765,1.83,0.765c0.721,0,1.33-0.25,1.83-0.75c0.51-0.51,0.766-1.125,0.766-1.845
		C447.397,353.371,447.141,352.761,446.631,352.251z"/>
</g>
</svg>
