<?xml version="1.0" encoding="utf-8"?>
<!-- Generator: Adobe Illustrator 15.1.0, SVG Export Plug-In . SVG Version: 6.00 Build 0)  -->
<!DOCTYPE svg PUBLIC "-//W3C//DTD SVG 1.1//EN" "http://www.w3.org/Graphics/SVG/1.1/DTD/svg11.dtd">
<svg version="1.1" id="Layer_1" xmlns="http://www.w3.org/2000/svg" xmlns:xlink="http://www.w3.org/1999/xlink" x="0px" y="0px"
	 width="868px" height="448px" viewBox="0 0 868 448" enable-background="new 0 0 868 448" xml:space="preserve">
<g>
	<path d="M365.888,320.161c-0.92,0-1.685-0.306-2.295-0.915c-0.609-0.609-0.915-1.375-0.915-2.295s0.306-1.686,0.915-2.295
		c0.61-0.609,1.375-0.915,2.295-0.915c0.79,0,1.42,0.18,1.891,0.54v0.734l-0.391-0.254l-0.42-0.226
		c-0.38-0.13-0.74-0.195-1.08-0.195c-0.77,0-1.395,0.24-1.875,0.72c-0.489,0.49-0.734,1.121-0.734,1.891
		c0,0.76,0.245,1.385,0.734,1.875c0.49,0.49,1.115,0.734,1.875,0.734c0.721,0,1.351-0.24,1.891-0.72v0.765
		C367.219,319.977,366.589,320.161,365.888,320.161z"/>
	<path d="M373.809,320.041v-1.064c-0.65,0.779-1.476,1.17-2.476,1.17c-0.899,0-1.655-0.305-2.265-0.916
		c-0.62-0.619-0.93-1.379-0.93-2.279s0.305-1.655,0.915-2.266c0.619-0.619,1.38-0.93,2.279-0.93c0.99,0,1.815,0.391,2.476,1.17
		v-1.08h0.614v6.195H373.809z M373.164,315.121c-0.51-0.51-1.12-0.766-1.83-0.766c-0.72,0-1.33,0.25-1.83,0.75
		c-0.51,0.511-0.765,1.125-0.765,1.846c0,0.71,0.255,1.32,0.765,1.83c0.511,0.51,1.12,0.765,1.83,0.765
		c0.721,0,1.33-0.249,1.83-0.75c0.51-0.51,0.766-1.125,0.766-1.845C373.929,316.241,373.674,315.631,373.164,315.121z"/>
	<path d="M378.608,309.557l-0.404-0.045c-0.561,0-0.841,0.329-0.841,0.989v3.345h1.471v0.615h-1.471v5.58h-0.614v-5.58h-0.841
		v-0.615h0.841v-3.525c0-0.949,0.479-1.424,1.439-1.424c0.22,0,0.36,0.01,0.42,0.029c0.12,0,0.255,0.035,0.405,0.105v0.615
		L378.608,309.557z"/>
	<path d="M379.674,316.816c0,0.84,0.225,1.505,0.675,1.994c0.47,0.5,1.115,0.75,1.935,0.75c0.42,0,0.8-0.069,1.141-0.209
		c0.43-0.181,0.814-0.545,1.154-1.096l0.556,0.256c-0.391,0.739-0.99,1.239-1.801,1.5c-0.31,0.1-0.659,0.149-1.05,0.149
		c-0.93,0-1.694-0.306-2.295-0.915c-0.61-0.609-0.915-1.375-0.915-2.295c0-0.93,0.3-1.695,0.9-2.295
		c0.609-0.609,1.38-0.915,2.31-0.915c0.92,0,1.681,0.284,2.28,0.854c0.609,0.57,0.915,1.311,0.915,2.221H379.674z M383.903,314.852
		c-0.47-0.34-1.01-0.511-1.62-0.511c-1.28,0-2.12,0.63-2.52,1.89h5.024C384.688,315.661,384.393,315.201,383.903,314.852z"/>
	<path d="M392.109,320.041v-1.064c-0.65,0.779-1.476,1.17-2.476,1.17c-0.899,0-1.655-0.305-2.265-0.916
		c-0.62-0.619-0.93-1.379-0.93-2.279s0.305-1.655,0.915-2.266c0.619-0.619,1.38-0.93,2.279-0.93c0.99,0,1.815,0.391,2.476,1.17
		v-1.08h0.614v6.195H392.109z M391.464,315.121c-0.51-0.51-1.12-0.766-1.83-0.766c-0.72,0-1.33,0.25-1.83,0.75
		c-0.51,0.511-0.765,1.125-0.765,1.846c0,0.71,0.255,1.32,0.765,1.83c0.511,0.51,1.12,0.765,1.83,0.765
		c0.721,0,1.33-0.249,1.83-0.75c0.51-0.51,0.766-1.125,0.766-1.845C392.229,316.241,391.973,315.631,391.464,315.121z"/>
</g>
</svg>
