<?xml version="1.0" encoding="utf-8"?>
<!-- Generator: Adobe Illustrator 15.1.0, SVG Export Plug-In . SVG Version: 6.00 Build 0)  -->
<!DOCTYPE svg PUBLIC "-//W3C//DTD SVG 1.1//EN" "http://www.w3.org/Graphics/SVG/1.1/DTD/svg11.dtd">
<svg version="1.1" id="Layer_1" xmlns="http://www.w3.org/2000/svg" xmlns:xlink="http://www.w3.org/1999/xlink" x="0px" y="0px"
	 width="868px" height="448px" viewBox="0 0 868 448" enable-background="new 0 0 868 448" xml:space="preserve">
<g>
	<path d="M334.971,305.404c-0.92,0-1.685-0.305-2.295-0.915c-0.609-0.61-0.915-1.375-0.915-2.295s0.306-1.685,0.915-2.295
		c0.61-0.61,1.375-0.915,2.295-0.915c0.79,0,1.42,0.18,1.891,0.54v0.735l-0.391-0.256l-0.42-0.225c-0.38-0.13-0.74-0.195-1.08-0.195
		c-0.77,0-1.395,0.24-1.875,0.721c-0.489,0.49-0.734,1.119-0.734,1.89c0,0.76,0.245,1.385,0.734,1.875
		c0.49,0.489,1.115,0.735,1.875,0.735c0.721,0,1.351-0.24,1.891-0.721v0.766C336.302,305.219,335.672,305.404,334.971,305.404z"/>
	<path d="M342.892,305.284v-1.065c-0.65,0.78-1.476,1.17-2.476,1.17c-0.899,0-1.655-0.305-2.265-0.914
		c-0.62-0.62-0.93-1.381-0.93-2.28c0-0.9,0.305-1.655,0.915-2.265c0.619-0.621,1.38-0.931,2.279-0.931c0.99,0,1.815,0.39,2.476,1.17
		v-1.079h0.614v6.194H342.892z M342.247,300.364c-0.51-0.511-1.12-0.765-1.83-0.765c-0.72,0-1.33,0.25-1.83,0.75
		c-0.51,0.51-0.765,1.125-0.765,1.845c0,0.71,0.255,1.319,0.765,1.83c0.511,0.51,1.12,0.765,1.83,0.765c0.721,0,1.33-0.25,1.83-0.75
		c0.51-0.51,0.766-1.125,0.766-1.845C343.012,301.484,342.757,300.874,342.247,300.364z"/>
	<path d="M347.691,294.799l-0.404-0.045c-0.561,0-0.841,0.33-0.841,0.99v3.346h1.471v0.614h-1.471v5.58h-0.614v-5.58h-0.841v-0.614
		h0.841v-3.525c0-0.95,0.479-1.426,1.439-1.426c0.22,0,0.36,0.011,0.42,0.03c0.12,0,0.255,0.035,0.405,0.105v0.614L347.691,294.799z
		"/>
	<path d="M348.757,302.059c0,0.841,0.225,1.506,0.675,1.996c0.47,0.5,1.115,0.75,1.935,0.75c0.42,0,0.8-0.07,1.141-0.211
		c0.43-0.18,0.814-0.545,1.154-1.095l0.556,0.255c-0.391,0.74-0.99,1.24-1.801,1.5c-0.31,0.1-0.659,0.15-1.05,0.15
		c-0.93,0-1.694-0.305-2.295-0.915c-0.61-0.61-0.915-1.375-0.915-2.295c0-0.931,0.3-1.695,0.9-2.295
		c0.609-0.61,1.38-0.915,2.31-0.915c0.92,0,1.681,0.285,2.28,0.855c0.609,0.569,0.915,1.31,0.915,2.219H348.757z M352.986,300.094
		c-0.47-0.34-1.01-0.51-1.62-0.51c-1.28,0-2.12,0.631-2.52,1.891h5.024C353.771,300.904,353.476,300.444,352.986,300.094z"/>
	<path d="M361.192,305.284v-1.065c-0.65,0.78-1.476,1.17-2.476,1.17c-0.899,0-1.655-0.305-2.265-0.914
		c-0.62-0.62-0.93-1.381-0.93-2.28c0-0.9,0.305-1.655,0.915-2.265c0.619-0.621,1.38-0.931,2.279-0.931c0.99,0,1.815,0.39,2.476,1.17
		v-1.079h0.614v6.194H361.192z M360.547,300.364c-0.51-0.511-1.12-0.765-1.83-0.765c-0.72,0-1.33,0.25-1.83,0.75
		c-0.51,0.51-0.765,1.125-0.765,1.845c0,0.71,0.255,1.319,0.765,1.83c0.511,0.51,1.12,0.765,1.83,0.765c0.721,0,1.33-0.25,1.83-0.75
		c0.51-0.51,0.766-1.125,0.766-1.845C361.312,301.484,361.056,300.874,360.547,300.364z"/>
</g>
</svg>
