<?xml version="1.0" encoding="utf-8"?>
<!-- Generator: Adobe Illustrator 15.1.0, SVG Export Plug-In . SVG Version: 6.00 Build 0)  -->
<!DOCTYPE svg PUBLIC "-//W3C//DTD SVG 1.1//EN" "http://www.w3.org/Graphics/SVG/1.1/DTD/svg11.dtd">
<svg version="1.1" id="Layer_1" xmlns="http://www.w3.org/2000/svg" xmlns:xlink="http://www.w3.org/1999/xlink" x="0px" y="0px"
	 width="868px" height="448px" viewBox="0 0 868 448" enable-background="new 0 0 868 448" xml:space="preserve">
<g>
	<path d="M627.492,175.841c-0.744,0.745-1.656,1.116-2.736,1.116c-1.235,0-2.256-0.504-3.06-1.512v4.878h-0.738v-10.926h0.738v1.404
		c0.768-1.008,1.788-1.512,3.06-1.512c1.08,0,1.986,0.366,2.719,1.098c0.743,0.744,1.115,1.656,1.115,2.736
		S628.224,175.109,627.492,175.841z M626.952,170.927c-0.612-0.612-1.344-0.918-2.196-0.918c-0.863,0-1.596,0.3-2.195,0.9
		c-0.612,0.612-0.918,1.35-0.918,2.214c0,0.852,0.306,1.584,0.918,2.196c0.611,0.612,1.344,0.918,2.195,0.918
		c0.864,0,1.596-0.3,2.196-0.9c0.612-0.612,0.918-1.35,0.918-2.214C627.87,172.271,627.565,171.539,626.952,170.927z"/>
	<path d="M633.739,170.495c-0.192-0.144-0.396-0.258-0.612-0.342c-0.216-0.083-0.444-0.126-0.684-0.126
		c-0.204,0-0.396,0.063-0.576,0.189c-0.18,0.126-0.336,0.282-0.468,0.468c-0.133,0.186-0.237,0.393-0.315,0.621
		s-0.117,0.438-0.117,0.63v4.896h-0.737v-7.434h0.737v1.008c0.156-0.276,0.36-0.528,0.612-0.756
		c0.252-0.228,0.527-0.342,0.828-0.342c0.372,0,0.678,0.042,0.918,0.126c0.239,0.084,0.51,0.234,0.81,0.45L633.739,170.495z"/>
	<path d="M640.687,175.841c-0.744,0.745-1.656,1.116-2.736,1.116s-1.986-0.366-2.718-1.098c-0.744-0.744-1.116-1.656-1.116-2.736
		c0-1.068,0.372-1.974,1.116-2.718c0.731-0.756,1.638-1.134,2.718-1.134c1.068,0,1.974,0.372,2.718,1.116s1.116,1.656,1.116,2.736
		S641.418,175.109,640.687,175.841z M640.164,170.909c-0.6-0.612-1.338-0.918-2.214-0.918c-0.84,0-1.565,0.312-2.178,0.936
		c-0.624,0.624-0.937,1.356-0.937,2.196c0,0.852,0.307,1.584,0.918,2.196c0.612,0.612,1.344,0.918,2.196,0.918
		c0.864,0,1.596-0.3,2.196-0.9c0.612-0.612,0.918-1.35,0.918-2.214C641.065,172.247,640.765,171.509,640.164,170.909z"/>
	<path d="M650.082,176.831v-1.332c-0.792,0.972-1.8,1.458-3.023,1.458c-1.08,0-1.986-0.366-2.719-1.098
		c-0.744-0.744-1.115-1.656-1.115-2.736s0.365-1.986,1.098-2.718c0.744-0.744,1.656-1.116,2.736-1.116
		c1.188,0,2.195,0.486,3.023,1.458v-7.236h0.738v13.32H650.082z M649.254,170.927c-0.611-0.612-1.344-0.918-2.195-0.918
		c-0.864,0-1.597,0.3-2.196,0.9c-0.612,0.612-0.918,1.35-0.918,2.214c0,0.852,0.306,1.584,0.918,2.196
		c0.612,0.612,1.344,0.918,2.196,0.918c0.863,0,1.596-0.3,2.195-0.9c0.612-0.612,0.918-1.35,0.918-2.214
		C650.172,172.271,649.866,171.539,649.254,170.927z"/>
	<path d="M657.75,176.183c-0.492,0.528-1.182,0.792-2.07,0.792c-0.876,0-1.554-0.258-2.033-0.774
		c-0.48-0.516-0.721-1.236-0.721-2.16v-4.644h0.738v4.644c0,0.708,0.156,1.254,0.468,1.638c0.324,0.384,0.84,0.576,1.548,0.576
		c1.38,0,2.07-0.738,2.07-2.214v-4.644h0.72v4.644C658.47,174.953,658.23,175.667,657.75,176.183z"/>
	<path d="M664.248,176.975c-1.104,0-2.022-0.366-2.754-1.098c-0.732-0.732-1.099-1.65-1.099-2.754s0.366-2.022,1.099-2.754
		c0.731-0.732,1.649-1.098,2.754-1.098c0.947,0,1.703,0.216,2.268,0.648v0.882l-0.468-0.306l-0.504-0.27
		c-0.456-0.156-0.889-0.234-1.296-0.234c-0.925,0-1.674,0.288-2.25,0.864c-0.588,0.588-0.882,1.344-0.882,2.268
		c0,0.912,0.294,1.662,0.882,2.25s1.338,0.882,2.25,0.882c0.863,0,1.62-0.288,2.268-0.864v0.918
		C665.844,176.753,665.088,176.975,664.248,176.975z"/>
	<path d="M667.703,172.961c0,1.008,0.27,1.806,0.81,2.394c0.564,0.6,1.338,0.9,2.322,0.9c0.504,0,0.96-0.083,1.368-0.252
		c0.516-0.216,0.978-0.654,1.386-1.314l0.666,0.306c-0.468,0.888-1.188,1.488-2.16,1.8c-0.372,0.12-0.792,0.18-1.26,0.18
		c-1.116,0-2.034-0.366-2.754-1.098c-0.732-0.732-1.098-1.65-1.098-2.754c0-1.116,0.359-2.034,1.08-2.754
		c0.731-0.732,1.655-1.098,2.771-1.098c1.104,0,2.017,0.342,2.736,1.026c0.731,0.684,1.098,1.572,1.098,2.664H667.703z
		 M672.78,170.603c-0.564-0.408-1.212-0.612-1.944-0.612c-1.536,0-2.544,0.756-3.023,2.268h6.029
		C673.721,171.575,673.367,171.023,672.78,170.603z"/>
	<path d="M679.89,170.495c-0.192-0.144-0.396-0.258-0.612-0.342c-0.216-0.083-0.444-0.126-0.684-0.126
		c-0.204,0-0.396,0.063-0.576,0.189c-0.18,0.126-0.336,0.282-0.468,0.468c-0.133,0.186-0.237,0.393-0.315,0.621
		s-0.117,0.438-0.117,0.63v4.896h-0.737v-7.434h0.737v1.008c0.156-0.276,0.36-0.528,0.612-0.756
		c0.252-0.228,0.527-0.342,0.828-0.342c0.372,0,0.678,0.042,0.918,0.126c0.239,0.084,0.51,0.234,0.81,0.45L679.89,170.495z"/>
	<path d="M681.041,172.961c0,1.008,0.27,1.806,0.81,2.394c0.564,0.6,1.338,0.9,2.322,0.9c0.504,0,0.96-0.083,1.368-0.252
		c0.516-0.216,0.978-0.654,1.386-1.314l0.666,0.306c-0.468,0.888-1.188,1.488-2.16,1.8c-0.372,0.12-0.792,0.18-1.26,0.18
		c-1.116,0-2.034-0.366-2.754-1.098c-0.732-0.732-1.098-1.65-1.098-2.754c0-1.116,0.359-2.034,1.08-2.754
		c0.731-0.732,1.655-1.098,2.771-1.098c1.104,0,2.017,0.342,2.736,1.026c0.731,0.684,1.098,1.572,1.098,2.664H681.041z
		 M686.117,170.603c-0.564-0.408-1.212-0.612-1.944-0.612c-1.536,0-2.544,0.756-3.023,2.268h6.029
		C687.059,171.575,686.705,171.023,686.117,170.603z"/>
</g>
</svg>
