<?xml version="1.0" encoding="utf-8"?>
<!-- Generator: Adobe Illustrator 15.1.0, SVG Export Plug-In . SVG Version: 6.00 Build 0)  -->
<!DOCTYPE svg PUBLIC "-//W3C//DTD SVG 1.1//EN" "http://www.w3.org/Graphics/SVG/1.1/DTD/svg11.dtd">
<svg version="1.1" id="Layer_1" xmlns="http://www.w3.org/2000/svg" xmlns:xlink="http://www.w3.org/1999/xlink" x="0px" y="0px"
	 width="868px" height="448px" viewBox="0 0 868 448" enable-background="new 0 0 868 448" xml:space="preserve">
<g>
	<path d="M245.94,196.369c-0.353,0.3-0.776,0.45-1.27,0.45c-0.847,0-1.481-0.384-1.905-1.151l0.463-0.278
		c0.15,0.273,0.331,0.485,0.542,0.635c0.22,0.167,0.52,0.251,0.899,0.251c0.829,0,1.244-0.353,1.244-1.059
		c0-0.309-0.146-0.577-0.437-0.807c-0.088-0.053-0.214-0.113-0.377-0.179c-0.164-0.066-0.364-0.143-0.602-0.231
		c-0.441-0.159-0.759-0.317-0.953-0.477c-0.282-0.229-0.423-0.56-0.423-0.992c0-0.37,0.141-0.688,0.423-0.952
		c0.273-0.273,0.63-0.41,1.072-0.41c0.608,0,1.125,0.211,1.548,0.635l-0.397,0.344c-0.3-0.3-0.684-0.45-1.151-0.45
		c-0.635,0-0.953,0.278-0.953,0.833c0,0.247,0.097,0.45,0.291,0.609c0.159,0.124,0.41,0.243,0.754,0.357
		c0.3,0.106,0.547,0.205,0.741,0.298c0.194,0.093,0.339,0.174,0.437,0.245c0.379,0.291,0.569,0.684,0.569,1.177
		C246.456,195.694,246.284,196.078,245.94,196.369z"/>
	<path d="M248.454,191.791v4.921h-0.542v-4.921h-0.741v-0.542h0.741v-2.395h0.542v2.395h1.27v0.542H248.454z"/>
	<path d="M254.91,196.712v-0.939c-0.574,0.688-1.301,1.032-2.183,1.032c-0.793,0-1.459-0.269-1.998-0.807
		c-0.547-0.547-0.82-1.217-0.82-2.011c0-0.794,0.269-1.459,0.807-1.998c0.547-0.547,1.217-0.82,2.011-0.82
		c0.873,0,1.601,0.344,2.183,1.032v-0.953h0.542v5.464H254.91z M254.341,192.373c-0.45-0.45-0.988-0.674-1.614-0.674
		c-0.635,0-1.173,0.22-1.614,0.661c-0.45,0.45-0.675,0.992-0.675,1.627c0,0.626,0.225,1.164,0.675,1.614s0.987,0.675,1.614,0.675
		c0.635,0,1.173-0.22,1.614-0.662c0.45-0.45,0.674-0.992,0.674-1.627C255.015,193.361,254.791,192.823,254.341,192.373z"/>
	<path d="M261.709,195.985c-0.547,0.547-1.217,0.82-2.011,0.82c-0.909,0-1.654-0.366-2.236-1.098v1.005h-0.542v-9.79h0.542v5.345
		c0.573-0.732,1.318-1.098,2.236-1.098c0.793,0,1.459,0.269,1.998,0.807c0.547,0.547,0.82,1.217,0.82,2.011
		C262.516,194.781,262.247,195.447,261.709,195.985z M261.312,192.373c-0.45-0.45-0.988-0.674-1.614-0.674
		c-0.635,0-1.173,0.22-1.614,0.661c-0.45,0.45-0.674,0.992-0.674,1.627c0,0.626,0.225,1.164,0.674,1.614
		c0.45,0.45,0.988,0.675,1.614,0.675c0.635,0,1.173-0.22,1.614-0.662c0.45-0.45,0.675-0.992,0.675-1.627
		C261.987,193.361,261.762,192.823,261.312,192.373z"/>
	<path d="M263.628,190.27c-0.097,0-0.199-0.04-0.304-0.119c-0.08-0.08-0.124-0.186-0.132-0.318c0-0.238,0.146-0.383,0.437-0.437
		c0.22,0,0.366,0.146,0.437,0.437C264.064,190.124,263.919,190.27,263.628,190.27z M263.35,196.712v-5.464h0.542v5.464H263.35z"/>
	<path d="M265.188,196.712v-9.79h0.529v9.79H265.188z"/>
	<path d="M267.279,190.27c-0.097,0-0.199-0.04-0.304-0.119c-0.08-0.08-0.124-0.186-0.132-0.318c0-0.238,0.146-0.383,0.437-0.437
		c0.22,0,0.366,0.146,0.437,0.437C267.715,190.124,267.57,190.27,267.279,190.27z M267.001,196.712v-5.464h0.542v5.464H267.001z"/>
	<path d="M271.287,192.056c-0.141-0.106-0.291-0.189-0.45-0.251c-0.159-0.062-0.326-0.092-0.502-0.092
		c-0.15,0-0.291,0.046-0.423,0.139s-0.247,0.208-0.344,0.344s-0.174,0.289-0.231,0.456c-0.058,0.168-0.086,0.322-0.086,0.463v3.598
		h-0.542v-5.464h0.542v0.741c0.115-0.203,0.265-0.388,0.45-0.556s0.388-0.251,0.608-0.251c0.273,0,0.499,0.031,0.675,0.093
		c0.176,0.062,0.375,0.172,0.595,0.331L271.287,192.056z"/>
	<path d="M272.134,193.868c0,0.741,0.198,1.328,0.595,1.759c0.415,0.441,0.983,0.662,1.707,0.662c0.371,0,0.706-0.062,1.005-0.185
		c0.379-0.159,0.719-0.481,1.019-0.966l0.49,0.225c-0.344,0.653-0.873,1.094-1.587,1.323c-0.273,0.088-0.582,0.132-0.926,0.132
		c-0.82,0-1.495-0.269-2.024-0.807c-0.538-0.538-0.807-1.212-0.807-2.024c0-0.82,0.265-1.495,0.794-2.024
		c0.538-0.538,1.217-0.807,2.037-0.807c0.812,0,1.482,0.251,2.011,0.754c0.538,0.503,0.807,1.156,0.807,1.958H272.134z
		 M275.865,192.135c-0.415-0.3-0.891-0.45-1.429-0.45c-1.129,0-1.87,0.556-2.223,1.667h4.432
		C276.557,192.85,276.297,192.444,275.865,192.135z"/>
	<path d="M283.101,196.712v-0.939c-0.574,0.688-1.301,1.032-2.183,1.032c-0.793,0-1.459-0.269-1.998-0.807
		c-0.547-0.547-0.82-1.217-0.82-2.011c0-0.794,0.269-1.459,0.807-1.998c0.547-0.547,1.217-0.82,2.011-0.82
		c0.873,0,1.601,0.344,2.183,1.032v-0.953h0.542v5.464H283.101z M282.532,192.373c-0.45-0.45-0.988-0.674-1.614-0.674
		c-0.635,0-1.173,0.22-1.614,0.661c-0.45,0.45-0.675,0.992-0.675,1.627c0,0.626,0.225,1.164,0.675,1.614s0.987,0.675,1.614,0.675
		c0.635,0,1.173-0.22,1.614-0.662c0.45-0.45,0.674-0.992,0.674-1.627C283.206,193.361,282.982,192.823,282.532,192.373z"/>
	<path d="M293.406,195.985c-0.547,0.547-1.217,0.82-2.011,0.82c-0.909,0-1.658-0.371-2.249-1.111v3.585h-0.542v-8.03h0.542v1.032
		c0.564-0.741,1.314-1.111,2.249-1.111c0.793,0,1.459,0.269,1.998,0.807c0.547,0.547,0.82,1.217,0.82,2.011
		C294.213,194.781,293.944,195.447,293.406,195.985z M293.009,192.373c-0.45-0.45-0.988-0.674-1.614-0.674
		c-0.635,0-1.173,0.22-1.614,0.661c-0.45,0.45-0.674,0.992-0.674,1.627c0,0.626,0.225,1.164,0.674,1.614s0.988,0.675,1.614,0.675
		c0.635,0,1.173-0.22,1.614-0.662c0.45-0.45,0.675-0.992,0.675-1.627C293.684,193.361,293.459,192.823,293.009,192.373z"/>
	<path d="M297.996,192.056c-0.141-0.106-0.291-0.189-0.45-0.251c-0.159-0.062-0.326-0.092-0.502-0.092
		c-0.15,0-0.291,0.046-0.423,0.139s-0.247,0.208-0.344,0.344s-0.174,0.289-0.231,0.456c-0.058,0.168-0.086,0.322-0.086,0.463v3.598
		h-0.542v-5.464h0.542v0.741c0.115-0.203,0.265-0.388,0.45-0.556s0.388-0.251,0.608-0.251c0.273,0,0.499,0.031,0.675,0.093
		c0.176,0.062,0.375,0.172,0.595,0.331L297.996,192.056z"/>
	<path d="M303.103,195.985c-0.547,0.547-1.217,0.82-2.011,0.82c-0.793,0-1.459-0.269-1.998-0.807
		c-0.547-0.547-0.82-1.217-0.82-2.011c0-0.785,0.273-1.451,0.82-1.998c0.538-0.556,1.204-0.833,1.998-0.833
		c0.785,0,1.451,0.273,1.998,0.82s0.82,1.217,0.82,2.011C303.91,194.781,303.641,195.447,303.103,195.985z M302.719,192.36
		c-0.441-0.45-0.984-0.675-1.627-0.675c-0.617,0-1.151,0.229-1.601,0.688c-0.459,0.459-0.688,0.997-0.688,1.614
		c0,0.626,0.225,1.164,0.675,1.614s0.987,0.675,1.614,0.675c0.635,0,1.173-0.22,1.614-0.662c0.45-0.45,0.674-0.992,0.674-1.627
		C303.381,193.343,303.16,192.801,302.719,192.36z"/>
	<path d="M309.916,195.985c-0.547,0.547-1.217,0.82-2.011,0.82c-0.909,0-1.654-0.366-2.236-1.098v1.005h-0.542v-9.79h0.542v5.345
		c0.573-0.732,1.318-1.098,2.236-1.098c0.793,0,1.459,0.269,1.998,0.807c0.547,0.547,0.82,1.217,0.82,2.011
		C310.723,194.781,310.453,195.447,309.916,195.985z M309.519,192.373c-0.45-0.45-0.988-0.674-1.614-0.674
		c-0.635,0-1.173,0.22-1.614,0.661c-0.45,0.45-0.674,0.992-0.674,1.627c0,0.626,0.225,1.164,0.674,1.614
		c0.45,0.45,0.988,0.675,1.614,0.675c0.635,0,1.173-0.22,1.614-0.662c0.45-0.45,0.675-0.992,0.675-1.627
		C310.194,193.361,309.969,192.823,309.519,192.373z"/>
	<path d="M311.98,196.712v-9.79h0.529v9.79H311.98z"/>
	<path d="M314.48,193.868c0,0.741,0.198,1.328,0.595,1.759c0.415,0.441,0.983,0.662,1.707,0.662c0.371,0,0.706-0.062,1.005-0.185
		c0.379-0.159,0.719-0.481,1.019-0.966l0.49,0.225c-0.344,0.653-0.873,1.094-1.587,1.323c-0.273,0.088-0.582,0.132-0.926,0.132
		c-0.82,0-1.495-0.269-2.024-0.807c-0.538-0.538-0.807-1.212-0.807-2.024c0-0.82,0.265-1.495,0.794-2.024
		c0.538-0.538,1.217-0.807,2.037-0.807c0.812,0,1.482,0.251,2.011,0.754c0.538,0.503,0.807,1.156,0.807,1.958H314.48z
		 M318.21,192.135c-0.415-0.3-0.891-0.45-1.429-0.45c-1.129,0-1.87,0.556-2.223,1.667h4.432
		C318.903,192.85,318.642,192.444,318.21,192.135z"/>
	<path d="M327.074,196.712v-3.771c0-0.335-0.11-0.626-0.331-0.873c-0.221-0.247-0.538-0.37-0.953-0.37
		c-0.855,0-1.283,0.415-1.283,1.243v3.771h-0.542v-3.771c0-0.37-0.124-0.666-0.37-0.886c-0.256-0.238-0.561-0.357-0.913-0.357
		c-0.362,0-0.666,0.115-0.913,0.344c-0.247,0.221-0.371,0.521-0.371,0.899v3.771h-0.542v-5.464h0.542v0.542
		c0.265-0.415,0.692-0.622,1.283-0.622c0.706,0,1.226,0.287,1.561,0.86c0.317-0.573,0.833-0.86,1.548-0.86
		c0.547,0,0.988,0.154,1.323,0.463c0.335,0.317,0.503,0.754,0.503,1.31v3.771H327.074z"/>
	<path d="M329.469,193.868c0,0.741,0.198,1.328,0.595,1.759c0.415,0.441,0.983,0.662,1.707,0.662c0.371,0,0.706-0.062,1.005-0.185
		c0.379-0.159,0.719-0.481,1.019-0.966l0.49,0.225c-0.344,0.653-0.873,1.094-1.587,1.323c-0.273,0.088-0.582,0.132-0.926,0.132
		c-0.82,0-1.495-0.269-2.024-0.807c-0.538-0.538-0.807-1.212-0.807-2.024c0-0.82,0.265-1.495,0.794-2.024
		c0.538-0.538,1.217-0.807,2.037-0.807c0.812,0,1.482,0.251,2.011,0.754c0.538,0.503,0.807,1.156,0.807,1.958H329.469z
		 M333.199,192.135c-0.415-0.3-0.891-0.45-1.429-0.45c-1.129,0-1.87,0.556-2.223,1.667h4.432
		C333.891,192.85,333.631,192.444,333.199,192.135z"/>
	<path d="M336.215,190.27c-0.097,0-0.199-0.04-0.304-0.119c-0.08-0.08-0.124-0.186-0.132-0.318c0-0.238,0.146-0.383,0.437-0.437
		c0.22,0,0.366,0.146,0.437,0.437C336.652,190.124,336.506,190.27,336.215,190.27z M335.937,196.712v-5.464h0.542v5.464H335.937z"/>
</g>
</svg>
