<?xml version="1.0" encoding="utf-8"?>
<!-- Generator: Adobe Illustrator 15.1.0, SVG Export Plug-In . SVG Version: 6.00 Build 0)  -->
<!DOCTYPE svg PUBLIC "-//W3C//DTD SVG 1.1//EN" "http://www.w3.org/Graphics/SVG/1.1/DTD/svg11.dtd">
<svg version="1.1" id="Layer_1" xmlns="http://www.w3.org/2000/svg" xmlns:xlink="http://www.w3.org/1999/xlink" x="0px" y="0px"
	 width="868px" height="448px" viewBox="0 0 868 448" enable-background="new 0 0 868 448" xml:space="preserve">
<g>
	<path d="M303.069,59.102c-1.104,0-2.022-0.365-2.754-1.098c-0.732-0.731-1.098-1.649-1.098-2.754c0-1.104,0.366-2.021,1.098-2.754
		c0.732-0.731,1.65-1.098,2.754-1.098c0.948,0,1.704,0.216,2.268,0.648v0.882l-0.468-0.306l-0.504-0.271
		c-0.457-0.155-0.888-0.233-1.296-0.233c-0.924,0-1.674,0.288-2.25,0.864c-0.588,0.588-0.882,1.344-0.882,2.268
		c0,0.912,0.294,1.662,0.882,2.25c0.587,0.588,1.338,0.882,2.25,0.882c0.864,0,1.62-0.288,2.268-0.864v0.918
		C304.665,58.88,303.908,59.102,303.069,59.102z"/>
	<path d="M306.525,55.088c0,1.008,0.27,1.807,0.81,2.395c0.564,0.6,1.338,0.899,2.322,0.899c0.504,0,0.96-0.084,1.368-0.252
		c0.516-0.216,0.978-0.653,1.386-1.313l0.666,0.306c-0.468,0.888-1.188,1.488-2.16,1.8c-0.372,0.12-0.792,0.18-1.26,0.18
		c-1.116,0-2.034-0.365-2.754-1.098c-0.732-0.731-1.098-1.649-1.098-2.754c0-1.116,0.36-2.034,1.08-2.754
		c0.732-0.731,1.656-1.098,2.772-1.098c1.104,0,2.016,0.342,2.736,1.026c0.731,0.685,1.098,1.572,1.098,2.664H306.525z
		 M311.601,52.73c-0.564-0.408-1.212-0.612-1.944-0.612c-1.536,0-2.544,0.756-3.024,2.268h6.03
		C312.543,53.702,312.188,53.15,311.601,52.73z"/>
	<path d="M318.711,52.622c-0.192-0.145-0.396-0.258-0.612-0.342s-0.444-0.126-0.684-0.126c-0.204,0-0.396,0.063-0.576,0.188
		c-0.18,0.126-0.336,0.282-0.468,0.468c-0.132,0.187-0.237,0.394-0.315,0.621c-0.078,0.229-0.117,0.438-0.117,0.63v4.896H315.2
		v-7.434h0.738v1.008c0.156-0.276,0.36-0.528,0.612-0.756c0.252-0.228,0.528-0.342,0.828-0.342c0.372,0,0.678,0.042,0.918,0.126
		c0.24,0.084,0.51,0.234,0.81,0.45L318.711,52.622z"/>
	<path d="M323.769,59.102c-1.104,0-2.022-0.365-2.754-1.098c-0.732-0.731-1.098-1.649-1.098-2.754c0-1.104,0.366-2.021,1.098-2.754
		c0.732-0.731,1.65-1.098,2.754-1.098c0.948,0,1.704,0.216,2.268,0.648v0.882l-0.468-0.306l-0.504-0.271
		c-0.457-0.155-0.888-0.233-1.296-0.233c-0.924,0-1.674,0.288-2.25,0.864c-0.588,0.588-0.882,1.344-0.882,2.268
		c0,0.912,0.294,1.662,0.882,2.25c0.587,0.588,1.338,0.882,2.25,0.882c0.864,0,1.62-0.288,2.268-0.864v0.918
		C325.365,58.88,324.608,59.102,323.769,59.102z"/>
	<path d="M327.225,55.088c0,1.008,0.27,1.807,0.81,2.395c0.564,0.6,1.338,0.899,2.322,0.899c0.504,0,0.96-0.084,1.368-0.252
		c0.516-0.216,0.978-0.653,1.386-1.313l0.666,0.306c-0.468,0.888-1.188,1.488-2.16,1.8c-0.372,0.12-0.792,0.18-1.26,0.18
		c-1.116,0-2.034-0.365-2.754-1.098c-0.732-0.731-1.098-1.649-1.098-2.754c0-1.116,0.36-2.034,1.08-2.754
		c0.732-0.731,1.656-1.098,2.772-1.098c1.104,0,2.016,0.342,2.736,1.026c0.731,0.685,1.098,1.572,1.098,2.664H327.225z
		 M332.301,52.73c-0.564-0.408-1.212-0.612-1.944-0.612c-1.536,0-2.544,0.756-3.024,2.268h6.03
		C333.243,53.702,332.888,53.15,332.301,52.73z"/>
	<path d="M336.171,52.262v6.696h-0.738v-6.696h-1.008v-0.738h1.008v-3.258h0.738v3.258h1.728v0.738H336.171z"/>
	<path d="M344.955,58.958V57.68c-0.78,0.937-1.771,1.404-2.97,1.404c-1.08,0-1.986-0.366-2.718-1.098
		c-0.744-0.744-1.116-1.656-1.116-2.736s0.366-1.986,1.098-2.718c0.744-0.744,1.656-1.116,2.736-1.116
		c1.188,0,2.178,0.468,2.97,1.404v-1.296h0.738v7.434H344.955z M344.181,53.054c-0.612-0.611-1.344-0.918-2.196-0.918
		c-0.864,0-1.596,0.301-2.196,0.9c-0.612,0.612-0.918,1.35-0.918,2.214c0,0.853,0.306,1.584,0.918,2.196
		c0.612,0.611,1.344,0.918,2.196,0.918c0.864,0,1.596-0.3,2.196-0.9c0.612-0.612,0.918-1.35,0.918-2.214
		C345.099,54.398,344.793,53.666,344.181,53.054z"/>
	<path d="M351.399,52.622c-0.192-0.145-0.396-0.258-0.612-0.342s-0.444-0.126-0.684-0.126c-0.204,0-0.396,0.063-0.576,0.188
		c-0.18,0.126-0.336,0.282-0.468,0.468c-0.132,0.187-0.237,0.394-0.315,0.621c-0.078,0.229-0.117,0.438-0.117,0.63v4.896h-0.738
		v-7.434h0.738v1.008c0.156-0.276,0.36-0.528,0.612-0.756c0.252-0.228,0.528-0.342,0.828-0.342c0.372,0,0.678,0.042,0.918,0.126
		c0.24,0.084,0.51,0.234,0.81,0.45L351.399,52.622z"/>
	<path d="M352.551,55.088c0,1.008,0.27,1.807,0.81,2.395c0.564,0.6,1.338,0.899,2.322,0.899c0.504,0,0.96-0.084,1.368-0.252
		c0.516-0.216,0.978-0.653,1.386-1.313l0.666,0.306c-0.468,0.888-1.188,1.488-2.16,1.8c-0.372,0.12-0.792,0.18-1.26,0.18
		c-1.116,0-2.034-0.365-2.754-1.098c-0.732-0.731-1.098-1.649-1.098-2.754c0-1.116,0.36-2.034,1.08-2.754
		c0.732-0.731,1.656-1.098,2.772-1.098c1.104,0,2.016,0.342,2.736,1.026c0.731,0.685,1.098,1.572,1.098,2.664H352.551z
		 M357.627,52.73c-0.564-0.408-1.212-0.612-1.944-0.612c-1.536,0-2.544,0.756-3.024,2.268h6.03
		C358.569,53.702,358.214,53.15,357.627,52.73z"/>
</g>
</svg>
