<?xml version="1.0" encoding="utf-8"?>
<!-- Generator: Adobe Illustrator 15.1.0, SVG Export Plug-In . SVG Version: 6.00 Build 0)  -->
<!DOCTYPE svg PUBLIC "-//W3C//DTD SVG 1.1//EN" "http://www.w3.org/Graphics/SVG/1.1/DTD/svg11.dtd">
<svg version="1.1" id="Layer_1" xmlns="http://www.w3.org/2000/svg" xmlns:xlink="http://www.w3.org/1999/xlink" x="0px" y="0px"
	 width="868px" height="448px" viewBox="0 0 868 448" enable-background="new 0 0 868 448" xml:space="preserve">
<g>
	<g enable-background="new    ">
		<path d="M220.197,109.442c-0.747,0.731-1.666,1.097-2.753,1.097c-1.242,0-2.264-0.49-3.061-1.469v1.345h-0.743V97.319h0.743v7.149
			c0.785-0.979,1.805-1.469,3.061-1.469c1.087,0,1.999,0.36,2.735,1.08c0.749,0.731,1.123,1.628,1.123,2.69
			S220.933,108.722,220.197,109.442z M219.653,104.61c-0.614-0.602-1.352-0.902-2.209-0.902c-0.867,0-1.604,0.295-2.209,0.885
			c-0.614,0.602-0.924,1.327-0.924,2.177c0,0.838,0.31,1.557,0.924,2.159c0.616,0.602,1.354,0.902,2.209,0.902
			c0.87,0,1.606-0.295,2.209-0.885c0.616-0.602,0.926-1.327,0.926-2.177C220.577,105.932,220.269,105.212,219.653,104.61z"/>
		<path d="M226.735,104.186c-0.191-0.142-0.396-0.253-0.614-0.336c-0.22-0.083-0.447-0.124-0.688-0.124
			c-0.205,0-0.396,0.062-0.58,0.186c-0.181,0.124-0.338,0.277-0.471,0.46s-0.239,0.387-0.317,0.61
			c-0.079,0.225-0.118,0.431-0.118,0.62v4.813h-0.741v-7.309h0.741v0.991c0.157-0.271,0.362-0.519,0.616-0.743
			s0.531-0.336,0.833-0.336c0.374,0,0.684,0.042,0.924,0.124c0.241,0.083,0.515,0.23,0.815,0.442L226.735,104.186z"/>
		<path d="M234.74,110.415v-1.256c-0.785,0.92-1.781,1.38-2.988,1.38c-1.087,0-1.999-0.36-2.735-1.08
			c-0.749-0.731-1.123-1.628-1.123-2.69s0.368-1.953,1.105-2.672c0.749-0.731,1.666-1.097,2.753-1.097
			c1.193,0,2.189,0.46,2.988,1.38v-1.274h0.741v7.309H234.74z M233.961,104.61c-0.616-0.602-1.354-0.902-2.209-0.902
			c-0.87,0-1.606,0.295-2.209,0.885c-0.616,0.602-0.924,1.327-0.924,2.177c0,0.838,0.308,1.557,0.924,2.159s1.352,0.902,2.209,0.902
			c0.869,0,1.604-0.295,2.209-0.885c0.616-0.602,0.924-1.327,0.924-2.177C234.885,105.932,234.577,105.212,233.961,104.61z"/>
		<path d="M238.199,101.796c-0.135,0-0.272-0.053-0.417-0.159c-0.108-0.106-0.171-0.248-0.183-0.425c0-0.318,0.199-0.513,0.6-0.584
			c0.301,0,0.5,0.195,0.598,0.584C238.797,101.602,238.598,101.796,238.199,101.796z M237.819,110.415v-7.309h0.742v7.309H237.819z"
			/>
		<path d="M245.19,110.415v-4.371c0-1.545-0.712-2.318-2.137-2.318c-0.701,0-1.232,0.201-1.594,0.602
			c-0.375,0.401-0.563,0.95-0.563,1.646v4.442h-0.743v-7.309h0.743v0.885c0.338-0.649,1.058-0.974,2.155-0.974
			c0.93,0,1.642,0.26,2.137,0.779s0.743,1.245,0.743,2.177v4.442L245.19,110.415L245.19,110.415z"/>
		<path d="M252,109.955c-0.483,0.401-1.063,0.602-1.739,0.602c-1.159,0-2.028-0.513-2.608-1.54l0.636-0.372
			c0.205,0.366,0.453,0.649,0.741,0.849c0.303,0.225,0.714,0.336,1.231,0.336c1.135,0,1.702-0.472,1.702-1.416
			c0-0.413-0.199-0.772-0.6-1.079c-0.119-0.071-0.292-0.15-0.516-0.239c-0.224-0.088-0.498-0.191-0.824-0.31
			c-0.604-0.212-1.039-0.425-1.304-0.637c-0.387-0.307-0.58-0.749-0.58-1.327c0-0.496,0.193-0.92,0.58-1.274
			c0.374-0.366,0.863-0.549,1.467-0.549c0.833,0,1.54,0.283,2.119,0.85l-0.543,0.46c-0.41-0.401-0.936-0.602-1.576-0.602
			c-0.869,0-1.304,0.372-1.304,1.115c0,0.331,0.133,0.602,0.396,0.814c0.219,0.166,0.563,0.325,1.032,0.479
			c0.41,0.142,0.749,0.274,1.016,0.396c0.266,0.124,0.465,0.233,0.598,0.328c0.519,0.389,0.779,0.915,0.779,1.575
			C252.706,109.052,252.47,109.565,252,109.955z"/>
		<path d="M255.441,103.832v6.583h-0.743v-6.583h-1.014v-0.726h1.014v-3.203h0.743v3.203h1.739v0.726H255.441z"/>
		<path d="M264.026,109.442c-0.749,0.731-1.667,1.097-2.753,1.097c-1.087,0-1.999-0.36-2.733-1.08
			c-0.749-0.731-1.123-1.628-1.123-2.69c0-1.05,0.374-1.94,1.123-2.672c0.734-0.743,1.646-1.115,2.733-1.115
			c1.074,0,1.986,0.366,2.735,1.097c0.748,0.731,1.123,1.628,1.123,2.69C265.13,107.831,264.762,108.722,264.026,109.442z
			 M263.5,104.593c-0.604-0.602-1.349-0.903-2.229-0.903c-0.845,0-1.576,0.307-2.189,0.92c-0.628,0.614-0.942,1.333-0.942,2.159
			c0,0.838,0.308,1.557,0.924,2.159c0.616,0.602,1.354,0.902,2.209,0.902c0.869,0,1.605-0.295,2.209-0.885
			c0.616-0.602,0.926-1.327,0.926-2.177C264.406,105.908,264.104,105.183,263.5,104.593z"/>
		<path d="M270.527,104.186c-0.191-0.142-0.396-0.253-0.614-0.336c-0.22-0.083-0.447-0.124-0.688-0.124
			c-0.205,0-0.396,0.062-0.58,0.186c-0.181,0.124-0.338,0.277-0.471,0.46s-0.239,0.387-0.317,0.61
			c-0.079,0.225-0.118,0.431-0.118,0.62v4.813h-0.741v-7.309h0.741v0.991c0.157-0.271,0.362-0.519,0.616-0.743
			s0.531-0.336,0.833-0.336c0.374,0,0.684,0.042,0.924,0.124c0.241,0.083,0.515,0.23,0.815,0.442L270.527,104.186z"/>
		<path d="M281.122,110.415v-5.043c0-0.448-0.151-0.838-0.453-1.168c-0.302-0.331-0.737-0.496-1.304-0.496
			c-1.173,0-1.759,0.555-1.759,1.664v5.043h-0.74v-5.043c0-0.496-0.171-0.891-0.509-1.186c-0.35-0.318-0.767-0.478-1.25-0.478
			c-0.496,0-0.911,0.153-1.25,0.46c-0.338,0.295-0.507,0.696-0.507,1.204v5.043h-0.743v-7.309h0.743v0.726
			c0.362-0.554,0.948-0.832,1.757-0.832c0.968,0,1.68,0.383,2.139,1.15c0.435-0.767,1.141-1.15,2.119-1.15
			c0.747,0,1.352,0.207,1.811,0.62c0.459,0.424,0.688,1.008,0.688,1.752v5.043H281.122L281.122,110.415z"/>
	</g>
</g>
</svg>
