<?xml version="1.0" encoding="utf-8"?>
<!-- Generator: Adobe Illustrator 15.1.0, SVG Export Plug-In . SVG Version: 6.00 Build 0)  -->
<!DOCTYPE svg PUBLIC "-//W3C//DTD SVG 1.1//EN" "http://www.w3.org/Graphics/SVG/1.1/DTD/svg11.dtd">
<svg version="1.1" id="Layer_1" xmlns="http://www.w3.org/2000/svg" xmlns:xlink="http://www.w3.org/1999/xlink" x="0px" y="0px"
	 width="868px" height="448px" viewBox="0 0 868 448" enable-background="new 0 0 868 448" xml:space="preserve">
<g>
	<path d="M427.536,136.894c-0.92,0-1.685-0.305-2.295-0.915c-0.61-0.61-0.915-1.375-0.915-2.295s0.305-1.686,0.915-2.295
		c0.61-0.61,1.375-0.915,2.295-0.915c0.79,0,1.42,0.18,1.89,0.54v0.734l-0.39-0.255l-0.42-0.225c-0.38-0.13-0.74-0.195-1.08-0.195
		c-0.77,0-1.395,0.24-1.875,0.72c-0.49,0.49-0.735,1.12-0.735,1.891c0,0.76,0.245,1.385,0.735,1.875
		c0.49,0.49,1.115,0.734,1.875,0.734c0.72,0,1.35-0.239,1.89-0.72v0.766C428.865,136.709,428.236,136.894,427.536,136.894z"/>
	<path d="M435.455,136.774v-1.065c-0.65,0.78-1.475,1.171-2.475,1.171c-0.9,0-1.655-0.306-2.265-0.915
		c-0.62-0.62-0.93-1.381-0.93-2.28c0-0.9,0.305-1.655,0.915-2.266c0.62-0.619,1.38-0.93,2.28-0.93c0.99,0,1.814,0.391,2.475,1.17
		v-1.08h0.615v6.195H435.455z M434.811,131.854c-0.51-0.51-1.121-0.765-1.83-0.765c-0.72,0-1.33,0.25-1.83,0.75
		c-0.51,0.51-0.765,1.125-0.765,1.845c0,0.71,0.255,1.32,0.765,1.83c0.51,0.51,1.12,0.765,1.83,0.765c0.72,0,1.33-0.25,1.83-0.75
		c0.51-0.51,0.765-1.125,0.765-1.845C435.575,132.974,435.321,132.364,434.811,131.854z"/>
	<path d="M440.256,126.289l-0.405-0.045c-0.56,0-0.84,0.33-0.84,0.99v3.345h1.47v0.615h-1.47v5.58h-0.615v-5.58h-0.84v-0.615h0.84
		v-3.525c0-0.95,0.479-1.425,1.44-1.425c0.22,0,0.359,0.01,0.42,0.03c0.119,0,0.255,0.035,0.404,0.105v0.615L440.256,126.289z"/>
	<path d="M441.321,133.549c0,0.84,0.225,1.505,0.676,1.994c0.469,0.501,1.114,0.75,1.935,0.75c0.42,0,0.8-0.069,1.14-0.21
		c0.43-0.18,0.814-0.545,1.155-1.095l0.555,0.255c-0.39,0.74-0.989,1.24-1.8,1.5c-0.311,0.101-0.66,0.15-1.05,0.15
		c-0.931,0-1.695-0.305-2.296-0.915c-0.609-0.61-0.914-1.375-0.914-2.295c0-0.93,0.3-1.695,0.9-2.295
		c0.609-0.61,1.379-0.915,2.31-0.915c0.92,0,1.68,0.285,2.28,0.854c0.609,0.57,0.914,1.311,0.914,2.221H441.321z M445.551,131.583
		c-0.471-0.34-1.01-0.51-1.62-0.51c-1.28,0-2.12,0.63-2.521,1.891h5.025C446.336,132.394,446.041,131.934,445.551,131.583z"/>
	<path d="M453.755,136.774v-1.065c-0.649,0.78-1.476,1.171-2.475,1.171c-0.9,0-1.655-0.306-2.265-0.915
		c-0.621-0.62-0.931-1.381-0.931-2.28c0-0.9,0.306-1.655,0.915-2.266c0.62-0.619,1.38-0.93,2.28-0.93
		c0.989,0,1.815,0.391,2.475,1.17v-1.08h0.615v6.195H453.755z M453.11,131.854c-0.51-0.51-1.119-0.765-1.829-0.765
		c-0.72,0-1.33,0.25-1.83,0.75c-0.511,0.51-0.765,1.125-0.765,1.845c0,0.71,0.254,1.32,0.765,1.83c0.51,0.51,1.12,0.765,1.83,0.765
		c0.72,0,1.329-0.25,1.829-0.75c0.511-0.51,0.766-1.125,0.766-1.845C453.875,132.974,453.62,132.364,453.11,131.854z"/>
</g>
</svg>
