<?xml version="1.0" encoding="utf-8"?>
<!-- Generator: Adobe Illustrator 15.1.0, SVG Export Plug-In . SVG Version: 6.00 Build 0)  -->
<!DOCTYPE svg PUBLIC "-//W3C//DTD SVG 1.1//EN" "http://www.w3.org/Graphics/SVG/1.1/DTD/svg11.dtd">
<svg version="1.1" id="Layer_1" xmlns="http://www.w3.org/2000/svg" xmlns:xlink="http://www.w3.org/1999/xlink" x="0px" y="0px"
	 width="868px" height="448px" viewBox="0 0 868 448" enable-background="new 0 0 868 448" xml:space="preserve">
<g>
	<path d="M527.506,216.937c-1.105,0-2.023-0.365-2.755-1.098c-0.731-0.731-1.098-1.649-1.098-2.754c0-1.104,0.366-2.021,1.098-2.754
		c0.731-0.731,1.649-1.098,2.755-1.098c0.947,0,1.703,0.216,2.268,0.648v0.882l-0.469-0.306l-0.504-0.271
		c-0.456-0.155-0.888-0.233-1.295-0.233c-0.925,0-1.675,0.288-2.25,0.864c-0.589,0.588-0.883,1.344-0.883,2.268
		c0,0.912,0.294,1.662,0.883,2.25c0.587,0.588,1.338,0.882,2.25,0.882c0.863,0,1.619-0.288,2.268-0.864v0.918
		C529.102,216.715,528.345,216.937,527.506,216.937z"/>
	<path d="M536.776,215.803c-0.744,0.744-1.656,1.116-2.736,1.116s-1.986-0.366-2.718-1.098c-0.744-0.744-1.116-1.656-1.116-2.736
		c0-1.068,0.372-1.974,1.116-2.718c0.731-0.756,1.638-1.134,2.718-1.134c1.068,0,1.975,0.373,2.719,1.116
		c0.743,0.744,1.115,1.656,1.115,2.736S537.507,215.072,536.776,215.803z M536.254,210.872c-0.602-0.612-1.339-0.918-2.215-0.918
		c-0.84,0-1.566,0.313-2.178,0.936c-0.624,0.624-0.936,1.356-0.936,2.196c0,0.853,0.305,1.584,0.918,2.196
		c0.611,0.611,1.344,0.918,2.195,0.918c0.864,0,1.596-0.3,2.196-0.9c0.612-0.612,0.918-1.35,0.918-2.214
		C537.154,212.209,536.854,211.471,536.254,210.872z"/>
	<path d="M544.731,216.793v-4.446c0-1.571-0.708-2.357-2.124-2.357c-0.696,0-1.224,0.204-1.584,0.611
		c-0.372,0.408-0.558,0.967-0.558,1.675v4.518h-0.738v-7.434h0.738v0.9c0.336-0.659,1.05-0.99,2.142-0.99
		c0.924,0,1.632,0.264,2.124,0.792c0.492,0.528,0.738,1.267,0.738,2.215v4.518H544.731z"/>
	<path d="M551.356,216.937c-1.105,0-2.023-0.365-2.755-1.098c-0.731-0.731-1.098-1.649-1.098-2.754c0-1.104,0.366-2.021,1.098-2.754
		c0.731-0.731,1.649-1.098,2.755-1.098c0.947,0,1.703,0.216,2.268,0.648v0.882l-0.469-0.306l-0.504-0.271
		c-0.456-0.155-0.888-0.233-1.295-0.233c-0.925,0-1.675,0.288-2.25,0.864c-0.589,0.588-0.883,1.344-0.883,2.268
		c0,0.912,0.294,1.662,0.883,2.25c0.587,0.588,1.338,0.882,2.25,0.882c0.863,0,1.619-0.288,2.268-0.864v0.918
		C552.951,216.715,552.195,216.937,551.356,216.937z"/>
	<path d="M554.811,212.923c0,1.008,0.27,1.807,0.811,2.395c0.563,0.6,1.338,0.899,2.321,0.899c0.504,0,0.96-0.084,1.368-0.252
		c0.516-0.216,0.979-0.653,1.386-1.313l0.666,0.306c-0.468,0.888-1.188,1.488-2.159,1.8c-0.373,0.12-0.793,0.18-1.261,0.18
		c-1.116,0-2.034-0.365-2.754-1.098c-0.731-0.731-1.099-1.649-1.099-2.754c0-1.116,0.361-2.034,1.08-2.754
		c0.732-0.731,1.656-1.098,2.772-1.098c1.104,0,2.017,0.342,2.736,1.026c0.731,0.685,1.098,1.572,1.098,2.664H554.811z
		 M559.887,210.566c-0.564-0.408-1.213-0.612-1.944-0.612c-1.536,0-2.544,0.756-3.024,2.268h6.031
		C560.828,211.538,560.475,210.986,559.887,210.566z"/>
	<path d="M569.985,215.803c-0.744,0.744-1.656,1.116-2.736,1.116c-1.236,0-2.256-0.504-3.06-1.512v4.878h-0.738v-10.926h0.738v1.404
		c0.768-1.008,1.788-1.512,3.06-1.512c1.08,0,1.986,0.366,2.719,1.098c0.744,0.744,1.115,1.656,1.115,2.736
		S570.717,215.072,569.985,215.803z M569.445,210.889c-0.612-0.611-1.345-0.918-2.196-0.918c-0.863,0-1.596,0.301-2.195,0.9
		c-0.612,0.612-0.918,1.35-0.918,2.214c0,0.853,0.306,1.584,0.918,2.196c0.611,0.611,1.344,0.918,2.195,0.918
		c0.864,0,1.596-0.3,2.196-0.9c0.612-0.612,0.918-1.35,0.918-2.214C570.363,212.234,570.057,211.501,569.445,210.889z"/>
	<path d="M573.836,210.097v6.696h-0.738v-6.696h-1.008v-0.738h1.008v-3.258h0.738v3.258h1.729v0.738H573.836z"/>
	<path d="M577.365,212.923c0,1.008,0.271,1.807,0.81,2.395c0.564,0.6,1.338,0.899,2.322,0.899c0.504,0,0.96-0.084,1.368-0.252
		c0.516-0.216,0.978-0.653,1.386-1.313l0.666,0.306c-0.468,0.888-1.188,1.488-2.16,1.8c-0.371,0.12-0.791,0.18-1.26,0.18
		c-1.115,0-2.033-0.365-2.754-1.098c-0.732-0.731-1.098-1.649-1.098-2.754c0-1.116,0.359-2.034,1.08-2.754
		c0.731-0.731,1.656-1.098,2.771-1.098c1.104,0,2.016,0.342,2.736,1.026c0.731,0.685,1.098,1.572,1.098,2.664H577.365z
		 M582.441,210.566c-0.564-0.408-1.212-0.612-1.944-0.612c-1.536,0-2.544,0.756-3.023,2.268h6.029
		C583.383,211.538,583.028,210.986,582.441,210.566z"/>
	<path d="M594.283,216.326c-0.479,0.408-1.055,0.611-1.728,0.611c-1.151,0-2.016-0.521-2.592-1.565l0.63-0.378
		c0.204,0.372,0.45,0.66,0.738,0.864c0.3,0.228,0.708,0.342,1.224,0.342c1.128,0,1.692-0.48,1.692-1.44
		c0-0.42-0.198-0.785-0.594-1.098c-0.121-0.072-0.291-0.153-0.514-0.243c-0.222-0.09-0.494-0.195-0.818-0.315
		c-0.601-0.216-1.033-0.432-1.297-0.647c-0.384-0.313-0.576-0.762-0.576-1.351c0-0.504,0.192-0.936,0.576-1.296
		c0.373-0.372,0.858-0.558,1.459-0.558c0.828,0,1.529,0.288,2.105,0.864l-0.54,0.468c-0.408-0.408-0.931-0.612-1.565-0.612
		c-0.864,0-1.297,0.378-1.297,1.134c0,0.337,0.133,0.612,0.396,0.828c0.216,0.169,0.559,0.33,1.025,0.486
		c0.408,0.144,0.744,0.279,1.008,0.405c0.265,0.126,0.463,0.237,0.595,0.333c0.516,0.396,0.774,0.93,0.774,1.602
		C594.987,215.408,594.752,215.929,594.283,216.326z"/>
	<path d="M597.092,208.027c-0.133,0-0.271-0.054-0.414-0.162c-0.108-0.108-0.168-0.252-0.18-0.432c0-0.324,0.197-0.522,0.594-0.594
		c0.299,0,0.498,0.198,0.594,0.594C597.686,207.83,597.488,208.027,597.092,208.027z M596.713,216.793v-7.434h0.738v7.434H596.713z"
		/>
	<path d="M524.499,223.028c-0.132,0-0.271-0.055-0.414-0.162c-0.108-0.108-0.168-0.252-0.18-0.433c0-0.323,0.198-0.521,0.594-0.594
		c0.3,0,0.498,0.198,0.595,0.594C525.094,222.83,524.895,223.028,524.499,223.028z M524.121,231.793v-7.433h0.738v7.433H524.121z"/>
	<path d="M532.852,231.793v-1.332c-0.793,0.973-1.801,1.459-3.024,1.459c-1.08,0-1.986-0.367-2.718-1.098
		c-0.744-0.744-1.116-1.656-1.116-2.736s0.366-1.986,1.099-2.719c0.743-0.744,1.655-1.116,2.735-1.116
		c1.188,0,2.196,0.487,3.024,1.458v-7.236h0.738v13.32H532.852z M532.024,225.889c-0.612-0.611-1.344-0.918-2.196-0.918
		c-0.864,0-1.597,0.301-2.196,0.9c-0.611,0.613-0.918,1.35-0.918,2.215c0,0.852,0.307,1.584,0.918,2.195
		c0.612,0.611,1.344,0.918,2.196,0.918c0.864,0,1.596-0.299,2.196-0.9c0.611-0.611,0.918-1.35,0.918-2.213
		C532.942,227.234,532.635,226.502,532.024,225.889z"/>
	<path d="M535.93,227.924c0,1.008,0.27,1.807,0.81,2.395c0.563,0.6,1.338,0.898,2.321,0.898c0.504,0,0.961-0.084,1.369-0.252
		c0.516-0.215,0.978-0.652,1.385-1.313l0.666,0.305c-0.467,0.889-1.188,1.488-2.159,1.801c-0.372,0.119-0.792,0.18-1.261,0.18
		c-1.115,0-2.033-0.365-2.754-1.098c-0.731-0.732-1.098-1.65-1.098-2.754c0-1.117,0.36-2.035,1.08-2.754
		c0.732-0.732,1.656-1.098,2.771-1.098c1.104,0,2.017,0.342,2.736,1.026c0.732,0.684,1.098,1.572,1.098,2.664H535.93z
		 M541.006,225.566c-0.564-0.408-1.213-0.613-1.945-0.613c-1.535,0-2.543,0.756-3.023,2.268h6.03
		C541.948,226.537,541.593,225.986,541.006,225.566z"/>
	<path d="M545.11,223.028c-0.133,0-0.271-0.055-0.414-0.162c-0.108-0.108-0.168-0.252-0.18-0.433c0-0.323,0.197-0.521,0.594-0.594
		c0.299,0,0.498,0.198,0.594,0.594C545.703,222.83,545.505,223.028,545.11,223.028z M544.731,231.793v-7.433h0.738v7.433H544.731z"
		/>
	<path d="M553.01,223.028c-0.132,0-0.27-0.055-0.414-0.162c-0.107-0.108-0.168-0.252-0.18-0.433c0-0.323,0.198-0.521,0.594-0.594
		c0.301,0,0.498,0.198,0.595,0.594C553.605,222.83,553.406,223.028,553.01,223.028z M552.633,231.793v-7.433h0.737v7.433H552.633z"
		/>
	<path d="M559.959,231.793v-4.445c0-1.572-0.709-2.357-2.125-2.357c-0.695,0-1.223,0.203-1.584,0.611
		c-0.371,0.408-0.558,0.967-0.558,1.674v4.518h-0.737v-7.433h0.737v0.9c0.336-0.66,1.05-0.991,2.142-0.991
		c0.924,0,1.633,0.264,2.125,0.792c0.492,0.529,0.738,1.268,0.738,2.215v4.518H559.959z"/>
	<path d="M562.641,223.028c-0.133,0-0.27-0.055-0.414-0.162c-0.107-0.108-0.168-0.252-0.18-0.433c0-0.323,0.197-0.521,0.594-0.594
		c0.3,0,0.498,0.198,0.594,0.594C563.235,222.83,563.037,223.028,562.641,223.028z M562.263,231.793v-7.433H563v7.433H562.263z"/>
	<path d="M566.565,225.098v6.695h-0.738v-6.695h-1.008v-0.738h1.008v-3.259h0.738v3.259h1.729v0.738H566.565z"/>
	<path d="M570.452,223.028c-0.132,0-0.271-0.055-0.414-0.162c-0.108-0.108-0.168-0.252-0.18-0.433c0-0.323,0.198-0.521,0.594-0.594
		c0.3,0,0.498,0.198,0.595,0.594C571.047,222.83,570.848,223.028,570.452,223.028z M570.074,231.793v-7.433h0.738v7.433H570.074z"/>
	<path d="M579.506,231.793v-1.277c-0.779,0.936-1.77,1.404-2.97,1.404c-1.08,0-1.985-0.367-2.718-1.098
		c-0.744-0.744-1.116-1.656-1.116-2.736s0.366-1.986,1.099-2.719c0.743-0.744,1.655-1.116,2.735-1.116
		c1.188,0,2.179,0.467,2.97,1.405v-1.296h0.738v7.433H579.506z M578.733,225.889c-0.612-0.611-1.344-0.918-2.196-0.918
		c-0.864,0-1.597,0.301-2.196,0.9c-0.611,0.613-0.918,1.35-0.918,2.215c0,0.852,0.307,1.584,0.918,2.195
		c0.612,0.611,1.344,0.918,2.196,0.918c0.864,0,1.596-0.299,2.196-0.9c0.611-0.611,0.918-1.35,0.918-2.213
		C579.651,227.234,579.344,226.502,578.733,225.889z"/>
	<path d="M582.639,231.793v-13.32h0.72v13.32H582.639z"/>
	<path d="M586.04,227.924c0,1.008,0.271,1.807,0.81,2.395c0.564,0.6,1.338,0.898,2.322,0.898c0.504,0,0.96-0.084,1.368-0.252
		c0.516-0.215,0.978-0.652,1.386-1.313l0.666,0.305c-0.468,0.889-1.188,1.488-2.16,1.801c-0.371,0.119-0.791,0.18-1.26,0.18
		c-1.115,0-2.033-0.365-2.754-1.098c-0.732-0.732-1.098-1.65-1.098-2.754c0-1.117,0.359-2.035,1.08-2.754
		c0.731-0.732,1.656-1.098,2.771-1.098c1.104,0,2.016,0.342,2.736,1.026c0.731,0.684,1.098,1.572,1.098,2.664H586.04z
		 M591.116,225.566c-0.564-0.408-1.212-0.613-1.944-0.613c-1.536,0-2.544,0.756-3.023,2.268h6.029
		C592.059,226.537,591.703,225.986,591.116,225.566z"/>
</g>
</svg>
