<?xml version="1.0" encoding="utf-8"?>
<!-- Generator: Adobe Illustrator 15.1.0, SVG Export Plug-In . SVG Version: 6.00 Build 0)  -->
<!DOCTYPE svg PUBLIC "-//W3C//DTD SVG 1.1//EN" "http://www.w3.org/Graphics/SVG/1.1/DTD/svg11.dtd">
<svg version="1.1" id="Layer_1" xmlns="http://www.w3.org/2000/svg" xmlns:xlink="http://www.w3.org/1999/xlink" x="0px" y="0px"
	 width="868px" height="448px" viewBox="0 0 868 448" enable-background="new 0 0 868 448" xml:space="preserve">
<g>
	<path d="M451.948,294.322v-3.52c0-0.313-0.103-0.585-0.309-0.815s-0.502-0.346-0.889-0.346c-0.799,0-1.198,0.387-1.198,1.161v3.52
		h-0.506v-3.52c0-0.346-0.116-0.622-0.347-0.827c-0.238-0.223-0.522-0.334-0.852-0.334c-0.338,0-0.622,0.107-0.853,0.321
		c-0.23,0.206-0.346,0.485-0.346,0.84v3.52h-0.506v-5.101h0.506v0.507c0.247-0.388,0.646-0.581,1.198-0.581
		c0.658,0,1.145,0.268,1.457,0.803c0.297-0.535,0.778-0.803,1.445-0.803c0.51,0,0.922,0.145,1.234,0.433
		c0.313,0.296,0.47,0.704,0.47,1.223v3.52H451.948z"/>
	<path d="M458.37,294.322v-0.877c-0.535,0.643-1.215,0.964-2.038,0.964c-0.741,0-1.362-0.252-1.864-0.754
		c-0.511-0.511-0.766-1.136-0.766-1.877s0.251-1.362,0.753-1.865c0.511-0.51,1.136-0.766,1.877-0.766
		c0.815,0,1.494,0.321,2.038,0.964v-0.89h0.506v5.101H458.37z M457.839,290.271c-0.42-0.42-0.922-0.63-1.507-0.63
		c-0.593,0-1.095,0.206-1.507,0.617c-0.42,0.42-0.63,0.927-0.63,1.52c0,0.585,0.21,1.087,0.63,1.507s0.923,0.63,1.507,0.63
		c0.593,0,1.095-0.206,1.507-0.618c0.42-0.42,0.63-0.926,0.63-1.519C458.469,291.193,458.259,290.691,457.839,290.271z"/>
	<path d="M460.73,288.308c-0.091,0-0.186-0.037-0.284-0.111c-0.074-0.073-0.115-0.173-0.124-0.296c0-0.223,0.137-0.358,0.408-0.407
		c0.205,0,0.341,0.136,0.407,0.407C461.137,288.172,461.001,288.308,460.73,288.308z M460.47,294.322v-5.101h0.507v5.101H460.47z"/>
	<path d="M471.609,294.322v-3.52c0-0.313-0.103-0.585-0.309-0.815s-0.502-0.346-0.889-0.346c-0.799,0-1.198,0.387-1.198,1.161v3.52
		h-0.506v-3.52c0-0.346-0.116-0.622-0.347-0.827c-0.238-0.223-0.522-0.334-0.852-0.334c-0.338,0-0.622,0.107-0.853,0.321
		c-0.23,0.206-0.346,0.485-0.346,0.84v3.52h-0.506v-5.101h0.506v0.507c0.247-0.388,0.646-0.581,1.198-0.581
		c0.658,0,1.145,0.268,1.457,0.803c0.297-0.535,0.778-0.803,1.445-0.803c0.51,0,0.922,0.145,1.234,0.433
		c0.313,0.296,0.47,0.704,0.47,1.223v3.52H471.609z"/>
	<path d="M476.994,293.878c-0.338,0.362-0.812,0.543-1.421,0.543c-0.601,0-1.066-0.177-1.396-0.531
		c-0.329-0.354-0.494-0.848-0.494-1.481v-3.187h0.507v3.187c0,0.485,0.106,0.86,0.321,1.124c0.222,0.264,0.576,0.395,1.062,0.395
		c0.947,0,1.421-0.506,1.421-1.519v-3.187h0.493v3.187C477.488,293.034,477.323,293.523,476.994,293.878z"/>
	<path d="M478.563,294.322v-9.139h0.494v9.139H478.563z"/>
	<path d="M481.564,289.729v4.594h-0.507v-4.594h-0.691v-0.507h0.691v-2.235h0.507v2.235h1.186v0.507H481.564z"/>
	<path d="M487.59,294.322v-0.877c-0.535,0.643-1.215,0.964-2.038,0.964c-0.741,0-1.362-0.252-1.864-0.754
		c-0.511-0.511-0.766-1.136-0.766-1.877s0.251-1.362,0.753-1.865c0.511-0.51,1.136-0.766,1.877-0.766
		c0.815,0,1.494,0.321,2.038,0.964v-0.89h0.506v5.101H487.59z M487.059,290.271c-0.42-0.42-0.922-0.63-1.507-0.63
		c-0.593,0-1.095,0.206-1.507,0.617c-0.42,0.42-0.63,0.927-0.63,1.52c0,0.585,0.21,1.087,0.63,1.507s0.923,0.63,1.507,0.63
		c0.593,0,1.095-0.206,1.507-0.618c0.42-0.42,0.63-0.926,0.63-1.519C487.689,291.193,487.479,290.691,487.059,290.271z"/>
	<path d="M495.16,294.421c-0.758,0-1.388-0.251-1.89-0.753c-0.503-0.502-0.754-1.132-0.754-1.89s0.251-1.388,0.754-1.89
		c0.502-0.502,1.132-0.753,1.89-0.753c0.65,0,1.169,0.147,1.556,0.444v0.604l-0.321-0.209l-0.346-0.186
		c-0.313-0.107-0.609-0.161-0.889-0.161c-0.635,0-1.148,0.198-1.544,0.593c-0.403,0.404-0.605,0.923-0.605,1.557
		c0,0.626,0.202,1.141,0.605,1.544s0.918,0.604,1.544,0.604c0.593,0,1.111-0.197,1.556-0.593v0.63
		C496.255,294.269,495.737,294.421,495.16,294.421z"/>
	<path d="M501.681,294.322v-0.877c-0.535,0.643-1.215,0.964-2.038,0.964c-0.741,0-1.362-0.252-1.864-0.754
		c-0.511-0.511-0.766-1.136-0.766-1.877s0.251-1.362,0.753-1.865c0.511-0.51,1.136-0.766,1.877-0.766
		c0.815,0,1.494,0.321,2.038,0.964v-0.89h0.506v5.101H501.681z M501.15,290.271c-0.42-0.42-0.922-0.63-1.507-0.63
		c-0.593,0-1.095,0.206-1.507,0.617c-0.42,0.42-0.63,0.927-0.63,1.52c0,0.585,0.21,1.087,0.63,1.507s0.923,0.63,1.507,0.63
		c0.593,0,1.095-0.206,1.507-0.618c0.42-0.42,0.63-0.926,0.63-1.519C501.78,291.193,501.57,290.691,501.15,290.271z"/>
	<path d="M505.632,285.689l-0.333-0.037c-0.462,0-0.692,0.272-0.692,0.815v2.754h1.211v0.507h-1.211v4.594h-0.506v-4.594h-0.691
		v-0.507h0.691v-2.902c0-0.782,0.396-1.173,1.186-1.173c0.181,0,0.297,0.008,0.346,0.024c0.099,0,0.21,0.029,0.334,0.087v0.506
		L505.632,285.689z"/>
	<path d="M506.51,291.667c0,0.691,0.186,1.239,0.556,1.643c0.387,0.412,0.918,0.617,1.593,0.617c0.346,0,0.659-0.058,0.938-0.173
		c0.354-0.147,0.671-0.448,0.951-0.901l0.457,0.21c-0.321,0.609-0.815,1.021-1.481,1.235c-0.256,0.082-0.544,0.123-0.865,0.123
		c-0.766,0-1.396-0.251-1.89-0.753c-0.502-0.502-0.753-1.132-0.753-1.89c0-0.766,0.247-1.396,0.741-1.89
		c0.502-0.502,1.136-0.753,1.901-0.753c0.758,0,1.384,0.234,1.878,0.703c0.502,0.47,0.753,1.079,0.753,1.828H506.51z
		 M509.992,290.049c-0.387-0.279-0.832-0.42-1.334-0.42c-1.054,0-1.745,0.52-2.074,1.557h4.137
		C510.639,290.716,510.396,290.338,509.992,290.049z"/>
	<path d="M516.747,294.322v-0.877c-0.535,0.643-1.215,0.964-2.038,0.964c-0.741,0-1.362-0.252-1.864-0.754
		c-0.511-0.511-0.766-1.136-0.766-1.877s0.251-1.362,0.753-1.865c0.511-0.51,1.136-0.766,1.877-0.766
		c0.815,0,1.494,0.321,2.038,0.964v-0.89h0.506v5.101H516.747z M516.216,290.271c-0.42-0.42-0.922-0.63-1.507-0.63
		c-0.593,0-1.095,0.206-1.507,0.617c-0.42,0.42-0.63,0.927-0.63,1.52c0,0.585,0.21,1.087,0.63,1.507s0.923,0.63,1.507,0.63
		c0.593,0,1.095-0.206,1.507-0.618c0.42-0.42,0.63-0.926,0.63-1.519C516.846,291.193,516.636,290.691,516.216,290.271z"/>
</g>
</svg>
