<?xml version="1.0" encoding="utf-8"?>
<!-- Generator: Adobe Illustrator 15.1.0, SVG Export Plug-In . SVG Version: 6.00 Build 0)  -->
<!DOCTYPE svg PUBLIC "-//W3C//DTD SVG 1.1//EN" "http://www.w3.org/Graphics/SVG/1.1/DTD/svg11.dtd">
<svg version="1.1" id="Layer_1" xmlns="http://www.w3.org/2000/svg" xmlns:xlink="http://www.w3.org/1999/xlink" x="0px" y="0px"
	 width="868px" height="448px" viewBox="0 0 868 448" enable-background="new 0 0 868 448" xml:space="preserve">
<g>
	<path d="M526.911,95.194v-1.278c-0.78,0.937-1.771,1.404-2.97,1.404c-1.08,0-1.986-0.366-2.719-1.098
		c-0.744-0.744-1.115-1.656-1.115-2.736s0.365-1.986,1.098-2.718c0.744-0.744,1.656-1.116,2.736-1.116
		c1.188,0,2.178,0.468,2.97,1.404V87.76h0.737v7.434H526.911z M526.137,89.29c-0.611-0.611-1.344-0.918-2.195-0.918
		c-0.864,0-1.597,0.301-2.196,0.9c-0.612,0.612-0.918,1.35-0.918,2.214c0,0.853,0.306,1.584,0.918,2.196
		c0.612,0.611,1.344,0.918,2.196,0.918c0.863,0,1.596-0.3,2.195-0.9c0.612-0.612,0.918-1.35,0.918-2.214
		C527.055,90.634,526.749,89.902,526.137,89.29z"/>
	<path d="M534.849,95.194v-4.446c0-1.571-0.708-2.357-2.124-2.357c-0.695,0-1.224,0.204-1.584,0.611
		c-0.372,0.408-0.559,0.967-0.559,1.675v4.518h-0.737V87.76h0.737v0.9c0.336-0.659,1.051-0.99,2.143-0.99
		c0.924,0,1.632,0.264,2.124,0.792c0.492,0.528,0.738,1.267,0.738,2.215v4.518H534.849z"/>
	<path d="M544.209,95.194v-1.278c-0.78,0.937-1.771,1.404-2.971,1.404c-1.08,0-1.985-0.366-2.717-1.098
		c-0.744-0.744-1.117-1.656-1.117-2.736s0.367-1.986,1.099-2.718c0.743-0.744,1.655-1.116,2.735-1.116
		c1.188,0,2.179,0.468,2.971,1.404V87.76h0.738v7.434H544.209z M543.436,89.29c-0.613-0.611-1.345-0.918-2.197-0.918
		c-0.863,0-1.596,0.301-2.195,0.9c-0.612,0.612-0.918,1.35-0.918,2.214c0,0.853,0.306,1.584,0.918,2.196
		c0.611,0.611,1.344,0.918,2.195,0.918c0.865,0,1.596-0.3,2.197-0.9c0.611-0.612,0.918-1.35,0.918-2.214
		C544.354,90.634,544.047,89.902,543.436,89.29z"/>
	<path d="M547.341,95.194v-13.32h0.72v13.32H547.341z"/>
	<path d="M550.185,86.428c-0.132,0-0.271-0.054-0.414-0.162c-0.108-0.108-0.168-0.252-0.18-0.432c0-0.324,0.198-0.522,0.594-0.594
		c0.3,0,0.498,0.198,0.595,0.594C550.78,86.23,550.58,86.428,550.185,86.428z M549.807,95.194V87.76h0.738v7.434H549.807z"/>
	<path d="M553.244,94.456h5.184v0.738h-6.713l5.31-6.732h-5.005V87.76h6.498L553.244,94.456z"/>
	<path d="M566.042,95.194v-1.278c-0.78,0.937-1.771,1.404-2.97,1.404c-1.08,0-1.986-0.366-2.719-1.098
		c-0.744-0.744-1.115-1.656-1.115-2.736s0.365-1.986,1.098-2.718c0.744-0.744,1.656-1.116,2.736-1.116
		c1.188,0,2.178,0.468,2.97,1.404V87.76h0.737v7.434H566.042z M565.268,89.29c-0.611-0.611-1.344-0.918-2.195-0.918
		c-0.864,0-1.597,0.301-2.196,0.9c-0.612,0.612-0.918,1.35-0.918,2.214c0,0.853,0.306,1.584,0.918,2.196
		c0.612,0.611,1.344,0.918,2.196,0.918c0.863,0,1.596-0.3,2.195-0.9c0.612-0.612,0.918-1.35,0.918-2.214
		C566.186,90.634,565.88,89.902,565.268,89.29z"/>
</g>
</svg>
