<?xml version="1.0" encoding="utf-8"?>
<!-- Generator: Adobe Illustrator 15.1.0, SVG Export Plug-In . SVG Version: 6.00 Build 0)  -->
<!DOCTYPE svg PUBLIC "-//W3C//DTD SVG 1.1//EN" "http://www.w3.org/Graphics/SVG/1.1/DTD/svg11.dtd">
<svg version="1.1" id="Layer_1" xmlns="http://www.w3.org/2000/svg" xmlns:xlink="http://www.w3.org/1999/xlink" x="0px" y="0px"
	 width="868px" height="448px" viewBox="0 0 868 448" enable-background="new 0 0 868 448" xml:space="preserve">
<g>
	<path d="M281.117,363.361v-1.332c-0.792,0.973-1.801,1.458-3.024,1.458c-1.08,0-1.986-0.366-2.718-1.099
		c-0.744-0.743-1.116-1.655-1.116-2.735s0.366-1.985,1.098-2.718c0.744-0.744,1.656-1.116,2.736-1.116
		c1.188,0,2.196,0.485,3.024,1.458v-7.236h0.737v13.32H281.117z M280.289,357.457c-0.612-0.611-1.345-0.918-2.196-0.918
		c-0.864,0-1.596,0.301-2.196,0.9c-0.611,0.611-0.918,1.35-0.918,2.214c0,0.853,0.307,1.584,0.918,2.196
		c0.612,0.611,1.344,0.918,2.196,0.918c0.864,0,1.596-0.301,2.196-0.9c0.611-0.611,0.918-1.35,0.918-2.214
		C281.207,358.801,280.901,358.069,280.289,357.457z"/>
	<path d="M284.195,359.491c0,1.009,0.27,1.806,0.81,2.394c0.564,0.601,1.338,0.9,2.322,0.9c0.504,0,0.96-0.084,1.368-0.252
		c0.516-0.216,0.978-0.654,1.386-1.314l0.666,0.307c-0.468,0.889-1.188,1.488-2.16,1.8c-0.372,0.12-0.792,0.181-1.26,0.181
		c-1.116,0-2.034-0.366-2.754-1.099c-0.732-0.731-1.098-1.649-1.098-2.754c0-1.116,0.359-2.034,1.08-2.754
		c0.731-0.731,1.655-1.099,2.771-1.099c1.104,0,2.017,0.343,2.736,1.026c0.731,0.685,1.098,1.572,1.098,2.664H284.195z
		 M289.271,357.133c-0.564-0.407-1.212-0.611-1.944-0.611c-1.536,0-2.544,0.756-3.023,2.268h6.029
		C290.212,358.105,289.859,357.554,289.271,357.133z"/>
	<path d="M293.213,362.623h5.184v0.738h-6.714l5.31-6.732h-5.004v-0.701h6.498L293.213,362.623z"/>
	<path d="M303.076,363.686l-3.51-7.758h0.792l2.699,5.922l2.719-5.922h0.828L303.076,363.686z"/>
	<path d="M314.111,362.371c-0.744,0.744-1.656,1.116-2.736,1.116s-1.986-0.366-2.718-1.099c-0.744-0.743-1.116-1.655-1.116-2.735
		c0-1.067,0.372-1.974,1.116-2.718c0.731-0.756,1.638-1.135,2.718-1.135c1.068,0,1.974,0.373,2.718,1.117s1.116,1.655,1.116,2.735
		S314.842,361.64,314.111,362.371z M313.588,357.439c-0.6-0.612-1.338-0.918-2.214-0.918c-0.84,0-1.565,0.313-2.178,0.936
		c-0.624,0.625-0.937,1.356-0.937,2.196c0,0.853,0.307,1.584,0.918,2.196c0.612,0.611,1.344,0.918,2.196,0.918
		c0.864,0,1.596-0.301,2.196-0.9c0.612-0.611,0.918-1.35,0.918-2.214C314.489,358.777,314.189,358.039,313.588,357.439z"/>
	<path d="M317.26,363.361v-13.32h0.721v13.32H317.26z"/>
	<path d="M321.634,356.666v6.695h-0.737v-6.695h-1.009v-0.738h1.009v-3.258h0.737v3.258h1.729v0.738H321.634z"/>
	<path d="M330.418,363.361v-1.277c-0.779,0.936-1.77,1.403-2.97,1.403c-1.08,0-1.986-0.366-2.718-1.099
		c-0.744-0.743-1.116-1.655-1.116-2.735s0.366-1.985,1.098-2.718c0.744-0.744,1.656-1.116,2.736-1.116
		c1.188,0,2.178,0.468,2.97,1.403v-1.295h0.738v7.434H330.418z M329.645,357.457c-0.612-0.611-1.345-0.918-2.196-0.918
		c-0.864,0-1.596,0.301-2.196,0.9c-0.611,0.611-0.918,1.35-0.918,2.214c0,0.853,0.307,1.584,0.918,2.196
		c0.612,0.611,1.344,0.918,2.196,0.918c0.864,0,1.596-0.301,2.196-0.9c0.612-0.611,0.918-1.35,0.918-2.214
		C330.563,358.801,330.257,358.069,329.645,357.457z"/>
	<path d="M336.863,357.025c-0.192-0.145-0.396-0.258-0.612-0.342s-0.444-0.127-0.684-0.127c-0.204,0-0.396,0.063-0.576,0.189
		c-0.18,0.127-0.336,0.282-0.468,0.469c-0.133,0.186-0.237,0.393-0.315,0.621c-0.078,0.228-0.117,0.438-0.117,0.629v4.896h-0.737
		v-7.434h0.737v1.008c0.156-0.276,0.36-0.528,0.612-0.756c0.252-0.229,0.527-0.342,0.828-0.342c0.372,0,0.678,0.041,0.918,0.125
		c0.239,0.084,0.51,0.234,0.81,0.45L336.863,357.025z"/>
	<path d="M338.014,359.491c0,1.009,0.27,1.806,0.81,2.394c0.564,0.601,1.338,0.9,2.322,0.9c0.504,0,0.96-0.084,1.368-0.252
		c0.516-0.216,0.978-0.654,1.386-1.314l0.666,0.307c-0.468,0.889-1.188,1.488-2.16,1.8c-0.372,0.12-0.792,0.181-1.26,0.181
		c-1.116,0-2.034-0.366-2.754-1.099c-0.732-0.731-1.098-1.649-1.098-2.754c0-1.116,0.359-2.034,1.08-2.754
		c0.731-0.731,1.655-1.099,2.771-1.099c1.104,0,2.017,0.343,2.736,1.026c0.731,0.685,1.098,1.572,1.098,2.664H338.014z
		 M343.09,357.133c-0.564-0.407-1.212-0.611-1.944-0.611c-1.536,0-2.544,0.756-3.023,2.268h6.029
		C344.031,358.105,343.678,357.554,343.09,357.133z"/>
	<path d="M352.936,363.361v-1.277c-0.779,0.936-1.77,1.403-2.97,1.403c-1.08,0-1.986-0.366-2.718-1.099
		c-0.744-0.743-1.116-1.655-1.116-2.735s0.366-1.985,1.098-2.718c0.744-0.744,1.656-1.116,2.736-1.116
		c1.188,0,2.178,0.468,2.97,1.403v-1.295h0.738v7.434H352.936z M352.162,357.457c-0.612-0.611-1.345-0.918-2.196-0.918
		c-0.864,0-1.596,0.301-2.196,0.9c-0.611,0.611-0.918,1.35-0.918,2.214c0,0.853,0.307,1.584,0.918,2.196
		c0.612,0.611,1.344,0.918,2.196,0.918c0.864,0,1.596-0.301,2.196-0.9c0.612-0.611,0.918-1.35,0.918-2.214
		C353.08,358.801,352.775,358.069,352.162,357.457z"/>
	<path d="M278.183,380.505c-1.104,0-2.021-0.365-2.754-1.098c-0.732-0.731-1.098-1.649-1.098-2.754c0-1.104,0.365-2.021,1.098-2.754
		c0.732-0.731,1.65-1.098,2.754-1.098c0.948,0,1.704,0.216,2.269,0.647v0.882l-0.469-0.306l-0.504-0.271
		c-0.456-0.155-0.888-0.233-1.296-0.233c-0.924,0-1.674,0.288-2.25,0.864c-0.588,0.588-0.882,1.344-0.882,2.268
		c0,0.912,0.294,1.662,0.882,2.25s1.338,0.882,2.25,0.882c0.864,0,1.62-0.288,2.269-0.864v0.918
		C279.779,380.283,279.023,380.505,278.183,380.505z"/>
	<path d="M287.453,379.371c-0.744,0.744-1.656,1.116-2.736,1.116s-1.986-0.366-2.718-1.098c-0.744-0.744-1.116-1.656-1.116-2.736
		c0-1.068,0.372-1.974,1.116-2.718c0.731-0.756,1.638-1.134,2.718-1.134c1.068,0,1.974,0.372,2.718,1.115
		c0.744,0.744,1.116,1.656,1.116,2.736S288.185,378.64,287.453,379.371z M286.931,374.439c-0.6-0.612-1.338-0.918-2.214-0.918
		c-0.84,0-1.565,0.313-2.178,0.936c-0.624,0.624-0.937,1.356-0.937,2.196c0,0.853,0.307,1.584,0.918,2.196
		c0.612,0.611,1.344,0.918,2.196,0.918c0.864,0,1.596-0.3,2.196-0.9c0.612-0.612,0.918-1.35,0.918-2.214
		C287.831,375.777,287.531,375.039,286.931,374.439z"/>
	<path d="M295.409,380.361v-4.446c0-1.571-0.709-2.357-2.124-2.357c-0.696,0-1.225,0.204-1.584,0.611
		c-0.372,0.408-0.559,0.967-0.559,1.675v4.518h-0.737v-7.434h0.737v0.899c0.336-0.659,1.05-0.99,2.143-0.99
		c0.924,0,1.632,0.265,2.124,0.792c0.491,0.528,0.737,1.267,0.737,2.215v4.518H295.409z"/>
	<path d="M302.032,380.505c-1.104,0-2.022-0.365-2.754-1.098c-0.732-0.731-1.099-1.649-1.099-2.754c0-1.104,0.366-2.021,1.099-2.754
		c0.731-0.731,1.649-1.098,2.754-1.098c0.947,0,1.703,0.216,2.268,0.647v0.882l-0.468-0.306l-0.504-0.271
		c-0.456-0.155-0.889-0.233-1.296-0.233c-0.925,0-1.674,0.288-2.25,0.864c-0.588,0.588-0.882,1.344-0.882,2.268
		c0,0.912,0.294,1.662,0.882,2.25s1.338,0.882,2.25,0.882c0.863,0,1.62-0.288,2.268-0.864v0.918
		C303.628,380.283,302.872,380.505,302.032,380.505z"/>
	<path d="M305.489,376.491c0,1.008,0.27,1.807,0.81,2.395c0.564,0.6,1.338,0.899,2.322,0.899c0.504,0,0.96-0.084,1.368-0.252
		c0.516-0.216,0.978-0.653,1.386-1.313l0.666,0.306c-0.468,0.888-1.188,1.488-2.16,1.8c-0.372,0.12-0.792,0.18-1.26,0.18
		c-1.116,0-2.034-0.365-2.754-1.098c-0.732-0.731-1.098-1.649-1.098-2.754c0-1.116,0.359-2.034,1.08-2.754
		c0.731-0.731,1.655-1.098,2.771-1.098c1.104,0,2.017,0.342,2.736,1.025c0.731,0.685,1.098,1.572,1.098,2.664H305.489z
		 M310.565,374.134c-0.564-0.408-1.212-0.612-1.944-0.612c-1.536,0-2.544,0.756-3.023,2.268h6.029
		C311.506,375.105,311.153,374.554,310.565,374.134z"/>
	<path d="M320.661,379.371c-0.744,0.744-1.655,1.116-2.735,1.116c-1.236,0-2.257-0.504-3.061-1.512v4.878h-0.737v-10.926h0.737
		v1.403c0.769-1.008,1.788-1.512,3.061-1.512c1.08,0,1.985,0.366,2.718,1.098c0.744,0.744,1.116,1.656,1.116,2.736
		S321.394,378.64,320.661,379.371z M320.122,374.457c-0.612-0.611-1.345-0.918-2.196-0.918c-0.864,0-1.597,0.301-2.196,0.9
		c-0.612,0.612-0.918,1.35-0.918,2.214c0,0.853,0.306,1.584,0.918,2.196c0.612,0.611,1.344,0.918,2.196,0.918
		c0.864,0,1.596-0.3,2.196-0.9c0.611-0.612,0.918-1.35,0.918-2.214C321.04,375.802,320.734,375.069,320.122,374.457z"/>
	<path d="M324.514,373.665v6.696h-0.737v-6.696h-1.009v-0.737h1.009v-3.259h0.737v3.259h1.729v0.737H324.514z"/>
	<path d="M332.632,379.713c-0.492,0.528-1.182,0.792-2.07,0.792c-0.876,0-1.554-0.258-2.033-0.773
		c-0.48-0.516-0.721-1.236-0.721-2.16v-4.644h0.738v4.644c0,0.708,0.156,1.254,0.468,1.638c0.324,0.385,0.84,0.576,1.548,0.576
		c1.38,0,2.07-0.738,2.07-2.214v-4.644h0.72v4.644C333.352,378.483,333.112,379.197,332.632,379.713z"/>
	<path d="M334.918,380.361v-13.32h0.721v13.32H334.918z"/>
	<path d="M342.028,379.713c-0.492,0.528-1.182,0.792-2.07,0.792c-0.876,0-1.554-0.258-2.033-0.773
		c-0.48-0.516-0.721-1.236-0.721-2.16v-4.644h0.738v4.644c0,0.708,0.156,1.254,0.468,1.638c0.324,0.385,0.84,0.576,1.548,0.576
		c1.38,0,2.07-0.738,2.07-2.214v-4.644h0.72v4.644C342.747,378.483,342.507,379.197,342.028,379.713z"/>
	<path d="M344.692,371.596c-0.133,0-0.271-0.055-0.414-0.162c-0.108-0.108-0.169-0.252-0.181-0.433c0-0.323,0.198-0.521,0.595-0.594
		c0.3,0,0.497,0.198,0.594,0.594C345.285,371.397,345.087,371.596,344.692,371.596z M344.314,380.361v-7.434h0.737v7.434H344.314z"
		/>
</g>
</svg>
