<?xml version="1.0" encoding="utf-8"?>
<!-- Generator: Adobe Illustrator 15.1.0, SVG Export Plug-In . SVG Version: 6.00 Build 0)  -->
<!DOCTYPE svg PUBLIC "-//W3C//DTD SVG 1.1//EN" "http://www.w3.org/Graphics/SVG/1.1/DTD/svg11.dtd">
<svg version="1.1" id="Layer_1" xmlns="http://www.w3.org/2000/svg" xmlns:xlink="http://www.w3.org/1999/xlink" x="0px" y="0px"
	 width="868px" height="448px" viewBox="0 0 868 448" enable-background="new 0 0 868 448" xml:space="preserve">
<g>
	<path d="M378.209,51.127c-0.156-0.253-0.321-0.501-0.481-0.752c-0.746,0.407-1.527,0.75-2.323,1.062
		c10.455,16.783,14.094,37.06,11.5,57.583c-0.933,7.383-2.491,14.594-4.572,21.616c-0.01-0.003-0.021-0.006-0.03-0.009
		c-0.115,0.466-0.257,0.92-0.413,1.37c-0.06,0.205-0.12,0.409-0.188,0.611c0.01,0.003,0.021,0.005,0.03,0.008
		c-2.645,8.462-6.061,16.639-10.167,24.47c0,0-0.001-0.001-0.002-0.001c-0.29,0.626-0.62,1.229-0.987,1.81
		c0.002,0.001,0.004,0.002,0.005,0.003c-7.343,13.566-16.706,26.077-27.495,37.265c0.594,0.498,1.15,1.036,1.685,1.596
		c0.649-0.672,1.305-1.336,1.945-2.021c9.545-10.21,18.489-22.446,25.774-35.794c0.011,0.006,0.022,0.013,0.034,0.019
		c0.014-0.024,0.03-0.048,0.044-0.073c0.061-0.115,0.123-0.23,0.185-0.344c0.22-0.506,0.47-0.996,0.74-1.473
		c4.199-7.922,7.802-16.216,10.598-24.695c0.177-0.703,0.396-1.39,0.665-2.054c-0.001,0-0.002,0-0.002,0
		C393.216,104.314,393.347,75.594,378.209,51.127z"/>
</g>
</svg>
