<?xml version="1.0" encoding="utf-8"?>
<!-- Generator: Adobe Illustrator 15.1.0, SVG Export Plug-In . SVG Version: 6.00 Build 0)  -->
<!DOCTYPE svg PUBLIC "-//W3C//DTD SVG 1.1//EN" "http://www.w3.org/Graphics/SVG/1.1/DTD/svg11.dtd">
<svg version="1.1" id="Layer_1" xmlns="http://www.w3.org/2000/svg" xmlns:xlink="http://www.w3.org/1999/xlink" x="0px" y="0px"
	 width="868px" height="448px" viewBox="0 0 868 448" enable-background="new 0 0 868 448" xml:space="preserve">
<g>
	<path d="M511.875,92.952c-0.524,0-1.042-0.029-1.554-0.081c-0.617,4.76-1.775,9.46-3.519,13.992
		c-8.536,22.183-28.87,37.161-48.11,49.75c-0.031-0.014-2.108,1.351-2.089,1.36c-13.756,8.923-27.902,17.391-40.541,27.741
		c-0.039-0.029-1.755,1.413-1.718,1.44c-5.035,4.241-9.819,8.794-14.21,13.836c-13.734,15.77-25.191,40.967-11.171,60.173
		c7.3,10.001,18.332,15.423,30.364,18c0.005,0.026,2.973,0.621,2.964,0.582c8.15,1.419,16.646,1.62,24.68,1.124
		c-0.08-0.598-0.132-1.204-0.14-1.819c-8.376,0.484-16.803,0.019-25.018-1.618c-0.008-0.042-2.903-0.673-2.896-0.627
		c-1.172-0.275-2.34-0.566-3.501-0.892c-12.629-3.54-23.589-11.1-28.389-23.648c-4.836-12.646-0.28-26.515,6.083-37.687
		c5.816-10.21,13.798-18.739,22.766-26.271c0.027,0.021,1.762-1.411,1.732-1.434c10.301-8.395,21.772-15.566,32.714-22.498
		c2.809-1.78,5.63-3.574,8.442-5.396c0.044,0.021,2.106-1.334,2.077-1.348c15.231-9.973,29.991-20.964,40.571-35.948
		c6.24-8.838,9.965-18.628,11.281-28.773C512.42,92.924,512.15,92.952,511.875,92.952z"/>
</g>
</svg>
