<?xml version="1.0" encoding="utf-8"?>
<!-- Generator: Adobe Illustrator 15.1.0, SVG Export Plug-In . SVG Version: 6.00 Build 0)  -->
<!DOCTYPE svg PUBLIC "-//W3C//DTD SVG 1.1//EN" "http://www.w3.org/Graphics/SVG/1.1/DTD/svg11.dtd">
<svg version="1.1" id="Layer_1" xmlns="http://www.w3.org/2000/svg" xmlns:xlink="http://www.w3.org/1999/xlink" x="0px" y="0px"
	 width="868px" height="448px" viewBox="0 0 868 448" enable-background="new 0 0 868 448" xml:space="preserve">
<g>
	<path d="M345.231,197.294c-0.694-0.395-1.358-0.836-2-1.307c-14.774,15.37-32.218,28.261-50.815,37.938
		c-14.46,7.524-29.618,13.469-45.207,18.195c-0.021-0.023-0.041-0.048-0.063-0.072c-0.899,0.344-1.821,0.636-2.772,0.849
		c0.018,0.021,0.035,0.042,0.054,0.063c-29.052,8.511-59.557,12.841-89.88,15.155c0.078,0.573,0.145,1.15,0.197,1.732
		c15.337-1.284,30.63-3.083,45.851-5.538c15.111-2.438,30.238-5.697,45.026-10.021c0.002,0.002,0.005,0.005,0.007,0.008
		c0.32-0.102,0.651-0.173,0.977-0.259c0.129-0.039,0.254-0.086,0.385-0.123c0.483-0.161,0.973-0.306,1.469-0.435
		c-0.011-0.012-0.022-0.023-0.033-0.035C284.668,242.479,318.71,224.98,345.231,197.294z"/>
</g>
</svg>
