<?xml version="1.0" encoding="utf-8"?>
<!-- Generator: Adobe Illustrator 15.1.0, SVG Export Plug-In . SVG Version: 6.00 Build 0)  -->
<!DOCTYPE svg PUBLIC "-//W3C//DTD SVG 1.1//EN" "http://www.w3.org/Graphics/SVG/1.1/DTD/svg11.dtd">
<svg version="1.1" id="Layer_1" xmlns="http://www.w3.org/2000/svg" xmlns:xlink="http://www.w3.org/1999/xlink" x="0px" y="0px"
	 width="868px" height="448px" viewBox="0 0 868 448" enable-background="new 0 0 868 448" xml:space="preserve">
<g>
	<path d="M625.416,191.25c-4.797-6.808-10.593-12.613-17.053-17.571c-0.365,0.584-0.756,1.151-1.192,1.683
		c19.126,14.716,29.343,37.475,28.755,61.539c-0.525,21.531-10.451,42.794-27.646,55.942c-19.386,14.824-45.886,14.983-67.359,4.883
		c-16.187-7.614-29.59-20.049-41.918-33.062c0.031-0.022-1.396-1.514-1.418-1.497c-2.981-3.177-5.904-6.379-8.79-9.544
		c-15.977-17.525-32.41-34.319-50.337-49.824c0.017-0.025-1.537-1.369-1.556-1.341c-0.842-0.721-1.668-1.456-2.517-2.17
		c-5.476-4.614-11.068-9.091-16.776-13.417c0.03-0.024-1.517-1.181-1.546-1.157c-7.781-5.836-15.771-11.389-23.98-16.597
		c0.009-0.025-2.188-1.424-2.204-1.377c-5.378-3.357-10.843-6.574-16.403-9.625c0.021-0.041-1.89-1.063-1.908-1.028
		c-2.397-1.294-4.805-2.568-7.235-3.802c-24.842-12.61-52.812-23.609-81.087-23.303c-21.913,0.237-44.964,6.81-58.136,25.525
		c-9.775,13.889-10.316,31.956-6.538,48.549c0.747-0.231,1.519-0.393,2.305-0.509c-2.697-11.972-2.818-24.354,0.888-36.056
		c8.028-25.347,35.719-34.947,59.867-35.625c31.009-0.87,61.899,12.524,88.692,26.89c0.087,0.047,0.173,0.096,0.26,0.143
		c-0.015,0.028,1.9,1.065,1.91,1.046c5.662,3.097,11.226,6.363,16.684,9.798c-0.004,0.013,2.183,1.425,2.19,1.403
		c7.861,5.033,15.517,10.39,22.978,16.008c-0.018,0.015,1.524,1.158,1.532,1.151c6.76,5.141,13.358,10.495,19.81,16.007
		c-0.016,0.024,1.567,1.364,1.579,1.346c1.406,1.211,2.805,2.43,4.197,3.655c18.571,16.354,34.956,34.473,51.786,52.537
		c0.82,0.88,1.646,1.758,2.476,2.635c-0.044,0.03,1.366,1.506,1.409,1.478c13.671,14.308,28.718,27.844,47.177,35.479
		c19.128,7.911,41.428,6.954,59.496-3.237c17.171-9.686,28.317-27.51,32.698-46.386C641.243,231.391,637.564,208.492,625.416,191.25
		z"/>
</g>
</svg>
