<?xml version="1.0" encoding="utf-8"?>
<!-- Generator: Adobe Illustrator 15.1.0, SVG Export Plug-In . SVG Version: 6.00 Build 0)  -->
<!DOCTYPE svg PUBLIC "-//W3C//DTD SVG 1.1//EN" "http://www.w3.org/Graphics/SVG/1.1/DTD/svg11.dtd">
<svg version="1.1" id="Layer_1" xmlns="http://www.w3.org/2000/svg" xmlns:xlink="http://www.w3.org/1999/xlink" x="0px" y="0px"
	 width="868px" height="448px" viewBox="0 0 868 448" enable-background="new 0 0 868 448" xml:space="preserve">
<g>
	<path d="M860.001,239.402c-30.883,0.957-61.775,3.56-91.685,11.699c-27.909,7.596-54.593,19.81-79.499,34.4
		c-24.894,14.582-46.955,33.364-71.884,47.863c-25.502,14.833-53.328,22.086-82.828,21.108
		c-27.515-0.911-55.158-9.009-77.844-24.792c-17.679-12.3-29.509-29.918-33.972-49.938c0.016,0.003-0.469-2.313-0.478-2.314
		c-1.406-7.29-1.853-14.876-1.252-22.626c1.353-17.45,7.364-34.284,16.705-49.146c0.008,0.007,1.208-1.845,1.191-1.859
		c9.449-14.437,22.063-26.91,36.595-36.133c0.04,0.024,2.157-1.281,2.111-1.309c13.693-8.29,28.992-13.714,44.894-15.22
		c28.533-2.703,60.415,6.196,83.56,23.054c0.492,0.358,0.973,0.726,1.454,1.095c0.461-0.521,0.954-1.013,1.479-1.47
		c-13.59-10.487-30.182-17.162-46.843-21.237c-24.083-5.892-49.747-4.984-72.553,5.181c-4.846,2.16-9.505,4.657-13.979,7.428
		c-0.042-0.025-2.132,1.279-2.082,1.309c-14.362,9.309-26.634,21.637-36.19,35.961c-0.039-0.033-1.264,1.812-1.215,1.854
		c-13.637,21.274-20.757,47.366-16.77,72.491c-0.06-0.014,0.345,2.346,0.409,2.36c0.042,0.221,0.076,0.443,0.12,0.665
		c4.904,25.122,22.978,44.708,44.504,57.291c22.396,13.091,48.735,18.984,74.509,19.334c26.714,0.362,52.04-6.448,75.469-19.118
		c18.629-10.073,35.248-23.211,52.61-35.222c17.834-12.339,36.72-23.149,56.407-32.241c21.103-9.744,43.277-17.185,66.086-21.692
		c23.415-4.628,47.345-6.173,71.158-6.911C861.758,241.219,861.54,239.354,860.001,239.402z"/>
</g>
</svg>
