<?xml version="1.0" encoding="utf-8"?>
<!-- Generator: Adobe Illustrator 15.1.0, SVG Export Plug-In . SVG Version: 6.00 Build 0)  -->
<!DOCTYPE svg PUBLIC "-//W3C//DTD SVG 1.1//EN" "http://www.w3.org/Graphics/SVG/1.1/DTD/svg11.dtd">
<svg version="1.1" id="Layer_1" xmlns="http://www.w3.org/2000/svg" xmlns:xlink="http://www.w3.org/1999/xlink" x="0px" y="0px"
	 width="868px" height="448px" viewBox="0 0 868 448" enable-background="new 0 0 868 448" xml:space="preserve">
<g>
	<path d="M280.195,90.434c4.849,4.17,10.128,7.79,15.671,11.018c0.364-0.626,0.771-1.224,1.214-1.793
		c-7.86-4.612-15.172-10.04-21.454-16.681c-16.624-17.573-22.23-48.744,0.416-64.043c12.666-8.557,29.697-8.336,44.047-5.239
		c13.715,2.96,26.722,9.334,37.69,18.036c7.334,5.818,13.268,12.608,17.863,20.08c0.66-0.525,1.359-1.002,2.097-1.419
		c-12.82-20.195-35.186-34.28-58.489-38.849c-21.913-4.296-49.029-0.279-58.445,22.813
		C252.435,54.881,264.814,77.208,280.195,90.434z"/>
</g>
</svg>
