<?xml version="1.0" encoding="utf-8"?>
<!-- Generator: Adobe Illustrator 15.1.0, SVG Export Plug-In . SVG Version: 6.00 Build 0)  -->
<!DOCTYPE svg PUBLIC "-//W3C//DTD SVG 1.1//EN" "http://www.w3.org/Graphics/SVG/1.1/DTD/svg11.dtd">
<svg version="1.1" id="Layer_1" xmlns="http://www.w3.org/2000/svg" xmlns:xlink="http://www.w3.org/1999/xlink" x="0px" y="0px"
	 width="868px" height="448px" viewBox="0 0 868 448" enable-background="new 0 0 868 448" xml:space="preserve">
<g>
	<path d="M423.404,383.671c3.752,12.974,2.826,26.694-6.93,37.48c-9.397,10.389-24.849,13.31-38.189,13.657
		c-12.807,0.334-25.787-2.062-38.086-5.458c-21.588-5.962-42.571-16.474-58.95-31.898c-7.003-6.596-12.805-14.313-16.924-22.757
		c-0.734,0.42-1.506,0.774-2.305,1.073c5.666,11.183,14.299,20.93,24.06,28.857c16.352,13.28,36.331,22.161,56.623,27.426
		c22.135,5.742,48.569,8.368,68.896-4.197c15.893-9.824,18.552-28.245,14.13-44.737
		C424.976,383.363,424.198,383.541,423.404,383.671z"/>
</g>
</svg>
