<?xml version="1.0" encoding="utf-8"?>
<!-- Generator: Adobe Illustrator 15.1.0, SVG Export Plug-In . SVG Version: 6.00 Build 0)  -->
<!DOCTYPE svg PUBLIC "-//W3C//DTD SVG 1.1//EN" "http://www.w3.org/Graphics/SVG/1.1/DTD/svg11.dtd">
<svg version="1.1" id="Layer_1" xmlns="http://www.w3.org/2000/svg" xmlns:xlink="http://www.w3.org/1999/xlink" x="0px" y="0px"
	 width="868px" height="448px" viewBox="0 0 868 448" enable-background="new 0 0 868 448" xml:space="preserve">
<g>
	<path d="M293.77,288.592c0.021-0.016-1.884-1.143-1.916-1.119c-15.889-9.442-30.899-20.508-43.427-34.028
		c0.042-0.013-1.185-1.333-1.218-1.323c-2.688-2.975-5.269-6.055-7.699-9.274c-8.481-11.236-15.375-24.917-18.61-39.187
		c-0.751,0.214-1.522,0.375-2.312,0.474c1.471,6.436,3.59,12.649,6.073,18.308c5.025,11.454,11.788,21.524,19.766,30.52
		c-0.032,0.009,1.141,1.343,1.194,1.328c12.517,13.737,27.898,24.92,44.353,34.567c-0.042,0.031,1.875,1.149,1.927,1.11
		c10.371,5.979,21.125,11.376,31.825,16.444c0.258-0.647,0.551-1.277,0.89-1.881c-6.232-2.899-12.423-5.885-18.504-9.089
		C301.962,293.254,297.843,290.969,293.77,288.592z"/>
</g>
</svg>
