<?xml version="1.0" encoding="utf-8"?>
<!-- Generator: Adobe Illustrator 15.1.0, SVG Export Plug-In . SVG Version: 6.00 Build 0)  -->
<!DOCTYPE svg PUBLIC "-//W3C//DTD SVG 1.1//EN" "http://www.w3.org/Graphics/SVG/1.1/DTD/svg11.dtd">
<svg version="1.1" id="Layer_1" xmlns="http://www.w3.org/2000/svg" xmlns:xlink="http://www.w3.org/1999/xlink" x="0px" y="0px"
	 width="868px" height="448px" viewBox="0 0 868 448" enable-background="new 0 0 868 448" xml:space="preserve">
<path d="M400.742,135.938c0.002-0.013-2.608-0.773-2.609-0.766c-4.453-1.301-8.914-2.579-13.377-3.848
	c0.006-0.019-2.415-0.714-2.422-0.688c-15.719-4.466-31.444-8.913-46.89-14.273c-12.973-4.501-26.301-9.631-38.335-16.688
	c-0.346,0.635-0.747,1.236-1.174,1.817c13.666,7.948,28.971,13.446,43.701,18.417c13.786,4.652,27.775,8.638,41.768,12.614
	c0.972,0.321,2.717,0.779,2.719,0.772c4.557,1.295,9.113,2.598,13.661,3.922c-0.002,0.011,2.611,0.762,2.611,0.762
	c5.591,1.643,11.165,3.343,16.715,5.12c0.163-0.663,0.367-1.31,0.612-1.939C412.085,139.342,406.422,137.613,400.742,135.938z"/>
</svg>
