<?xml version="1.0" encoding="utf-8"?>
<!-- Generator: Adobe Illustrator 15.1.0, SVG Export Plug-In . SVG Version: 6.00 Build 0)  -->
<!DOCTYPE svg PUBLIC "-//W3C//DTD SVG 1.1//EN" "http://www.w3.org/Graphics/SVG/1.1/DTD/svg11.dtd">
<svg version="1.1" id="Layer_1" xmlns="http://www.w3.org/2000/svg" xmlns:xlink="http://www.w3.org/1999/xlink" x="0px" y="0px"
	 width="868px" height="448px" viewBox="0 0 868 448" enable-background="new 0 0 868 448" xml:space="preserve">
<g>
	<path d="M456.602,157.973c-0.031,0.02,2.117,1.034,2.161,1.005c4.888,2.304,9.686,4.796,14.328,7.519
		c-0.032,0.021,1.943,1.18,1.96,1.169c10.691,6.488,20.47,14.258,28.421,23.874c6.153,7.44,10.679,16.362,12.682,25.803
		c0.796-0.228,1.612-0.399,2.45-0.497c-3.061-13.17-11.296-25.622-20.889-34.854c-6.196-5.963-13.146-11.11-20.553-15.634
		c0.017-0.01-1.977-1.178-1.989-1.17c-4.637-2.735-9.434-5.241-14.333-7.557c0.022-0.015-2.117-1.039-2.149-1.018
		c-11.2-5.146-22.845-9.363-34.118-13.19c-2.245-0.762-4.496-1.5-6.751-2.229c-0.18,0.654-0.389,1.297-0.649,1.917
		c3.876,1.242,7.741,2.525,11.586,3.868C437.995,150.203,447.432,153.773,456.602,157.973z"/>
</g>
</svg>
