<?xml version="1.0" encoding="utf-8"?>
<!-- Generator: Adobe Illustrator 15.1.0, SVG Export Plug-In . SVG Version: 6.00 Build 0)  -->
<!DOCTYPE svg PUBLIC "-//W3C//DTD SVG 1.1//EN" "http://www.w3.org/Graphics/SVG/1.1/DTD/svg11.dtd">
<svg version="1.1" id="Layer_1" xmlns="http://www.w3.org/2000/svg" xmlns:xlink="http://www.w3.org/1999/xlink" x="0px" y="0px"
	 width="868px" height="448px" viewBox="0 0 868 448" enable-background="new 0 0 868 448" xml:space="preserve">
<g>
	<path d="M518.496,216.419c-0.784,0.24-1.594,0.409-2.421,0.521c0.931,4.23,1.355,8.567,1.189,12.925
		c-0.523,13.733-8.941,25.417-19.681,33.301c-0.017-0.018-1.874,1.303-1.86,1.317c-10.542,7.14-23.167,10.875-35.592,13.026
		c-4.348,0.752-8.75,1.268-13.166,1.527c0.02,0.32,0.05,0.638,0.05,0.962c0,0.293-0.028,0.58-0.045,0.87
		c3.455-0.213,6.825-0.553,10.043-0.985c13.807-1.852,28.337-6.063,40.119-13.922c0.017,0.017,1.906-1.259,1.87-1.298
		c6.184-4.448,11.519-9.973,15.455-16.784C520.306,237.755,521.012,226.853,518.496,216.419z"/>
</g>
</svg>
