<?xml version="1.0" encoding="utf-8"?>
<!-- Generator: Adobe Illustrator 15.1.0, SVG Export Plug-In . SVG Version: 6.00 Build 0)  -->
<!DOCTYPE svg PUBLIC "-//W3C//DTD SVG 1.1//EN" "http://www.w3.org/Graphics/SVG/1.1/DTD/svg11.dtd">
<svg version="1.1" id="Layer_1" xmlns="http://www.w3.org/2000/svg" xmlns:xlink="http://www.w3.org/1999/xlink" x="0px" y="0px"
	 width="868px" height="448px" viewBox="0 0 868 448" enable-background="new 0 0 868 448" xml:space="preserve">
<g>
	<path d="M510.368,64.958C505.05,46.881,492.034,30.66,474.19,23.89c-19.739-7.489-41.62-0.029-55.179,15.397
		c-18.229,20.738-17.33,50.3-18.696,76.187c-0.352,6.66-1.108,13.22-2.184,19.698c-0.016-0.004-0.384,2.036-0.35,2.045
		c-1.842,10.386-4.531,20.552-7.905,30.522c-0.02-0.013-0.736,1.982-0.702,2.003c-4.244,12.185-9.456,24.088-15.316,35.753
		c-12.124,24.138-28.185,44.872-50.346,60.491c-10.407,7.334-21.364,13.983-31.66,21.485c-0.029-0.018-1.913,1.363-1.879,1.383
		c-5.153,3.843-10.12,7.923-14.74,12.448c-14.112,13.823-21.678,31.539-19.954,51.397c0.706,8.131,3.076,15.779,6.632,22.857
		c0.749-0.396,1.532-0.732,2.342-1.006c-5.565-11.471-8.019-24.275-6.108-37.442c2.96-20.407,17.964-35.329,33.755-47.145
		c0.029,0.017,1.905-1.353,1.868-1.374c16.406-11.989,34.498-21.685,49.339-35.726c20.075-18.993,33.026-44.52,43.581-69.69
		c1.664-3.969,3.219-7.982,4.676-12.03c0.019,0.012,0.745-2.01,0.716-2.029c3.407-9.746,6.178-19.706,8.088-29.863
		c0.08-0.424,0.149-0.85,0.225-1.274c0.011,0.003,0.372-2.035,0.348-2.042c2.183-13.58,2.261-27.388,3.039-41.097
		c1.563-27.529,9.248-58.082,37.706-69.079c22.247-8.596,45.133,2.676,57.816,21.377c9.09,13.403,13.111,30.033,10.991,45.953
		c0.797,0.024,1.581,0.105,2.346,0.248C513.912,84.035,513.153,74.423,510.368,64.958z"/>
</g>
</svg>
