<?xml version="1.0" encoding="utf-8"?>
<!-- Generator: Adobe Illustrator 15.1.0, SVG Export Plug-In . SVG Version: 6.00 Build 0)  -->
<!DOCTYPE svg PUBLIC "-//W3C//DTD SVG 1.1//EN" "http://www.w3.org/Graphics/SVG/1.1/DTD/svg11.dtd">
<svg version="1.1" id="Layer_1" xmlns="http://www.w3.org/2000/svg" xmlns:xlink="http://www.w3.org/1999/xlink" x="0px" y="0px"
	 width="868px" height="448px" viewBox="0 0 868 448" enable-background="new 0 0 868 448" xml:space="preserve">
<g>
	<text transform="matrix(1.0234 0 0 1 114.1387 298.5146)" fill="#A7A9AC" font-family="'GeosansLight'" font-size="17.697">brief analysis</text>
</g>
<g>
	<text transform="matrix(1.0234 0 0 1 301.7593 58.959)" fill="#A7A9AC" font-family="'GeosansLight'" font-size="17.697">research</text>
</g>
<g>
	<text transform="matrix(1.0234 0 0 1 212.6445 110.415)" fill="#A7A9AC" font-family="'GeosansLight'" font-size="17.697">brainstorm</text>
</g>
<g>
	<text transform="matrix(1.0234 0 0 1 523.1504 216.7939)"><tspan x="0" y="0" fill="#A7A9AC" font-family="'GeosansLight'" font-size="17.697">initial concepts</tspan><tspan x="0" y="15.384" fill="#A7A9AC" font-family="'GeosansLight'" font-size="17.697">and ideas</tspan></text>
</g>
<g>
	<text transform="matrix(1.0234 0 0 1 518.9883 95.1943)" fill="#A7A9AC" font-family="'GeosansLight'" font-size="17.697">visual research</text>
</g>
<g>
	<text transform="matrix(1.0234 0 0 1 272.3408 375.0439)" fill="#A7A9AC" font-family="'GeosansLight'" font-size="17.697">idea development</text>
</g>
<g>
	<text transform="matrix(1.0234 0 0 1 82.0371 203.8076)" fill="#A7A9AC" font-family="'GeosansLight'" font-size="17.697">visual development</text>
</g>
<g>
	<path d="M9.543,270.647c63.641,2.827,127.959,3.839,191.053-6.338c53.909-8.696,108.042-27.837,146.121-68.571
		c33.915-36.281,60.253-98.125,31.492-144.611c-12.74-20.591-35.373-34.96-58.959-39.584c-21.913-4.296-49.029-0.279-58.445,22.813
		c-8.37,20.526,4.01,42.853,19.391,56.078c16.822,14.464,38.709,22.479,59.44,29.475c29.431,9.932,59.79,16.827,89.125,27.069
		c27.119,9.469,55.977,21.905,74.712,44.562c8.827,10.675,14.322,24.395,13.792,38.326c-0.546,14.337-9.69,26.453-21.104,34.33
		c-10.628,7.333-23.434,11.134-36.028,13.314c-14.792,2.561-30.21,2.467-44.716-1.6c-12.629-3.54-23.589-11.1-28.389-23.648
		c-4.836-12.646-0.28-26.515,6.083-37.687c12.779-22.435,35.997-36.764,57.211-50.203c18.753-11.879,38.081-24.268,51.09-42.691
		c11.883-16.829,14.732-37.099,8.957-56.725C505.05,46.881,492.034,30.66,474.19,23.89c-19.739-7.489-41.62-0.029-55.179,15.397
		c-18.229,20.738-17.33,50.3-18.696,76.187c-1.685,31.909-12.207,61.653-26.457,90.022c-12.124,24.138-28.185,44.872-50.346,60.491
		c-16.294,11.483-33.946,21.277-48.279,35.316c-14.112,13.823-21.678,31.539-19.954,51.397c1.83,21.078,14.808,38.938,30.798,51.925
		c16.352,13.28,36.331,22.161,56.623,27.426c22.135,5.742,48.569,8.368,68.896-4.197c19.497-12.052,19.081-37.043,10.104-55.536
		c-9.767-20.12-28.813-33.82-47.896-44.32c-21.946-12.074-45.532-20.88-67.693-32.558c-25.12-13.236-49.333-29.712-66.602-52.594
		c-15.617-20.691-25.884-49.666-17.748-75.356c8.028-25.347,35.719-34.947,59.867-35.625c31.009-0.87,61.899,12.524,88.692,26.89
		c25.709,13.785,49.285,31.312,71.14,50.558c18.571,16.354,34.956,34.473,51.786,52.537c14.708,15.785,30.84,31.229,51.062,39.592
		c19.128,7.911,41.428,6.954,59.496-3.237c17.171-9.686,28.317-27.51,32.698-46.386c4.74-20.428,1.062-43.326-11.087-60.568
		c-14.863-21.095-39.221-32.681-63.711-38.672c-24.083-5.892-49.747-4.984-72.553,5.181c-21.518,9.592-39.554,25.499-52.525,45.096
		c-14.812,22.378-22.378,50.355-17.183,76.972c4.904,25.122,22.978,44.708,44.504,57.291c22.396,13.091,48.735,18.984,74.509,19.334
		c26.714,0.362,52.04-6.448,75.469-19.118c18.629-10.073,35.248-23.211,52.61-35.222c17.834-12.339,36.72-23.149,56.407-32.241
		c21.103-9.744,43.277-17.185,66.086-21.692c23.415-4.628,47.345-6.173,71.158-6.911c1.569-0.049,1.352-1.913-0.188-1.865
		c-30.883,0.957-61.775,3.56-91.685,11.699c-27.909,7.596-54.593,19.81-79.499,34.4c-24.894,14.582-46.955,33.364-71.884,47.863
		c-25.502,14.833-53.328,22.086-82.828,21.108c-27.515-0.911-55.158-9.009-77.844-24.792c-24.737-17.21-38.031-44.829-35.702-74.878
		c4.039-52.106,49.567-98.748,101.496-103.667c28.533-2.703,60.415,6.196,83.56,23.054c20.129,14.663,30.914,38,30.311,62.71
		c-0.525,21.531-10.451,42.794-27.646,55.942c-19.386,14.824-45.886,14.983-67.359,4.883c-20.748-9.76-36.931-27.435-52.127-44.104
		c-17.185-18.85-34.874-36.874-54.409-53.335c-21.552-18.161-44.902-34.237-70.053-47.003
		c-24.842-12.61-52.812-23.609-81.087-23.303c-21.913,0.237-44.964,6.81-58.136,25.525c-13.583,19.299-9.337,46.667-0.445,66.935
		c22.009,50.165,77.069,74.044,123.751,95.345c21.182,9.665,42.747,20.431,58.793,37.736c15.668,16.897,26.945,46.085,9.268,65.629
		c-9.397,10.389-24.849,13.31-38.189,13.657c-12.807,0.334-25.787-2.062-38.086-5.458c-21.588-5.962-42.571-16.474-58.95-31.898
		c-16.547-15.585-26.427-37.419-23.102-60.342c3.013-20.771,18.501-35.861,34.598-47.774c16.673-12.339,35.214-22.137,50.364-36.47
		c20.075-18.993,33.026-44.52,43.581-69.69c5.936-14.156,10.642-28.827,13.48-43.922c2.753-14.644,2.77-29.586,3.611-44.413
		c1.563-27.529,9.248-58.082,37.706-69.079c22.247-8.596,45.133,2.676,57.816,21.377c11.765,17.348,15.05,40.102,7.5,59.724
		c-8.765,22.778-29.971,37.961-49.657,50.759c-20.092,13.061-41.079,25.073-57.012,43.368
		c-13.734,15.77-25.191,40.967-11.171,60.173c14.883,20.389,45.259,21.778,68.051,18.722c21.987-2.949,45.813-11.875,57.443-32.004
		c13.146-22.756,0.356-49.435-16.741-65.889c-19.869-19.121-47.472-29.855-73.142-38.569c-29.414-9.984-59.776-16.874-89.13-27.061
		c-21.458-7.446-43.912-16.571-59.817-33.385c-16.624-17.573-22.23-48.744,0.416-64.043c12.666-8.557,29.697-8.336,44.047-5.239
		c13.715,2.96,26.722,9.334,37.69,18.036c23.734,18.83,32.852,47.81,29.127,77.289c-6.905,54.646-47.006,100.199-94.489,124.906
		c-54.844,28.537-119.644,34.534-180.464,36.347c-33.976,1.013-67.983,0.018-101.929-1.49C8.62,268.72,7.899,270.574,9.543,270.647
		L9.543,270.647z"/>
</g>
<circle fill="#DD85B5" cx="155.115" cy="268.969" r="3.57"/>
<circle fill="#DD85B5" cx="376.322" cy="51.164" r="3.57"/>
<circle fill="#DD85B5" cx="296.597" cy="100.226" r="3.57"/>
<circle fill="#DD85B5" cx="417.334" cy="142.388" r="3.57"/>
<circle fill="#DD85B5" cx="517.181" cy="216.794" r="3.57"/>
<circle fill="#DD85B5" cx="511.624" cy="93.088" r="3.57"/>
<g>
	<text transform="matrix(1.0234 0 0 1 619.7935 176.6895)" fill="#A7A9AC" font-family="'GeosansLight'" font-size="17.697">production</text>
</g>
<circle fill="#DD85B5" cx="607.83" cy="174.584" r="3.57"/>
<circle fill="#DD85B5" cx="263.634" cy="375.045" r="3.57"/>
<circle fill="#DD85B5" cx="424.76" cy="383.238" r="3.57"/>
<circle fill="#DD85B5" cx="410.195" cy="357.174" r="3.57"/>
<circle fill="#DD85B5" cx="385.904" cy="336.332" r="3.57"/>
<circle fill="#DD85B5" cx="219.939" cy="203.809" r="3.57"/>
<circle fill="#DD85B5" cx="447.039" cy="279.732" r="3.57"/>
<circle fill="#DD85B5" cx="344.197" cy="196.671" r="3.57"/>
<g>
	<text transform="matrix(1.0234 0 0 1 246.0859 197.2295)" fill="#A7A9AC" font-family="'GeosansLight'" font-size="14.877">initial brainstorm</text>
</g>
<g>
	<text transform="matrix(1.0234 0 0 1 423.5498 136.6699)" fill="#A7A9AC" font-family="'GeosansLight'" font-size="14.877">coffee</text>
</g>
<g>
	<text transform="matrix(1.0234 0 0 1 431.9819 383.2373)" fill="#A7A9AC" font-family="'GeosansLight'" font-size="14.877">coffee</text>
</g>
<g>
	<text transform="matrix(1.0234 0 0 1 417.334 357.1729)" fill="#A7A9AC" font-family="'GeosansLight'" font-size="14.877">coffee</text>
</g>
<g>
	<text transform="matrix(1.0234 0 0 1 392.8027 336.3311)" fill="#A7A9AC" font-family="'GeosansLight'" font-size="14.877">coffee</text>
</g>
<circle fill="#DD85B5" cx="355.049" cy="320.043" r="3.57"/>
<g>
	<text transform="matrix(1.0234 0 0 1 361.9473 320.042)" fill="#A7A9AC" font-family="'GeosansLight'" font-size="14.877">coffee</text>
</g>
<circle fill="#DD85B5" cx="324.195" cy="305.285" r="3.57"/>
<g>
	<text transform="matrix(1.0234 0 0 1 331.0928 305.2852)" fill="#A7A9AC" font-family="'GeosansLight'" font-size="14.877">coffee</text>
</g>
<g>
	<text transform="matrix(1.0234 0 0 1 450.6084 294.2031)" fill="#A7A9AC" font-family="'GeosansLight'" font-size="14.877">more coffee</text>
</g>
</svg>
